<svg width="62" height="64" viewBox="0 0 62 64" fill="none" xmlns="http://www.w3.org/2000/svg">
<ellipse cx="29.7931" cy="36.4138" rx="29.7931" ry="27.5862" fill="#D4662D"/>
<ellipse cx="32.0001" cy="27.5862" rx="29.7931" ry="27.5862" fill="#FD6C22"/>
<path d="M35.7407 20.0938L37.2965 23.2055C37.5062 23.6358 38.0689 24.0441 38.5434 24.1324L41.3572 24.5958C43.1558 24.8938 43.5751 26.1958 42.2841 27.4979L40.0882 29.6938C39.7241 30.0579 39.5145 30.7751 39.6358 31.2938L40.2648 34.0082C40.7613 36.1489 39.6138 36.9876 37.7269 35.862L35.0896 34.2951C34.6151 34.0082 33.8207 34.0082 33.3462 34.2951L30.7089 35.862C28.822 36.9765 27.6745 36.1489 28.171 34.0082L28.8 31.2938C28.8993 30.7641 28.6896 30.0469 28.3255 29.6827L26.1296 27.4869C24.8386 26.1958 25.2579 24.8938 27.0565 24.5848L29.8703 24.1213C30.3448 24.0441 30.9076 23.6248 31.1172 23.1945L32.6731 20.0827C33.5227 18.4055 34.891 18.4055 35.7407 20.0938Z" fill="white"/>
<path d="M27.5865 20.6897H20.9658C20.5134 20.6897 20.1382 20.3145 20.1382 19.8621C20.1382 19.4097 20.5134 19.0345 20.9658 19.0345H27.5865C28.0389 19.0345 28.414 19.4097 28.414 19.8621C28.414 20.3145 28.0389 20.6897 27.5865 20.6897Z" fill="white"/>
<path d="M24.2761 36.138H20.9658C20.5134 36.138 20.1382 35.7628 20.1382 35.3104C20.1382 34.858 20.5134 34.4828 20.9658 34.4828H24.2761C24.7285 34.4828 25.1037 34.858 25.1037 35.3104C25.1037 35.7628 24.7285 36.138 24.2761 36.138Z" fill="white"/>
<path d="M22.0692 28.4138H20.9658C20.5134 28.4138 20.1382 28.0387 20.1382 27.5863C20.1382 27.1338 20.5134 26.7587 20.9658 26.7587H22.0692C22.5216 26.7587 22.8968 27.1338 22.8968 27.5863C22.8968 28.0387 22.5216 28.4138 22.0692 28.4138Z" fill="white"/>
</svg>
