<svg width="25" height="24" viewBox="0 0 25 24" fill="none" xmlns="http://www.w3.org/2000/svg">
<path d="M1.57227 4.8748C1.57227 4.62285 1.67236 4.38121 1.85052 4.20305C2.02868 4.0249 2.27031 3.9248 2.52227 3.9248H22.4723C22.7242 3.9248 22.9659 4.0249 23.144 4.20305C23.3221 4.38121 23.4223 4.62285 23.4223 4.8748V19.1248C23.4223 19.3767 23.3221 19.6184 23.144 19.7966C22.9659 19.9747 22.7242 20.0748 22.4723 20.0748H2.52227C2.27031 20.0748 2.02868 19.9747 1.85052 19.7966C1.67236 19.6184 1.57227 19.3767 1.57227 19.1248V4.8748Z" fill="#F2F2F2"/>
<path d="M2.52227 3.9248C2.27031 3.9248 2.02868 4.0249 1.85052 4.20305C1.67236 4.38121 1.57227 4.62285 1.57227 4.8748V19.1248C1.5743 19.2722 1.61117 19.417 1.67985 19.5475C1.74853 19.6779 1.84709 19.7902 1.96747 19.8753L17.918 3.9248H2.52227Z" fill="#F2F2F2"/>
<path d="M5.37227 15.3248L7.81472 11.2541C7.85689 11.1836 7.91661 11.1253 7.98804 11.0848C8.05946 11.0443 8.14016 11.023 8.22227 11.023C8.30438 11.023 8.38508 11.0443 8.4565 11.0848C8.52793 11.1253 8.58765 11.1836 8.62982 11.2541L10.7284 14.7548C10.7673 14.8199 10.8214 14.8746 10.8859 14.9145C10.9504 14.9544 11.0234 14.9783 11.0991 14.9841C11.1747 14.99 11.2506 14.9777 11.3205 14.9482C11.3903 14.9187 11.4522 14.8729 11.5007 14.8147L13.0825 12.9147C13.127 12.8612 13.1828 12.8182 13.2459 12.7887C13.3089 12.7591 13.3776 12.7438 13.4473 12.7438C13.5169 12.7438 13.5856 12.7591 13.6487 12.7887C13.7117 12.8182 13.7675 12.8612 13.8121 12.9147L15.3843 14.8014C15.4334 14.8603 15.496 14.9063 15.5668 14.9358C15.6376 14.9651 15.7144 14.977 15.7907 14.9703C15.8671 14.9636 15.9406 14.9384 16.0052 14.8971C16.0697 14.8558 16.1233 14.7995 16.1614 14.733L19.6223 8.6748" stroke="#191919" stroke-linecap="round" stroke-linejoin="round"/>
<path d="M1.57227 4.8748C1.57227 4.62285 1.67236 4.38121 1.85052 4.20305C2.02868 4.0249 2.27031 3.9248 2.52227 3.9248H22.4723C22.7242 3.9248 22.9659 4.0249 23.144 4.20305C23.3221 4.38121 23.4223 4.62285 23.4223 4.8748V19.1248C23.4223 19.3767 23.3221 19.6184 23.144 19.7966C22.9659 19.9747 22.7242 20.0748 22.4723 20.0748H2.52227C2.27031 20.0748 2.02868 19.9747 1.85052 19.7966C1.67236 19.6184 1.57227 19.3767 1.57227 19.1248V4.8748Z" stroke="#191919" stroke-linecap="round" stroke-linejoin="round"/>
</svg>
