<svg width="24" height="24" viewBox="0 0 24 24" fill="none" xmlns="http://www.w3.org/2000/svg">
<path d="M12 1.75879L19.9135 9.67229V21.3098C19.9135 21.5567 19.8154 21.7935 19.6408 21.9681C19.4663 22.1427 19.2294 22.2408 18.9825 22.2408H5.01749C4.77058 22.2408 4.53375 22.1427 4.35914 21.9681C4.18462 21.7935 4.08649 21.5567 4.08649 21.3098V9.67229L12 1.75879Z" fill="#F2F2F2"/>
<path d="M11.6704 4.88134C11.7137 4.83802 11.7651 4.80363 11.8216 4.78017C11.8781 4.7567 11.9387 4.74464 12 4.74464C12.0613 4.74464 12.1219 4.7567 12.1784 4.78017C12.235 4.80363 12.2864 4.83802 12.3295 4.88134L19.9135 12.4653V9.67229L12 1.75879L4.08649 9.67229V12.4653L11.6704 4.88134Z" fill="#F2F2F2"/>
<path d="M4.08649 9.67236V21.3099C4.08649 21.5568 4.18462 21.7936 4.35914 21.9682C4.53375 22.1427 4.77058 22.2409 5.01749 22.2409H18.9825C19.2294 22.2409 19.4662 22.1427 19.6408 21.9682C19.8154 21.7937 19.9135 21.5568 19.9135 21.3099V9.67236" stroke="#191919" stroke-linecap="round" stroke-linejoin="round"/>
<path d="M1.29352 12.4653L12 1.75879L22.7065 12.4653" stroke="#191919" stroke-linecap="round" stroke-linejoin="round"/>
<path d="M10.138 14.793H13.862C14.1089 14.793 14.3457 14.8911 14.5203 15.0656C14.6949 15.2401 14.793 15.4771 14.793 15.724V22.241H9.20697V15.724C9.20697 15.4771 9.3051 15.2402 9.47962 15.0656C9.65423 14.8911 9.89107 14.793 10.138 14.793Z" fill="#F2F2F2"/>
<path d="M9.26473 16.655H14.792V15.724C14.792 15.4771 14.6939 15.2402 14.5194 15.0656C14.3449 14.891 14.1079 14.793 13.861 14.793H10.138C9.89107 14.793 9.65423 14.8911 9.47962 15.0656C9.3051 15.2402 9.20697 15.4771 9.20697 15.724V16.655H9.26473Z" fill="#F2F2F2"/>
<path d="M10.138 14.793H13.862C14.1089 14.793 14.3457 14.8911 14.5203 15.0656C14.6949 15.2401 14.793 15.4771 14.793 15.724V22.241H9.20697V15.724C9.20697 15.4771 9.3051 15.2402 9.47962 15.0656C9.65423 14.8911 9.89107 14.793 10.138 14.793Z" stroke="#191919" stroke-linecap="round" stroke-linejoin="round"/>
</svg>
