<svg width="92" height="120" viewBox="0 0 92 120" fill="none" xmlns="http://www.w3.org/2000/svg">
<g clip-path="url(#clip0_20704_307)">
<path d="M7.92847 106.655C24.063 125.355 63.5793 123.721 76.7055 105.939C95.3562 80.6706 60.6064 22.9505 36.7619 24.5413C14.3035 26.0376 -14.0495 81.1825 7.92847 106.655Z" fill="#FD6C22"/>
<path d="M74.2228 104.281C73.2817 102.997 70.0961 103.167 68.0938 104.362C67.639 104.633 67.3457 104.897 66.9381 105.267C64.9752 107.039 64.2408 109.114 64.0223 109.792C63.66 110.914 62.7504 113.735 63.8707 114.617C65.0677 115.56 67.8753 113.729 68.5801 113.269C72.3189 110.829 75.5045 106.033 74.2208 104.281H74.2228Z" fill="black"/>
<path d="M50.8115 89.4615C49.3684 88.3295 36.573 92.6589 35.1278 94.8463C34.1946 96.2599 37.4727 97.5731 42.4893 96.0433C48.1477 94.3147 51.8156 90.2491 50.8135 89.4615H50.8115Z" fill="black"/>
<path d="M42.2096 107.051C39.473 111.142 36.7383 115.233 34.0016 119.325C35.8405 119.63 37.9137 119.868 40.1896 119.961C41.9222 120.031 43.5386 120.006 45.0192 119.923C45.0507 118.179 44.9306 115.924 44.3754 113.363C43.8123 110.766 42.9716 108.64 42.2096 107.051Z" fill="black"/>
<path d="M73.2246 31.1036C73.5672 29.747 75.2604 23.5826 80.4561 21.3716C81.1964 21.0566 82.4604 20.7121 84.0807 20.6983C87.8254 20.6668 91.0858 23.7067 91.3004 27.1836C91.7847 35.0255 86.6579 39.9515 80.1706 46.988C74.3232 53.3316 62.6933 66.064 54.2333 62.4709C51.0792 61.1321 48.8545 57.8186 48.3819 54.7058C47.1731 46.7301 56.8321 36.6871 73.2226 31.1036H73.2246Z" fill="#FD6C22"/>
<path d="M66.8397 89.7668L42.247 92.3952C43.0326 67.6333 41.6151 56.1196 39.7742 50.4848C39.3529 49.1913 37.8487 44.9681 39.853 41.7629C41.4162 39.2644 44.4935 38.3706 46.7438 38.0064L53.2292 37.3133C55.4146 37.079 57.4858 37.7544 59.0707 39.0321C60.2795 40.0087 60.252 41.1348 61.9865 44.3775C63.0871 46.4349 66.9007 61.7327 66.8397 89.7668Z" fill="#0000FF"/>
<path d="M39.5301 71.2341C47.7047 72.2914 53.8769 76.5027 54.8948 81.6236C55.5938 85.138 54.0226 88.0578 54.0226 88.0578C52.2724 91.3083 49.0021 92.4089 48.191 92.6825C42.0876 94.736 35.6299 90.2491 32.1391 87.8235C30.0148 86.3468 19.6883 78.8811 16.7567 64.9004C15.7053 59.8878 14.1578 52.5106 18.6074 47.5019C20.6333 45.222 24.2008 43.0917 27.4966 43.5662C33.9701 44.4955 39.5399 55.4815 39.5281 71.2361L39.5301 71.2341Z" fill="#FD6C22"/>
<path d="M60.1241 32.458C58.7715 29.9399 58.4998 27.4395 57.5291 25.9471C56.5605 24.4547 55.5268 24.1909 55.5268 24.1909L39.3234 26.5515L22.9802 25.5297C22.9802 25.5297 21.9721 25.8782 21.1295 27.4434C20.2868 29.0106 19.0307 31.5228 17.8908 34.1433C16.7508 36.7638 15.3017 38.1676 16.9142 40.9259C19.4284 45.2278 34.0292 50.4531 40.3019 50.3369C46.1926 50.2286 59.6003 44.8459 61.7523 40.351C63.1324 37.4687 61.4747 34.9702 60.1221 32.4541L60.1241 32.458Z" fill="#1B1464"/>
<path d="M44.6491 33.3264C43.6154 31.8104 30.1093 32.0762 28.0696 33.7241C26.7524 34.7892 29.4812 37.0317 34.7262 37.0869C40.6425 37.1479 45.3677 34.3797 44.6491 33.3264Z" fill="black"/>
<path d="M85.8786 105.17C91.7636 97.9338 93.2593 89.4041 89.2193 86.1185C85.1793 82.833 77.1335 86.0358 71.2485 93.2721C65.3634 100.509 63.8677 109.038 67.9077 112.324C71.9477 115.609 79.9935 112.407 85.8786 105.17Z" fill="#FD6C22"/>
<path d="M79.767 107.712C77.4536 109.754 72.8879 111.963 70.2654 109.941C67.5858 107.876 68.7356 102.781 69.9937 100.166C70.5903 98.9236 71.8956 96.2086 74.7898 95.4309C78.0108 94.5646 82.1059 96.3976 83.1671 99.6875C84.4292 103.598 80.5742 107 79.765 107.714L79.767 107.712Z" fill="#FEA679"/>
<path d="M80.2867 92.9855C79.954 93.8951 78.9381 94.7397 78.4557 94.4798C78.0226 94.2475 78.123 93.1863 78.436 92.4756C78.5207 92.2846 78.6841 91.9105 79.0149 91.6782C79.4992 91.3356 80.1391 91.44 80.3478 91.9381C80.521 92.3496 80.33 92.8693 80.2887 92.9855H80.2867Z" fill="#FEA679"/>
<path d="M84.9844 96.5728C84.2874 97.2442 83.0037 97.5592 82.6828 97.1142C82.3954 96.7165 82.9506 95.805 83.5412 95.3049C83.7007 95.169 84.0118 94.9052 84.4114 94.8402C84.9962 94.7457 85.5258 95.1178 85.4963 95.6573C85.4707 96.1042 85.073 96.4862 84.9844 96.5728Z" fill="#FEA679"/>
<path d="M83.5412 93.7594C82.9368 94.7005 81.6511 95.4743 81.2298 95.1219C80.8518 94.8069 81.2633 93.6649 81.789 92.9384C81.9307 92.7416 82.2083 92.3596 82.6139 92.1529C83.2104 91.8497 83.8365 92.0544 83.9054 92.6274C83.9625 93.1019 83.618 93.6393 83.5412 93.7575V93.7594Z" fill="#FEA679"/>
<path d="M38.8863 62.272C39.0576 64.1699 39.2092 66.1013 39.3391 68.0662C39.41 69.1314 39.473 70.1867 39.5301 71.2321C47.8976 72.0196 54.0994 76.5499 54.8948 81.6216C55.6292 86.3054 53.0185 89.5343 53.0185 89.5343C51.9435 90.8613 50.6855 91.6016 49.8487 91.9993" stroke="#754C24" stroke-width="0.459393" stroke-miterlimit="10"/>
<path d="M19.6685 73.4628C20.1253 74.3291 20.6333 75.215 21.2003 76.1148C23.4782 79.7374 26.0574 82.5627 28.4436 84.7245" stroke="#754C24" stroke-width="0.459393" stroke-miterlimit="10"/>
<path d="M36.817 119.511C41.9267 118.508 44.612 110.275 42.8147 101.122C41.0174 91.9698 35.4181 85.3637 30.3083 86.3671C25.1986 87.3705 22.5133 95.6035 24.3106 104.756C26.108 113.909 31.7072 120.515 36.817 119.511Z" fill="#FD6C22"/>
<path d="M41.8316 107.908C41.6485 110.987 39.9966 115.783 36.7146 116.216C33.3597 116.659 30.5581 112.253 29.5894 109.516C29.1307 108.217 28.1246 105.378 29.6131 102.777C31.2708 99.8826 35.4565 98.2681 38.5378 99.8353C42.1998 101.698 41.8966 106.831 41.8316 107.906V107.908Z" fill="#FEA679"/>
<path d="M31.7532 97.1557C32.1647 98.0318 32.0466 99.347 31.5209 99.5084C31.0503 99.6522 30.3691 98.8331 30.0856 98.1106C30.0088 97.9157 29.8612 97.5357 29.9281 97.138C30.0265 96.5532 30.5502 96.1732 31.0523 96.376C31.4658 96.5434 31.7 97.0454 31.7532 97.1557Z" fill="#FEA679"/>
<path d="M37.6105 96.3543C37.5948 97.323 36.9136 98.4531 36.3721 98.3684C35.8858 98.2916 35.6318 97.256 35.6948 96.4823C35.7106 96.2736 35.7441 95.868 35.9784 95.5392C36.3229 95.0568 36.9608 94.9446 37.3231 95.3463C37.6223 95.679 37.6125 96.2322 37.6105 96.3543Z" fill="#FEA679"/>
<path d="M34.5982 95.3935C34.8403 96.4862 34.482 97.9432 33.9347 97.9944C33.4444 98.0397 32.9247 96.943 32.779 96.059C32.7396 95.8188 32.6628 95.3542 32.8026 94.921C33.0074 94.2851 33.5941 93.9858 34.0508 94.3402C34.4269 94.6336 34.5667 95.2577 34.5962 95.3955L34.5982 95.3935Z" fill="#FEA679"/>
<path d="M42.9716 101.94C42.7944 100.877 40.5972 88.5617 33.1609 86.5515C31.3358 86.0574 29.8395 86.4787 29.8395 86.4787C27.3096 87.1934 26.02 89.6131 25.323 90.9656C24.8249 91.9323 23.1849 95.3896 23.872 101.601C24.5709 107.915 27.2052 112.835 29.3788 115.991" stroke="#754C24" stroke-width="0.459393" stroke-miterlimit="10"/>
<path d="M66.1329 103.054C66.3613 102.153 66.6782 101.147 67.1193 100.072C67.4225 99.3352 67.7434 98.6658 68.0643 98.0653C70.5155 93.1629 73.9905 90.2176 75.1481 89.2922C77.5324 87.3844 79.9284 86.1657 81.9367 85.3782" stroke="#754C24" stroke-width="0.459393" stroke-miterlimit="10"/>
<path d="M25.0553 91.4777C24.1752 91.7986 22.419 92.5841 21.0566 94.3856C20.4778 95.1515 20.1175 95.9056 19.8871 96.5179" stroke="#754C24" stroke-width="0.459393" stroke-miterlimit="10"/>
<path d="M26.2694 11.765C29.4488 10.3839 30.9341 6.74984 29.5867 3.64817C28.2393 0.546512 24.5696 -0.848242 21.3902 0.532905C18.2107 1.91405 16.7255 5.54809 18.0729 8.64975C19.4202 11.7514 23.0899 13.1462 26.2694 11.765Z" fill="#FD6C22"/>
<path d="M26.4035 10.0559C28.3393 9.21499 29.2434 7.00203 28.4228 5.11311C27.6023 3.22419 25.3678 2.3746 23.432 3.21551C21.4963 4.05641 20.5922 6.26937 21.4127 8.15829C22.2332 10.0472 24.4677 10.8968 26.4035 10.0559Z" fill="#FEA679"/>
<path d="M53.0245 12.2738C56.491 12.2738 59.3011 9.53237 59.3011 6.1507C59.3011 2.76903 56.491 0.0276489 53.0245 0.0276489C49.558 0.0276489 46.7478 2.76903 46.7478 6.1507C46.7478 9.53237 49.558 12.2738 53.0245 12.2738Z" fill="black"/>
<path d="M52.2192 10.7597C54.3298 10.7597 56.0407 9.09022 56.0407 7.03078C56.0407 4.97133 54.3298 3.30182 52.2192 3.30182C50.1087 3.30182 48.3977 4.97133 48.3977 7.03078C48.3977 9.09022 50.1087 10.7597 52.2192 10.7597Z" fill="black"/>
<path d="M53.0245 12.2738C56.491 12.2738 59.3011 9.53237 59.3011 6.1507C59.3011 2.76903 56.491 0.0276489 53.0245 0.0276489C49.558 0.0276489 46.7478 2.76903 46.7478 6.1507C46.7478 9.53237 49.558 12.2738 53.0245 12.2738Z" fill="#FD6C22"/>
<path d="M52.2192 10.7597C54.3298 10.7597 56.0407 9.09022 56.0407 7.03078C56.0407 4.97133 54.3298 3.30182 52.2192 3.30182C50.1087 3.30182 48.3977 4.97133 48.3977 7.03078C48.3977 9.09022 50.1087 10.7597 52.2192 10.7597Z" fill="#FEA679"/>
<path d="M47.2636 35.4764H31.4165C27.727 35.4764 24.7363 32.655 24.7363 29.1742V14.2229C24.6497 -2.63617 53.8612 -1.98842 53.9439 14.2229V29.1742C53.9439 32.655 50.9532 35.4764 47.2636 35.4764Z" fill="#FD6C22"/>
<path d="M33.474 14.5851C34.1123 14.5851 34.6297 14.0677 34.6297 13.4294C34.6297 12.7911 34.1123 12.2737 33.474 12.2737C32.8357 12.2737 32.3183 12.7911 32.3183 13.4294C32.3183 14.0677 32.8357 14.5851 33.474 14.5851Z" fill="#603813"/>
<path d="M44.7219 14.5851C45.3602 14.5851 45.8776 14.0677 45.8776 13.4294C45.8776 12.7911 45.3602 12.2737 44.7219 12.2737C44.0836 12.2737 43.5662 12.7911 43.5662 13.4294C43.5662 14.0677 44.0836 14.5851 44.7219 14.5851Z" fill="#603813"/>
<path d="M31.9344 25.1183C31.9344 28.2271 35.2499 30.7452 39.3412 30.7452C43.4324 30.7452 46.7479 28.2251 46.7479 25.1183C46.7479 22.0115 43.4324 14.0004 39.3412 14.0004C35.2499 14.0004 31.9344 22.0096 31.9344 25.1183Z" fill="#FEA679"/>
<path d="M42.4518 19.1822C42.8692 20.2217 41.5816 22.5981 39.4454 22.6414C37.201 22.6887 35.874 20.1154 36.317 19.0759C36.949 17.5973 41.8356 17.6505 42.4499 19.1802L42.4518 19.1822Z" fill="black"/>
<path d="M36.571 24.0827C36.6045 24.1595 36.9352 24.8958 37.7267 25.071C38.3961 25.2187 39.1147 24.9056 39.5105 24.2835C39.7999 24.9115 40.4614 25.2777 41.1269 25.1891C41.7431 25.1065 42.255 24.6477 42.4164 24.0334" stroke="black" stroke-width="0.459393" stroke-miterlimit="10"/>
<path d="M32.8834 13.4295C33.0932 13.4295 33.2634 13.2593 33.2634 13.0495C33.2634 12.8396 33.0932 12.6695 32.8834 12.6695C32.6735 12.6695 32.5034 12.8396 32.5034 13.0495C32.5034 13.2593 32.6735 13.4295 32.8834 13.4295Z" fill="white"/>
<path d="M44.1018 13.4295C44.3116 13.4295 44.4818 13.2593 44.4818 13.0495C44.4818 12.8396 44.3116 12.6695 44.1018 12.6695C43.8919 12.6695 43.7218 12.8396 43.7218 13.0495C43.7218 13.2593 43.8919 13.4295 44.1018 13.4295Z" fill="white"/>
</g>
<defs>
<clipPath id="clip0_20704_307">
<rect width="91.4894" height="120" fill="white"/>
</clipPath>
</defs>
</svg>
