<svg width="92" height="90" viewBox="0 0 92 90" fill="none" xmlns="http://www.w3.org/2000/svg">
<g clip-path="url(#clip0_20961_2589)">
<path d="M53.8373 82.4348C59.2445 80.2545 62.7329 76.2675 61.6289 73.5295C60.5249 70.7915 55.2466 70.3393 49.8394 72.5196C44.4322 74.6998 40.9438 78.6869 42.0478 81.4249C43.1518 84.1629 48.4302 84.615 53.8373 82.4348Z" fill="#C69C6D"/>
<path d="M21.9521 74.9871C22.8434 65.751 23.6381 58.3684 24.0248 53.0677C24.2063 50.5589 24.6001 46.0128 27.4061 42.0797C27.6277 41.7685 27.8541 41.5068 28.0875 41.2568C32.9896 36.0552 41.1457 36.5292 45.7225 42.2802C45.9276 42.5395 46.1233 42.806 46.3167 43.1172C48.651 46.9229 48.9717 50.922 49.1061 53.3035C49.3891 58.2552 49.8654 65.7062 50.1696 75.0484C46.3238 75.5577 42.0748 75.9067 37.4815 75.9585C31.7659 76.0222 26.5548 75.6166 21.9545 74.9871H21.9521Z" fill="#D4145A"/>
<path d="M29.6461 39.7525C29.9432 42.6127 30.0587 47.1045 28.7053 52.3462C27.2551 57.9699 24.7345 62.0515 22.992 64.4424C22.6454 67.9581 22.2988 71.4714 21.9521 74.9871C31.0538 75.1875 40.153 75.388 49.2547 75.5884C49.349 71.7096 49.4409 67.8284 49.5353 63.9496C48.0238 62.4995 44.5011 58.7339 43.0085 52.6504C41.5772 46.8192 42.7916 42.0397 43.4235 40.0354C43.1924 39.8609 42.9401 39.6841 42.6642 39.5073C42.2799 39.262 41.9121 39.0569 41.5678 38.8848C40.7402 41.5445 39.9125 44.2043 39.0849 46.8617C37.2292 46.8263 35.3712 46.7933 33.5155 46.7579C32.7256 44.1453 31.9356 41.5351 31.1457 38.9225C30.6435 39.1984 30.1413 39.4742 29.6414 39.7525H29.6461Z" fill="#FDD888"/>
<path d="M35.2744 31.7661H36.8471C38.0426 31.7661 39.014 32.7376 39.014 33.9331V38.3778C39.014 39.5732 38.0426 40.5447 36.8471 40.5447H35.2744C34.0789 40.5447 33.1074 39.5732 33.1074 38.3778V33.9331C33.1074 32.7376 34.0789 31.7661 35.2744 31.7661Z" fill="#F49C7D"/>
<path d="M48.9107 79.5166L48.5452 82.2683C48.2104 84.7913 45.8926 86.5645 43.3696 86.2296L10.3066 81.8415C7.78362 81.5067 6.01046 79.1888 6.34528 76.6659L6.71076 73.9141C7.04559 71.3912 9.40117 68.3871 11.9242 68.722L44.6829 75.9632C47.2059 76.298 49.2479 76.9912 48.9131 79.5142L48.9107 79.5166Z" fill="#FDD888"/>
<path d="M40.672 79.8892C42.8955 80.066 45.119 80.2429 47.3402 80.4197C50.6248 80.9337 52.3438 83.9731 51.7 86.0504C51.2308 87.5666 49.4576 88.7149 47.3779 88.7385C45.0365 88.0122 42.6927 87.286 40.3513 86.5598C40.007 86.5692 39.1888 86.548 38.3471 86.0222C37.2247 85.3218 36.8498 84.2136 36.7578 83.9165C36.7602 83.5463 36.8168 82.4216 37.6185 81.3982C38.7432 79.9623 40.4197 79.8986 40.6673 79.8915L40.672 79.8892Z" fill="#754C24"/>
<path d="M7.56706 37.1326C13.3181 40.2097 8.08817 56.1587 11.5001 57.432C15.3105 58.8539 25.261 40.2568 27.817 41.5584C28.0198 41.6622 28.2509 41.9262 28.3145 42.7987C28.772 49.0024 19.286 65.7202 10.3518 63.7937C1.40342 61.8649 -2.58856 41.8083 2.42913 37.6395C3.71656 36.5714 5.93773 36.2601 7.56706 37.1326Z" fill="#D4145A"/>
<path d="M19.6342 89.9998C17.3446 89.9173 15.0551 89.8348 12.7655 89.7499C9.36536 89.3184 7.39177 85.7178 7.90344 83.1524C8.276 81.2802 10.0114 79.7758 12.1407 79.6226C14.5905 80.3677 17.0404 81.1128 19.4903 81.8579C19.8417 81.8249 20.6834 81.8036 21.5795 82.3931C22.7773 83.1807 23.2418 84.5058 23.355 84.8642C23.3786 85.3146 23.3998 86.6893 22.65 87.9814C21.5983 89.7947 19.8865 89.9739 19.6318 89.9951L19.6342 89.9998Z" fill="#754C24"/>
<path d="M61.6454 66.7062L62.8645 69.7856C64.2509 73.2919 62.9376 77.0976 59.9312 78.286L28.2358 88.7081C25.2295 89.8965 22.1052 89.9554 20.7187 86.4492C19.3323 82.9429 20.9946 80.9175 24.001 79.7291L57.552 64.5463C59.0988 63.9333 60.9333 64.9024 61.6478 66.7062H61.6454Z" fill="#FDD888"/>
<path opacity="0.32" d="M32.8246 79.764C37.0005 76.7506 41.1764 73.7395 45.3523 70.7261C47.5122 73.7772 46.6445 78.1536 43.5957 80.6247C40.2804 83.3151 35.2627 83.0368 32.8223 79.764H32.8246Z" fill="#C69C6D"/>
<path d="M30.7735 78.1961C29.4483 72.9474 45.8242 69.4694 46.7462 60.2145C47.279 54.8644 42.5773 48.2763 43.7162 41.5727C43.7893 41.1412 43.886 40.7097 44.1571 40.6319C45.8006 40.1532 54.9683 52.2871 52.2849 64.2301C50.0331 74.2466 39.7549 82.7658 33.9025 80.9266C33.5912 80.8276 31.2404 80.0565 30.7712 78.1985L30.7735 78.1961Z" fill="#D4145A"/>
<path d="M29.329 77.5799L32.332 81.7808L33.7592 80.7605L30.7561 76.5597L29.329 77.5799Z" fill="#D4145A"/>
<path d="M5.70601 22.4074C5.70601 21.7094 5.14069 21.1436 4.44334 21.1436C3.74598 21.1436 3.18066 21.7094 3.18066 22.4074V27.7198C3.18066 28.4178 3.74598 28.9837 4.44334 28.9837C5.14069 28.9837 5.70601 28.4178 5.70601 27.7198V22.4074Z" fill="#F49C7D"/>
<path d="M10.3235 24.7837C10.6233 24.1534 10.3559 23.3996 9.72618 23.1C9.09644 22.8005 8.34287 23.0686 8.04303 23.6989L6.1621 27.653C5.86226 28.2834 6.12969 29.0372 6.75943 29.3367C7.38917 29.6363 8.14274 29.3682 8.44258 28.7378L10.3235 24.7837Z" fill="#F49C7D"/>
<path d="M4.44235 36.2133C6.89579 36.2133 8.8847 34.2244 8.8847 31.771C8.8847 29.3175 6.89579 27.3286 4.44235 27.3286C1.98891 27.3286 0 29.3175 0 31.771C0 34.2244 1.98891 36.2133 4.44235 36.2133Z" fill="#F49C7D"/>
<path d="M7.39483 35.3865L2.25586 35.8931L2.42796 37.6389L7.56693 37.1323L7.39483 35.3865Z" fill="#D4145A"/>
<path d="M30.2921 64.5698C26.2199 67.1871 23.8148 71.2192 24.2722 75.1051C24.3784 76.0152 24.699 77.4017 25.7295 78.9438" stroke="#8C6239" stroke-width="2" stroke-miterlimit="10"/>
<path d="M25.8485 76.0478L23.1132 78.0032C22.2805 78.5985 22.088 79.7561 22.6833 80.5888L24.6387 83.3241C25.234 84.1568 26.3916 84.3492 27.2242 83.754L29.9596 81.7986C30.7923 81.2033 30.9847 80.0457 30.3895 79.213L28.434 76.4777C27.8388 75.645 26.6812 75.4525 25.8485 76.0478Z" fill="#F49C7D"/>
<path d="M26.3803 30.2311C25.1589 30.5046 24.4185 33.7444 25.3216 36.2768C26.1186 38.5145 27.9979 39.6463 28.7029 40.0259C28.4364 40.9502 27.8304 43.5204 29.1155 46.0316C29.7922 47.3544 31.3956 49.4388 32.676 49.0827C33.8809 48.7479 34.4751 46.3452 33.9375 44.5249C33.2466 42.1811 30.8415 41.3511 30.568 41.2615C30.8439 39.8467 31.1787 37.0243 29.8512 34.0839C29.191 32.6196 27.5899 29.9575 26.3803 30.2287V30.2311Z" fill="#F15A24"/>
<path d="M44.9565 29.2904C44.9305 30.7452 46.8475 32.4052 49.9152 32.6433C50.276 34.7419 51.719 36.2557 53.3389 36.4184C54.3906 36.5245 55.2441 36.0293 55.6308 35.7629C55.8878 36.3076 57.7907 40.1864 61.2521 40.5212C62.7188 40.6627 64.9565 40.2147 65.2819 39.0192C65.5389 38.076 64.4967 37.055 64.2137 36.7792C62.1552 34.7608 58.8188 35.3644 58.1562 35.4988C58.616 33.9897 58.0241 32.3533 56.7249 31.5045C55.4823 30.6933 53.8364 30.7594 52.6433 31.6766C51.3111 28.2953 48.8164 26.5387 47.0031 26.9937C45.9845 27.2484 44.973 28.2552 44.9541 29.2927L44.9565 29.2904Z" fill="#F15A24"/>
<path d="M32.9404 34.7396C35.0484 34.7302 37.1541 34.7184 39.2621 34.709C39.255 36.4256 37.9251 37.8309 36.3217 37.9394C34.5768 38.0596 32.9734 36.6142 32.9404 34.7396Z" fill="#E28861"/>
<path d="M30.1438 14.0912L42.174 14.2232C44.9752 14.2539 47.2271 16.112 47.2011 18.3756L47.095 28.095C47.0408 39.0547 24.8668 38.3897 24.921 27.8521L25.0271 18.1327C25.053 15.8691 27.3426 14.0606 30.1438 14.0912Z" fill="#F49C7D"/>
<path d="M35.426 14.0227C29.5406 15.8524 26.8432 18.5711 25.4756 20.8041C24.5843 22.259 24.1905 23.6171 23.7896 23.5322C23.0139 23.3719 22.2075 17.8378 24.9945 13.6996C28.2461 8.8706 34.4499 8.83051 35.7113 8.82344C36.7158 8.81637 43.568 8.77393 46.9092 14.0015C49.6043 18.2198 48.6045 23.6619 47.9537 23.7751C47.6307 23.8317 47.5859 22.5395 46.3716 21.2686C44.5819 19.3941 42.4645 19.8774 40.0476 18.7574C38.7248 18.1444 36.9681 16.8947 35.4284 14.025L35.426 14.0227Z" fill="#F15A24"/>
<path d="M35.4727 9.60618C34.4446 9.63448 30.1673 9.75709 27.2859 12.7375C23.5981 16.5503 24.645 22.5041 24.2135 22.4899C23.7891 22.4758 22.0372 16.7036 24.994 12.2306C28.1819 7.40151 34.6851 7.36143 35.7108 7.35435C37.0454 7.34492 43.7702 7.48876 46.9087 12.5324C49.7429 17.0879 47.9108 22.8389 47.3944 22.8531C46.8332 22.8672 47.9815 16.1188 43.8245 12.2565C40.811 9.45527 36.5196 9.57789 35.4774 9.60854L35.4727 9.60618Z" fill="#0000FF" stroke="black" stroke-width="0.25" stroke-miterlimit="10"/>
<path d="M50.2502 24.4445C50.2526 24.6614 50.2573 27.6041 48.4747 28.3869C48.3049 28.4624 47.6588 28.7454 47.0859 28.4742C46.0932 28.0097 46.0955 26.2648 46.0979 24.6826C46.1002 23.0557 46.1026 21.1717 47.1802 20.6789C47.7626 20.4124 48.3898 20.6765 48.536 20.7378C50.1748 21.424 50.2478 24.0696 50.2526 24.4398L50.2502 24.4445Z" fill="#1B1464"/>
<path d="M21.9526 24.909C21.9502 24.6921 21.9455 21.7494 23.7281 20.9665C23.8978 20.8911 24.5439 20.6081 25.1169 20.8793C26.1096 21.3438 26.1072 23.0887 26.1049 24.6708C26.1025 26.2978 26.1002 28.1818 25.0226 28.6746C24.4402 28.9411 23.813 28.677 23.6668 28.6157C22.028 27.9295 21.9549 25.2839 21.9502 24.9137L21.9526 24.909Z" fill="#1B1464"/>
<path d="M40.3014 22.1504H43.0366C43.1191 22.1504 43.1875 22.2188 43.1875 22.3013V23.5203C43.1875 24.5578 42.3457 25.3996 41.3082 25.3996H38.3726C38.2901 25.3996 38.2217 25.3312 38.2217 25.2487V24.2277C38.2217 23.0818 39.1531 22.1504 40.299 22.1504H40.3014Z" fill="white"/>
<path d="M33.6473 25.3999H30.7117C29.6742 25.3999 28.8324 24.5581 28.8324 23.5206V22.3016C28.8324 22.219 28.9008 22.1507 28.9834 22.1507H31.7186C32.8645 22.1507 33.7959 23.0821 33.7959 24.228V25.249C33.7959 25.3315 33.7275 25.3999 33.645 25.3999H33.6473Z" fill="white"/>
<path d="M35.128 24.1665C35.1021 25.5742 35.0738 26.9795 35.0479 28.3872C35.6892 28.2269 36.3329 28.0665 36.9743 27.9062" stroke="black" stroke-miterlimit="10"/>
<path d="M41.7312 30.2145C41.493 30.6766 41.078 31.3251 40.3895 31.924C39.0997 33.0417 37.6614 33.2633 37.0719 33.3199C36.2419 33.5651 35.4237 33.2892 35.0818 32.7186C34.6998 32.0796 35.0158 31.2331 35.4402 30.778C36.2325 29.9268 37.2487 30.6177 38.2792 29.7948C39.1657 29.0874 38.8734 28.2126 39.734 27.8212C40.2858 27.5712 41.1629 27.5854 41.6746 28.1796C42.1273 28.7054 42.1674 29.5401 41.7312 30.2121V30.2145Z" fill="white"/>
<path d="M28.835 22.1504H32.3742C33.0698 22.1504 33.6357 22.7163 33.6357 23.4119H28.8373V22.1504H28.835Z" fill="black"/>
<path d="M43.19 23.4121H38.4105C38.4105 22.7165 38.9764 22.1506 39.672 22.1506H43.1924V23.4121H43.19Z" fill="black"/>
<path d="M31.3157 25.3998C31.5397 25.3998 31.7213 24.9574 31.7213 24.4118C31.7213 23.8662 31.5397 23.4238 31.3157 23.4238C31.0917 23.4238 30.9102 23.8662 30.9102 24.4118C30.9102 24.9574 31.0917 25.3998 31.3157 25.3998Z" fill="black" stroke="black" stroke-miterlimit="10"/>
<path d="M40.7073 25.3998C40.9313 25.3998 41.1129 24.9574 41.1129 24.4118C41.1129 23.8662 40.9313 23.4238 40.7073 23.4238C40.4833 23.4238 40.3018 23.8662 40.3018 24.4118C40.3018 24.9574 40.4833 25.3998 40.7073 25.3998Z" fill="black" stroke="black" stroke-miterlimit="10"/>
<path d="M41.5352 27.7506C42.3491 27.7506 43.0089 27.0908 43.0089 26.2769C43.0089 25.463 42.3491 24.8032 41.5352 24.8032C40.7213 24.8032 40.0615 25.463 40.0615 26.2769C40.0615 27.0908 40.7213 27.7506 41.5352 27.7506Z" fill="#F49C7D"/>
<path d="M41.8417 52.6528C41.8417 57.6823 39.09 61.8228 35.7441 61.8228C32.3982 61.8228 29.6465 57.6847 29.6465 52.6528H41.8417Z" fill="#C69C6D"/>
<path d="M36.3546 53.9494C36.357 55.0058 36.7012 55.8664 36.996 56.437C36.3287 56.4252 34.5083 56.3003 32.9875 54.9492C32.3603 54.3903 31.0705 53.2515 31.2968 51.6905C31.4643 50.5281 32.4239 49.2406 33.8552 49.1322C35.2393 49.0284 36.4536 50.0706 36.713 51.101C36.9512 52.0466 36.3475 52.5182 36.3523 53.9518L36.3546 53.9494Z" fill="#F15A24"/>
<path d="M70.8062 41.1295C71.8059 41.8605 73.2349 41.0046 73.3763 41.3134C73.5673 41.7332 71.2872 44.0416 68.5402 43.8129C68.045 43.7704 66.0809 43.6077 65.3381 42.0161C64.8406 40.9527 64.9349 39.3493 66.0714 38.4721C67.1702 37.6256 68.7571 37.8308 69.5423 38.5476C70.4266 39.3587 69.9172 40.4787 70.8038 41.1272L70.8062 41.1295Z" fill="#F15A24"/>
<path d="M33.8118 48.3288L31.5129 49.2479C31.282 49.3402 31.1696 49.6023 31.2619 49.8332L31.2628 49.8354C31.3551 50.0664 31.6172 50.1788 31.8481 50.0864L34.1471 49.1674C34.378 49.0751 34.4904 48.813 34.3981 48.582L34.3972 48.5798C34.3049 48.3489 34.0428 48.2365 33.8118 48.3288Z" fill="#999999"/>
<path d="M65.4013 37.8966L64.3413 40.134C64.2348 40.3588 64.3307 40.6273 64.5554 40.7338L64.5576 40.7348C64.7823 40.8413 65.0509 40.7455 65.1574 40.5207L66.2174 38.2832C66.3239 38.0585 66.228 37.7899 66.0032 37.6834L66.0011 37.6824C65.7763 37.5759 65.5078 37.6718 65.4013 37.8966Z" fill="#999999"/>
<path d="M31.9246 61.219C32.0213 62.1339 31.4837 64.1523 30.5664 64.2466C29.6492 64.3409 28.7037 62.4829 28.607 61.568C28.5103 60.6531 29.1753 59.8326 30.0901 59.7359C31.005 59.6392 31.8256 60.3042 31.9223 61.219H31.9246Z" fill="#D9E021"/>
<path d="M32.525 66.9278C32.4284 66.013 31.4828 64.1526 30.5656 64.2492C29.6507 64.3459 29.1107 66.3619 29.2074 67.2768C29.3041 68.1917 30.1247 68.8566 31.0395 68.76C31.9544 68.6633 32.6193 67.8427 32.5227 66.9278H32.525Z" fill="#D9E021"/>
<path d="M33.5955 65.6049C32.6806 65.7015 30.6622 65.1639 30.5679 64.2491C30.4736 63.3342 32.3316 62.3863 33.2465 62.2896C34.1614 62.1929 34.982 62.8579 35.0786 63.7727C35.1753 64.6876 34.5104 65.5082 33.5955 65.6049Z" fill="#D9E021"/>
<path d="M27.8874 66.2062C28.8022 66.1095 30.6626 65.164 30.566 64.2467C30.4693 63.3319 28.4533 62.7919 27.5384 62.8886C26.6235 62.9852 25.9586 63.8058 26.0552 64.7207C26.1519 65.6356 26.9725 66.3005 27.8874 66.2038V66.2062Z" fill="#D9E021"/>
<path d="M31.9757 64.1007C32.0582 64.8788 31.4923 65.5767 30.7166 65.6569C29.9385 65.7394 29.2405 65.1735 29.1603 64.3977C29.0778 63.6196 29.6437 62.9217 30.4195 62.8415C31.1976 62.759 31.8955 63.3225 31.9757 64.1007Z" fill="#FFA734"/>
<path d="M85.3906 57.1942L83.9263 56.5009C81.5967 55.3974 78.8143 56.3901 77.7108 58.7197L77.0176 60.184L78.5172 60.8938C80.828 61.9878 83.5868 61.0022 84.6809 58.6938L85.3906 57.1942Z" fill="#FBB03B"/>
<path d="M7.92773 5.47034L9.52406 5.74858C12.0636 6.18951 14.4804 4.48944 14.9214 1.94995C15.0746 1.06808 14.4851 0.231013 13.6033 0.0777475L13.5656 0.0706737C11.0473 -0.365544 8.65162 1.32038 8.21305 3.83865L7.93009 5.4727L7.92773 5.47034Z" fill="#FBB03B"/>
<path d="M54.8035 58.293L53.186 58.3802C50.6135 58.517 48.6375 60.7169 48.7743 63.2894C48.8214 64.1831 49.5854 64.8669 50.4791 64.8197H50.5191C53.0704 64.6806 55.0299 62.5019 54.8931 59.9482L54.8035 58.293Z" fill="#FBB03B"/>
<path d="M91.25 22.1433L91.0118 21.9051C89.1892 20.0824 86.2347 20.0824 84.412 21.9051L84.1738 22.1433L84.4403 22.4097C86.2464 24.2159 89.1774 24.2159 90.9859 22.4097L91.2523 22.1433H91.25Z" fill="#F15A24"/>
<path d="M35.4255 14.0225C34.2064 14.4092 31.384 15.4938 29.2477 18.3139C28.222 19.6697 27.6702 21.0114 27.3613 22.0064" stroke="#F15A24" stroke-miterlimit="10"/>
<path d="M33.9633 21.2452C33.4186 20.9575 32.3552 20.493 30.9522 20.4836C29.969 20.4765 29.1767 20.6958 28.665 20.8844" stroke="black" stroke-miterlimit="10"/>
<path d="M38.0596 21.2452C38.6043 20.9575 39.6677 20.493 41.0706 20.4836C42.0539 20.4765 42.8462 20.6958 43.3578 20.8844" stroke="black" stroke-miterlimit="10"/>
<path d="M46.3732 21.7093C45.6045 21.7376 40.2449 21.8437 37.0712 17.8281C36.029 16.5101 35.5267 15.1354 35.2744 14.0908" stroke="#F15A24" stroke-miterlimit="10"/>
<path d="M33.1081 38.1205C32.9171 38.1842 32.7261 38.2479 32.5352 38.3115C32.5422 38.6511 32.6083 39.7121 33.4076 40.4596C34.1551 41.1599 35.1006 41.1717 36.0037 41.1835C36.8643 41.1953 37.6849 41.2047 38.4182 40.6412C39.517 39.797 39.5453 38.3398 39.5477 38.0922C39.3708 38.0451 39.1916 37.9979 39.0148 37.9531C39.036 38.2078 39.0855 39.158 38.4418 39.8536C37.8099 40.5374 36.9068 40.5445 36.0768 40.5492C35.2609 40.5539 34.3602 40.561 33.7188 39.889C33.1105 39.2547 33.1011 38.3988 33.1081 38.1229V38.1205Z" fill="#93278F"/>
<path d="M35.4707 12.7964C37.3995 16.0833 39.2693 17.2623 40.6558 17.7174C41.2972 17.9273 42.7143 18.2692 44.5346 19.2288C45.3622 19.6651 46.0083 20.0895 46.4257 20.3819" stroke="#ED1C24" stroke-miterlimit="10"/>
<path d="M35.9395 11.9902C36.5384 12.9145 37.6372 14.3505 39.4433 15.5649C40.7614 16.4514 42.0182 16.9254 42.9354 17.1895" stroke="#ED1C24" stroke-miterlimit="10"/>
<path d="M46.1589 16.5174C45.6543 15.5389 44.7041 14.0015 43.0252 12.6127C41.8014 11.6011 40.5965 11.0046 39.71 10.6509" stroke="#ED1C24" stroke-miterlimit="10"/>
<path d="M46.9397 20.7946C46.6779 19.7241 46.112 18.0099 44.801 16.2674C43.846 14.9965 42.8156 14.1358 42.0352 13.5864" stroke="#ED1C24" stroke-miterlimit="10"/>
<path d="M35.0811 13.5864C33.9893 13.7303 32.2232 14.1099 30.3487 15.2228C28.9834 16.034 28.0143 16.9677 27.3848 17.6822" stroke="#ED1C24" stroke-miterlimit="10"/>
<path d="M34.6708 12.7964C33.5721 12.8695 31.7847 13.1312 29.8418 14.1215C28.427 14.8431 27.399 15.7108 26.7246 16.3828" stroke="#ED1C24" stroke-miterlimit="10"/>
<path d="M35.2396 10.1416C34.61 10.1039 30.4577 9.91762 27.4631 13.0985C25.6616 15.0108 25.1783 17.1895 25.0273 18.135" stroke="#ED1C24" stroke-miterlimit="10"/>
<path d="M46.6064 31.2192C46.9012 31.3749 47.2313 31.5305 47.5991 31.6696C48.481 32.0068 49.2945 32.1506 49.9476 32.2119" stroke="#ED1C24" stroke-miterlimit="10"/>
<path d="M52.1153 32.4829C52.0233 31.95 51.8206 31.1601 51.3325 30.316C50.6817 29.1889 49.8423 28.5169 49.3447 28.1797" stroke="#ED1C24" stroke-miterlimit="10"/>
<path d="M51.6831 34.8198C52.3433 35.6027 53.1615 36.2558 54.0764 36.7274L54.0269 36.8264C53.079 36.3855 52.216 35.7536 51.5039 34.9754L51.6808 34.8198H51.6831Z" fill="#ED1C24"/>
<path d="M65.624 39.8467C65.6806 40.1674 65.8433 40.8417 66.3833 41.4831C67.0977 42.3272 68.0079 42.563 68.3097 42.6267" stroke="#ED1C24" stroke-miterlimit="10"/>
<path d="M47.4766 29.3164C47.4978 29.4838 47.6015 30.1841 48.2217 30.7099C48.9691 31.3419 49.8628 31.2075 49.9925 31.1839" stroke="#ED1C24" stroke-miterlimit="10"/>
<path d="M51.3232 32.7637C51.3869 32.9924 51.7807 34.3458 53.1294 35.0108C53.924 35.4022 54.6715 35.3692 55.0158 35.3315" stroke="#ED1C24" stroke-miterlimit="10"/>
<path d="M58.6273 34.4495C57.8374 32.6976 55.9322 31.5964 54.0247 31.7238L54.0176 31.488C55.9747 31.4361 57.8917 32.6245 58.6273 34.4495Z" fill="#ED1C24"/>
<path d="M57.3828 37.0571C57.5031 37.3519 58.2034 38.9836 60.0709 39.7452C61.9454 40.5115 63.5913 39.8324 63.8836 39.7051" stroke="#ED1C24" stroke-miterlimit="10"/>
<path d="M57.1143 35.8311C57.409 35.9867 57.7391 36.1423 58.1069 36.2814C58.9888 36.6186 59.8023 36.7624 60.4555 36.8237" stroke="#ED1C24" stroke-miterlimit="10"/>
<path d="M26.0013 32.1478C25.2302 33.4801 24.9449 35.074 25.1618 36.5996L25.0675 36.6138C24.7987 35.0646 25.0439 33.4235 25.7938 32.0347L26.0013 32.1478Z" fill="#ED1C24"/>
<path d="M29.3584 45.6069C29.4739 45.9866 29.7003 46.5548 30.1412 47.1419C30.5963 47.7479 31.0986 48.1276 31.4357 48.3469" stroke="#ED1C24" stroke-miterlimit="10"/>
<path d="M31.8583 51.146C31.7852 51.4596 31.7239 51.917 31.8276 52.4405C32.1082 53.8647 33.3509 54.5768 33.5725 54.697" stroke="#ED1C24" stroke-miterlimit="10"/>
<path d="M26.5645 37.3354C26.7625 37.6043 26.996 37.8848 27.2671 38.1702C27.9203 38.854 28.5899 39.3326 29.1535 39.6674" stroke="#ED1C24" stroke-miterlimit="10"/>
<path d="M33.6755 45.7038C33.6237 45.2582 33.4421 44.216 32.6404 43.228C32.0273 42.4735 31.3223 42.0868 30.9238 41.9028" stroke="#ED1C24" stroke-miterlimit="10"/>
<path d="M28.9675 41.5112C28.8991 41.9192 28.852 42.4968 28.9675 43.1665C29.1868 44.4351 29.8612 45.2886 30.2007 45.6659" stroke="#ED1C24" stroke-miterlimit="10"/>
<path d="M30.2921 40.0682C30.3416 39.4976 30.3581 38.4342 29.8936 37.2246C29.4904 36.1776 28.8986 35.4656 28.5166 35.0718" stroke="#ED1C24" stroke-miterlimit="10"/>
<path d="M37.0051 51.0233C36.2034 50.2476 35.1117 49.7996 34.0176 49.7807L34.027 49.5449C35.18 49.618 36.2836 50.1391 37.064 50.9644L37.0027 51.0233H37.0051Z" fill="#ED1C24"/>
<path d="M31.4736 45.3384C31.8273 45.7109 32.3366 46.3476 32.6691 47.2625C32.8625 47.793 32.945 48.2764 32.9804 48.6584" stroke="#ED1C24" stroke-miterlimit="10"/>
<path d="M10.351 63.7939C10.3864 63.5581 10.4736 63.2351 10.707 62.945C11.2234 62.306 12.1218 62.2542 12.4519 62.2235C13.869 62.0868 15.0056 61.3369 17.0074 60.0165C18.3633 59.1228 19.5422 58.3447 20.5585 56.9865C20.8745 56.5645 21.3979 55.7911 22.4048 55.2818C22.9777 54.9917 23.5177 54.8856 23.8879 54.8408C23.0603 56.2131 21.8388 57.9297 20.0775 59.6369C18.0567 61.5963 16.6302 62.4404 16.2718 62.6385C14.2581 63.7397 12.8315 63.8788 12.4354 63.9071C11.5724 63.9731 10.8485 63.8882 10.3486 63.7986L10.351 63.7939Z" fill="#9E005D"/>
</g>
<defs>
<clipPath id="clip0_20961_2589">
<rect width="91.2497" height="90" fill="white"/>
</clipPath>
</defs>
</svg>
