<svg width="24" height="24" viewBox="0 0 24 24" fill="none" xmlns="http://www.w3.org/2000/svg">
<path d="M11.3277 2.53329C11.3897 2.40523 11.4866 2.29722 11.6072 2.22169C11.7276 2.14617 11.8672 2.10608 12.0094 2.10608C12.1516 2.10608 12.291 2.14617 12.4115 2.22169C12.5321 2.29722 12.6291 2.40523 12.691 2.53329L15.4917 8.19529L21.7686 9.10406C21.9088 9.12439 22.0402 9.18358 22.1483 9.27497C22.2565 9.36626 22.3369 9.48596 22.3804 9.62077C22.424 9.75538 22.4289 9.89959 22.3947 10.0369C22.3605 10.1742 22.2884 10.2992 22.1867 10.3977L17.6426 14.7903L18.7149 21.0006C18.7389 21.1397 18.7235 21.2827 18.6704 21.4135C18.6174 21.5442 18.5288 21.6577 18.4147 21.7409C18.3008 21.824 18.1658 21.8736 18.0251 21.8841C17.8843 21.8946 17.7435 21.8657 17.6183 21.8004L12.0079 18.8709L6.3867 21.8079C6.26159 21.8733 6.1207 21.9022 5.98001 21.8917C5.83931 21.8812 5.70432 21.8316 5.59022 21.7485C5.47622 21.6653 5.38768 21.5518 5.33467 21.4211C5.28166 21.2903 5.26618 21.1473 5.29012 21.0082L6.36258 14.7979L1.81834 10.4053C1.71669 10.3068 1.64468 10.1818 1.61039 10.0445C1.57619 9.90719 1.58103 9.76298 1.62454 9.62837C1.66815 9.49356 1.74852 9.37386 1.85663 9.28257C1.96483 9.19118 2.09641 9.13199 2.23644 9.11166L8.51489 8.20289L11.3277 2.53329Z" fill="#F2F2F2"/>
<path d="M12.0079 18.871L6.38671 21.808C6.26159 21.8734 6.12071 21.9022 5.98001 21.8918C5.83932 21.8812 5.70432 21.8316 5.59023 21.7485C5.47622 21.6654 5.38769 21.5519 5.33468 21.4212C5.28167 21.2903 5.26618 21.1474 5.29012 21.0083L6.36258 14.7979L1.81834 10.4053C1.71669 10.3068 1.64468 10.1819 1.61039 10.0445C1.57619 9.90725 1.58103 9.76304 1.62454 9.62842C1.66815 9.49362 1.74852 9.37392 1.85663 9.28262C1.96483 9.19123 2.09641 9.13205 2.23644 9.11172L8.51489 8.20295L11.3232 2.54247C11.3849 2.41336 11.4821 2.30449 11.6032 2.2284C11.7245 2.15221 11.8647 2.11202 12.0079 2.11231V18.871Z" fill="#F2F2F2"/>
<path d="M11.3277 2.53329C11.3897 2.40523 11.4866 2.29722 11.6072 2.22169C11.7276 2.14617 11.8672 2.10608 12.0094 2.10608C12.1516 2.10608 12.291 2.14617 12.4115 2.22169C12.5321 2.29722 12.6291 2.40523 12.691 2.53329L15.4917 8.19529L21.7686 9.10406C21.9088 9.12439 22.0402 9.18358 22.1483 9.27497C22.2565 9.36626 22.3369 9.48596 22.3804 9.62077C22.424 9.75538 22.4289 9.89959 22.3947 10.0369C22.3605 10.1742 22.2884 10.2992 22.1867 10.3977L17.6426 14.7903L18.7149 21.0006C18.7389 21.1397 18.7235 21.2827 18.6704 21.4135C18.6174 21.5442 18.5288 21.6577 18.4147 21.7409C18.3008 21.824 18.1658 21.8736 18.0251 21.8841C17.8843 21.8946 17.7435 21.8657 17.6183 21.8004L12.0079 18.8709L6.3867 21.8079C6.26159 21.8733 6.1207 21.9022 5.98001 21.8917C5.83931 21.8812 5.70432 21.8316 5.59022 21.7485C5.47622 21.6653 5.38768 21.5518 5.33467 21.4211C5.28166 21.2903 5.26618 21.1473 5.29012 21.0082L6.36257 14.7979L1.81834 10.4053C1.71669 10.3068 1.64468 10.1818 1.61039 10.0445C1.57619 9.90719 1.58103 9.76298 1.62454 9.62837C1.66815 9.49356 1.74852 9.37386 1.85663 9.28257C1.96483 9.19118 2.09641 9.13199 2.23644 9.11166L8.51489 8.20289L11.3277 2.53329Z" stroke="#191919" stroke-linecap="round" stroke-linejoin="round"/>
</svg>
