<svg width="358" height="88" viewBox="0 0 358 88" fill="none" xmlns="http://www.w3.org/2000/svg">
<rect x="0.5" y="0.5" width="357" height="87" rx="7.5" fill="white"/>
<rect x="0.5" y="0.5" width="357" height="87" rx="7.5" stroke="#D5D7D5"/>
<path d="M37.4 31.3734L29.3734 36.6134C26.8 38.2934 26.8 42.0534 29.3734 43.7334L37.4 48.9734C38.84 49.92 41.2134 49.92 42.6534 48.9734L50.64 43.7334C53.2 42.0534 53.2 38.3067 50.64 36.6267L42.6534 31.3867C41.2134 30.4267 38.84 30.4267 37.4 31.3734Z" stroke="#292D32" stroke-width="1.5" stroke-linecap="round" stroke-linejoin="round"/>
<path d="M31.5067 45.4399L31.4934 51.6933C31.4934 53.3866 32.8001 55.1999 34.4001 55.7333L38.6534 57.1466C39.3867 57.3866 40.6001 57.3866 41.3467 57.1466L45.6001 55.7333C47.2001 55.1999 48.5067 53.3866 48.5067 51.6933V45.5066" stroke="#292D32" stroke-width="1.5" stroke-linecap="round" stroke-linejoin="round"/>
<path d="M52.5333 48V40" stroke="#292D32" stroke-width="1.5" stroke-linecap="round" stroke-linejoin="round"/>
<path d="M80.4609 34.4766C79.138 34.4766 78.0964 34.1823 77.3359 33.5938C76.6953 33.1042 76.375 32.5391 76.375 31.8984C76.375 31.5703 76.474 31.2995 76.6719 31.0859C76.8698 30.8672 77.1432 30.7578 77.4922 30.7578C77.9609 30.7578 78.3047 30.9974 78.5234 31.4766C78.8203 32.1172 79.4922 32.4375 80.5391 32.4375C81.4349 32.4375 82.3021 32.2422 83.1406 31.8516C84.0104 31.4505 84.4453 31.0104 84.4453 30.5312C84.4453 29.875 84.1745 29.4427 83.6328 29.2344C83.2474 29.0833 82.474 28.9948 81.3125 28.9688C80.4115 28.9479 79.6042 28.7786 78.8906 28.4609C77.9271 28.0286 77.4531 27.4089 77.4688 26.6016C77.4844 25.5859 78.026 24.6562 79.0938 23.8125C80.1615 22.9635 81.3385 22.5391 82.625 22.5391C83.1354 22.5391 83.7656 22.6562 84.5156 22.8906C85.4479 23.1823 85.9141 23.5182 85.9141 23.8984C85.9141 24.1693 85.8203 24.4089 85.6328 24.6172C85.4245 24.8516 85.1562 24.9688 84.8281 24.9688C84.5833 24.9688 84.2161 24.9167 83.7266 24.8125C83.2422 24.7083 82.875 24.6562 82.625 24.6562C81.9531 24.6615 81.3151 24.8229 80.7109 25.1406C80.0859 25.4635 79.7734 25.8151 79.7734 26.1953C79.7734 26.3932 79.8672 26.5573 80.0547 26.6875C80.2474 26.8125 80.5339 26.901 80.9141 26.9531C81.5807 26.9896 82.2448 27.026 82.9062 27.0625C84.0625 27.151 84.9766 27.4766 85.6484 28.0391C86.388 28.6641 86.7578 29.5286 86.7578 30.6328C86.7578 31.9766 85.9922 32.9948 84.4609 33.6875C83.2943 34.2135 81.9609 34.4766 80.4609 34.4766ZM91.4844 34.4922C90.3385 34.4922 89.3776 34.1667 88.6016 33.5156C87.7839 32.8281 87.375 31.9219 87.375 30.7969C87.375 29.7604 87.7422 28.6901 88.4766 27.5859C89.3099 26.3255 90.2786 25.6953 91.3828 25.6953C91.9245 25.6953 92.5573 25.8411 93.2812 26.1328C94.1615 26.4922 94.6016 26.9062 94.6016 27.375C94.6016 27.6302 94.513 27.8568 94.3359 28.0547C94.1484 28.2682 93.9062 28.375 93.6094 28.375C93.3854 28.375 93.1146 28.2552 92.7969 28.0156C92.4844 27.7708 92.013 27.6484 91.3828 27.6484C90.9818 27.6484 90.5469 28.0417 90.0781 28.8281C89.6302 29.5885 89.4062 30.2448 89.4062 30.7969C89.4062 31.3438 89.6042 31.7734 90 32.0859C90.375 32.3828 90.8698 32.5312 91.4844 32.5312C91.8333 32.5312 92.2604 32.3984 92.7656 32.1328C93.2708 31.8672 93.5911 31.7344 93.7266 31.7344C94.0078 31.7344 94.2474 31.8359 94.4453 32.0391C94.6484 32.2422 94.75 32.474 94.75 32.7344C94.75 33.1406 94.3073 33.5469 93.4219 33.9531C92.6302 34.3125 91.9844 34.4922 91.4844 34.4922ZM98.4297 26.8516C98.8099 26.4766 99.2161 26.1979 99.6484 26.0156C100.086 25.8281 100.552 25.7344 101.047 25.7344C101.938 25.7344 102.578 25.9844 102.969 26.4844C103.26 26.8594 103.438 27.4349 103.5 28.2109C103.526 28.8516 103.555 29.4948 103.586 30.1406C103.669 30.9792 103.721 31.4896 103.742 31.6719C103.815 32.25 103.904 32.7552 104.008 33.1875C104.034 33.2969 104.047 33.3932 104.047 33.4766C104.047 33.7682 103.935 34.0078 103.711 34.1953C103.492 34.388 103.234 34.4844 102.938 34.4844C102.411 34.4844 102.07 34.224 101.914 33.7031C101.789 33.2812 101.674 32.6875 101.57 31.9219C101.477 31.1875 101.43 30.5833 101.43 30.1094C101.43 29.9792 101.435 29.7839 101.445 29.5234C101.461 29.2578 101.469 29.0599 101.469 28.9297C101.469 28.5443 101.464 28.3203 101.453 28.2578C101.406 27.9714 101.271 27.8281 101.047 27.8281C100.469 27.8281 99.9453 28.0938 99.4766 28.625C99.237 28.8906 98.9089 29.3958 98.4922 30.1406C98.4922 32.026 98.401 33.1615 98.2188 33.5469C98.0156 33.974 97.6927 34.1875 97.25 34.1875C96.9583 34.1875 96.6979 34.0911 96.4688 33.8984C96.2448 33.7005 96.1328 33.4583 96.1328 33.1719C96.1328 33.0729 96.1615 32.9349 96.2188 32.7578C96.2552 32.6432 96.2865 31.9401 96.3125 30.6484C96.2865 29.6016 96.2917 27.8594 96.3281 25.4219L96.3438 25.1641C96.375 24.5495 96.3906 24.138 96.3906 23.9297C96.3906 23.7682 96.3646 23.5312 96.3125 23.2188C96.2656 22.901 96.2422 22.6615 96.2422 22.5C96.2422 22.2031 96.349 21.9609 96.5625 21.7734C96.776 21.5807 97.0339 21.4844 97.3359 21.4844C97.8516 21.4844 98.1979 21.7604 98.375 22.3125C98.474 22.625 98.5234 23.1042 98.5234 23.75C98.5234 24.2708 98.5078 24.7995 98.4766 25.3359C98.4453 25.8464 98.4297 26.3516 98.4297 26.8516ZM108.578 34.4609C107.615 34.4609 106.786 34.1302 106.094 33.4688C105.333 32.7448 104.935 31.7786 104.898 30.5703C104.862 29.4193 105.177 28.3932 105.844 27.4922C106.635 26.4297 107.737 25.8984 109.148 25.8984C110.19 25.8984 111.018 26.3151 111.633 27.1484C112.185 27.8984 112.461 28.8281 112.461 29.9375C112.461 31.1458 112.138 32.1771 111.492 33.0312C110.768 33.9844 109.797 34.4609 108.578 34.4609ZM109.047 27.9609C108.406 27.9557 107.901 28.2474 107.531 28.8359C107.219 29.3307 107.062 29.9089 107.062 30.5703C107.062 31.1953 107.24 31.6745 107.594 32.0078C107.875 32.2734 108.203 32.4062 108.578 32.4062C109.031 32.4062 109.424 32.2526 109.758 31.9453C110.138 31.5859 110.341 31.099 110.367 30.4844C110.435 28.8073 109.995 27.9661 109.047 27.9609ZM117 34.4609C116.036 34.4609 115.208 34.1302 114.516 33.4688C113.755 32.7448 113.357 31.7786 113.32 30.5703C113.284 29.4193 113.599 28.3932 114.266 27.4922C115.057 26.4297 116.159 25.8984 117.57 25.8984C118.612 25.8984 119.44 26.3151 120.055 27.1484C120.607 27.8984 120.883 28.8281 120.883 29.9375C120.883 31.1458 120.56 32.1771 119.914 33.0312C119.19 33.9844 118.219 34.4609 117 34.4609ZM117.469 27.9609C116.828 27.9557 116.323 28.2474 115.953 28.8359C115.641 29.3307 115.484 29.9089 115.484 30.5703C115.484 31.1953 115.661 31.6745 116.016 32.0078C116.297 32.2734 116.625 32.4062 117 32.4062C117.453 32.4062 117.846 32.2526 118.18 31.9453C118.56 31.5859 118.763 31.099 118.789 30.4844C118.857 28.8073 118.417 27.9661 117.469 27.9609ZM124.609 32.8516C124.609 33.8411 124.25 34.3359 123.531 34.3359C123.219 34.3359 122.961 34.237 122.758 34.0391C122.555 33.8411 122.453 33.5859 122.453 33.2734V22.4688C122.453 22.1667 122.562 21.9193 122.781 21.7266C122.99 21.5495 123.247 21.4609 123.555 21.4609C123.862 21.4609 124.115 21.5547 124.312 21.7422C124.51 21.9245 124.609 22.1667 124.609 22.4688V32.8516Z" fill="#291B13"/>
<path d="M81.12 54.28C82.048 54.28 82.848 54.472 83.52 54.856C84.192 55.2293 84.752 55.784 85.2 56.52L84.128 57.352C83.7333 56.6693 83.2853 56.1893 82.784 55.912C82.2933 55.624 81.696 55.48 80.992 55.48C80.4267 55.48 79.9573 55.56 79.584 55.72C79.2213 55.88 78.9547 56.0933 78.784 56.36C78.6133 56.616 78.528 56.9093 78.528 57.24C78.528 57.6133 78.6453 57.944 78.88 58.232C79.1147 58.5093 79.584 58.728 80.288 58.888L82.576 59.4C83.5893 59.624 84.2933 59.9653 84.688 60.424C85.0933 60.872 85.296 61.432 85.296 62.104C85.296 62.7013 85.1253 63.2347 84.784 63.704C84.4533 64.1627 83.984 64.52 83.376 64.776C82.768 65.032 82.0533 65.16 81.232 65.16C80.464 65.16 79.7867 65.0587 79.2 64.856C78.624 64.6427 78.128 64.36 77.712 64.008C77.296 63.656 76.9547 63.2613 76.688 62.824L77.808 61.912C78.0107 62.3173 78.272 62.6747 78.592 62.984C78.912 63.2933 79.296 63.5333 79.744 63.704C80.2027 63.8747 80.7253 63.96 81.312 63.96C81.856 63.96 82.3253 63.896 82.72 63.768C83.1253 63.6293 83.4347 63.432 83.648 63.176C83.8613 62.9093 83.968 62.5893 83.968 62.216C83.968 61.8747 83.856 61.5707 83.632 61.304C83.408 61.0267 82.9867 60.8187 82.368 60.68L79.888 60.12C79.2373 59.9707 78.7093 59.768 78.304 59.512C77.9093 59.2453 77.6213 58.936 77.44 58.584C77.2693 58.2213 77.184 57.832 77.184 57.416C77.184 56.8507 77.3387 56.3333 77.648 55.864C77.968 55.384 78.4213 55 79.008 54.712C79.6053 54.424 80.3093 54.28 81.12 54.28ZM87.9799 55.464C87.6919 55.464 87.4572 55.3787 87.2759 55.208C87.1052 55.0267 87.0199 54.792 87.0199 54.504C87.0199 54.216 87.1052 53.9867 87.2759 53.816C87.4572 53.6347 87.6919 53.544 87.9799 53.544C88.2679 53.544 88.4972 53.6347 88.6679 53.816C88.8492 53.9867 88.9399 54.216 88.9399 54.504C88.9399 54.792 88.8492 55.0267 88.6679 55.208C88.4972 55.3787 88.2679 55.464 87.9799 55.464ZM88.6199 57V65H87.3399V57H88.6199ZM98.0059 55.528L98.2939 56.664C98.2832 56.664 98.2672 56.664 98.2459 56.664C98.2245 56.664 98.2032 56.664 98.1819 56.664C97.6592 56.664 97.2539 56.7707 96.9659 56.984C96.6885 57.1867 96.5499 57.5173 96.5499 57.976L95.7659 57.576C95.7659 57.16 95.8619 56.7973 96.0539 56.488C96.2459 56.1787 96.5072 55.944 96.8379 55.784C97.1685 55.6133 97.5312 55.528 97.9259 55.528C97.9365 55.528 97.9472 55.528 97.9579 55.528C97.9792 55.528 97.9952 55.528 98.0059 55.528ZM95.5739 63.976C96.3312 63.976 96.9232 64.152 97.3499 64.504C97.7765 64.8453 97.9899 65.304 97.9899 65.88C97.9899 66.4027 97.8139 66.856 97.4619 67.24C97.1205 67.624 96.6565 67.9173 96.0699 68.12C95.4939 68.3333 94.8432 68.44 94.1179 68.44C92.8592 68.44 91.9152 68.2267 91.2859 67.8C90.6672 67.3733 90.3579 66.8613 90.3579 66.264C90.3579 65.8373 90.4965 65.4533 90.7739 65.112C91.0619 64.7813 91.5419 64.5947 92.2139 64.552L92.1019 64.792C91.7392 64.696 91.4299 64.536 91.1739 64.312C90.9285 64.0773 90.8059 63.7413 90.8059 63.304C90.8059 62.8667 90.9659 62.4933 91.2859 62.184C91.6165 61.864 92.1019 61.6667 92.7419 61.592L93.5899 62.024H93.4299C92.9072 62.0773 92.5339 62.2107 92.3099 62.424C92.0965 62.6267 91.9899 62.8507 91.9899 63.096C91.9899 63.3947 92.0965 63.6187 92.3099 63.768C92.5339 63.9067 92.8432 63.976 93.2379 63.976H95.5739ZM94.1019 67.368C94.7205 67.368 95.2272 67.304 95.6219 67.176C96.0272 67.048 96.3259 66.8827 96.5179 66.68C96.7099 66.4773 96.8059 66.2587 96.8059 66.024C96.8059 65.736 96.6885 65.5067 96.4539 65.336C96.2299 65.1653 95.8192 65.08 95.2219 65.08H92.7579C92.4165 65.08 92.1285 65.1653 91.8939 65.336C91.6592 65.5173 91.5419 65.7627 91.5419 66.072C91.5419 66.4667 91.7659 66.7813 92.2139 67.016C92.6725 67.2507 93.3019 67.368 94.1019 67.368ZM93.9899 56.84C94.6299 56.84 95.1952 56.9573 95.6859 57.192C96.1872 57.416 96.5765 57.7307 96.8539 58.136C97.1312 58.5413 97.2699 59.0107 97.2699 59.544C97.2699 60.0667 97.1312 60.536 96.8539 60.952C96.5765 61.3573 96.1872 61.6773 95.6859 61.912C95.1952 62.136 94.6299 62.248 93.9899 62.248C92.9339 62.248 92.1232 61.9973 91.5579 61.496C90.9925 60.984 90.7099 60.3333 90.7099 59.544C90.7099 59.0107 90.8485 58.5413 91.1259 58.136C91.4139 57.7307 91.8032 57.416 92.2939 57.192C92.7845 56.9573 93.3499 56.84 93.9899 56.84ZM93.9899 57.88C93.4352 57.88 92.9712 58.0347 92.5979 58.344C92.2245 58.6427 92.0379 59.0427 92.0379 59.544C92.0379 60.0347 92.2245 60.4347 92.5979 60.744C92.9712 61.0533 93.4352 61.208 93.9899 61.208C94.5445 61.208 95.0085 61.0533 95.3819 60.744C95.7552 60.4347 95.9419 60.0347 95.9419 59.544C95.9419 59.0427 95.7552 58.6427 95.3819 58.344C95.0085 58.0347 94.5445 57.88 93.9899 57.88ZM99.4655 65V57H100.586L100.698 58.792L100.49 58.616C100.66 58.1893 100.89 57.848 101.178 57.592C101.466 57.3253 101.796 57.1333 102.17 57.016C102.554 56.8987 102.948 56.84 103.354 56.84C103.93 56.84 104.452 56.952 104.922 57.176C105.391 57.3893 105.764 57.72 106.042 58.168C106.33 58.616 106.474 59.1867 106.474 59.88V65H105.194V60.328C105.194 59.4427 105.002 58.8293 104.618 58.488C104.244 58.136 103.78 57.96 103.226 57.96C102.842 57.96 102.458 58.0507 102.074 58.232C101.69 58.4133 101.37 58.7067 101.114 59.112C100.868 59.5173 100.746 60.0613 100.746 60.744V65H99.4655ZM117.081 65.16C116.569 65.16 116.084 65.064 115.625 64.872C115.177 64.68 114.809 64.3707 114.521 63.944C114.244 63.5067 114.105 62.9413 114.105 62.248V57H115.385V61.912C115.385 62.7227 115.561 63.2827 115.913 63.592C116.265 63.8907 116.761 64.04 117.401 64.04C117.7 64.04 117.993 63.992 118.281 63.896C118.569 63.7893 118.825 63.6293 119.049 63.416C119.284 63.192 119.465 62.9093 119.593 62.568C119.732 62.2267 119.801 61.8213 119.801 61.352V57H121.081V65H119.961L119.881 63.784C119.604 64.264 119.225 64.616 118.745 64.84C118.276 65.0533 117.721 65.16 117.081 65.16ZM123.74 68.36V57H124.86L124.972 58.952L124.796 58.728C124.935 58.3547 125.143 58.0293 125.42 57.752C125.697 57.464 126.033 57.24 126.428 57.08C126.823 56.92 127.249 56.84 127.708 56.84C128.359 56.84 128.956 57.0053 129.5 57.336C130.055 57.6667 130.497 58.1413 130.828 58.76C131.159 59.3787 131.324 60.1253 131.324 61C131.324 61.864 131.153 62.6107 130.812 63.24C130.481 63.8587 130.039 64.3333 129.484 64.664C128.929 64.9947 128.321 65.16 127.66 65.16C126.999 65.16 126.417 65 125.916 64.68C125.425 64.3493 125.073 63.9333 124.86 63.432L125.02 63.192V68.36H123.74ZM127.532 64.04C128.321 64.04 128.935 63.7627 129.372 63.208C129.82 62.6533 130.044 61.9173 130.044 61C130.044 60.0827 129.825 59.3467 129.388 58.792C128.961 58.2373 128.359 57.96 127.58 57.96C127.068 57.96 126.62 58.088 126.236 58.344C125.852 58.5893 125.553 58.9413 125.34 59.4C125.127 59.848 125.02 60.3813 125.02 61C125.02 61.608 125.121 62.1413 125.324 62.6C125.537 63.0587 125.831 63.416 126.204 63.672C126.588 63.9173 127.031 64.04 127.532 64.04ZM144.754 57L140.994 66.344C140.791 66.8667 140.567 67.2773 140.322 67.576C140.087 67.8853 139.821 68.104 139.522 68.232C139.234 68.3707 138.898 68.44 138.514 68.44C138.151 68.44 137.815 68.3867 137.506 68.28C137.207 68.184 136.941 68.0507 136.706 67.88L137.058 66.76C137.271 66.952 137.495 67.0907 137.73 67.176C137.975 67.272 138.215 67.32 138.45 67.32C138.727 67.32 138.989 67.2347 139.234 67.064C139.479 66.8933 139.703 66.5467 139.906 66.024L140.322 64.984L139.522 63.08L136.978 57H138.434L140.434 62.216L140.93 63.64L141.506 62.056L143.378 57H144.754ZM149.42 56.84C150.177 56.84 150.844 57.0053 151.42 57.336C152.007 57.6667 152.465 58.1467 152.796 58.776C153.127 59.3947 153.292 60.136 153.292 61C153.292 61.864 153.127 62.6107 152.796 63.24C152.465 63.8587 152.007 64.3333 151.42 64.664C150.844 64.9947 150.177 65.16 149.42 65.16C148.673 65.16 148.007 64.9947 147.42 64.664C146.833 64.3333 146.375 63.8587 146.044 63.24C145.713 62.6107 145.548 61.864 145.548 61C145.548 60.136 145.713 59.3947 146.044 58.776C146.375 58.1467 146.833 57.6667 147.42 57.336C148.007 57.0053 148.673 56.84 149.42 56.84ZM149.42 57.944C148.876 57.944 148.412 58.0667 148.028 58.312C147.644 58.5573 147.345 58.9093 147.132 59.368C146.929 59.816 146.828 60.36 146.828 61C146.828 61.6293 146.929 62.1733 147.132 62.632C147.345 63.0907 147.644 63.4427 148.028 63.688C148.412 63.9333 148.876 64.056 149.42 64.056C149.964 64.056 150.428 63.9333 150.812 63.688C151.196 63.4427 151.489 63.0907 151.692 62.632C151.905 62.1733 152.012 61.6293 152.012 61C152.012 60.36 151.905 59.816 151.692 59.368C151.489 58.9093 151.196 58.5573 150.812 58.312C150.428 58.0667 149.964 57.944 149.42 57.944ZM158.278 65.16C157.766 65.16 157.28 65.064 156.822 64.872C156.374 64.68 156.006 64.3707 155.718 63.944C155.44 63.5067 155.302 62.9413 155.302 62.248V57H156.582V61.912C156.582 62.7227 156.758 63.2827 157.11 63.592C157.462 63.8907 157.958 64.04 158.598 64.04C158.896 64.04 159.19 63.992 159.478 63.896C159.766 63.7893 160.022 63.6293 160.246 63.416C160.48 63.192 160.662 62.9093 160.79 62.568C160.928 62.2267 160.998 61.8213 160.998 61.352V57H162.278V65H161.158L161.078 63.784C160.8 64.264 160.422 64.616 159.942 64.84C159.472 65.0533 158.918 65.16 158.278 65.16ZM164.937 65V57H165.977L166.153 58.312C166.377 57.8213 166.702 57.4533 167.129 57.208C167.566 56.9627 168.094 56.84 168.713 56.84C168.851 56.84 169.001 56.8507 169.161 56.872C169.331 56.8933 169.475 56.936 169.593 57L169.369 58.168C169.251 58.1253 169.123 58.0933 168.985 58.072C168.846 58.0507 168.649 58.04 168.393 58.04C168.062 58.04 167.726 58.136 167.385 58.328C167.054 58.52 166.777 58.8133 166.553 59.208C166.329 59.592 166.217 60.0827 166.217 60.68V65H164.937ZM178.786 65.16C178.007 65.16 177.287 64.9947 176.626 64.664C175.975 64.3333 175.474 63.864 175.122 63.256L176.21 62.472C176.445 62.9627 176.786 63.3467 177.234 63.624C177.693 63.9013 178.242 64.04 178.882 64.04C179.447 64.04 179.89 63.9333 180.21 63.72C180.53 63.496 180.69 63.208 180.69 62.856C180.69 62.632 180.615 62.4293 180.466 62.248C180.327 62.056 180.055 61.9173 179.65 61.832L177.73 61.432C176.951 61.272 176.391 61.0053 176.05 60.632C175.719 60.2587 175.554 59.7947 175.554 59.24C175.554 58.8027 175.677 58.4027 175.922 58.04C176.178 57.6773 176.535 57.3893 176.994 57.176C177.463 56.952 178.013 56.84 178.642 56.84C179.431 56.84 180.098 56.9947 180.642 57.304C181.186 57.6133 181.591 58.0507 181.858 58.616L180.786 59.32C180.605 58.8507 180.311 58.5093 179.906 58.296C179.501 58.072 179.079 57.96 178.642 57.96C178.258 57.96 177.927 58.0133 177.65 58.12C177.383 58.2267 177.175 58.376 177.026 58.568C176.887 58.7493 176.818 58.9573 176.818 59.192C176.818 59.4267 176.898 59.6453 177.058 59.848C177.218 60.04 177.517 60.1787 177.954 60.264L179.954 60.68C180.701 60.8293 181.223 61.0747 181.522 61.416C181.821 61.7573 181.97 62.1733 181.97 62.664C181.97 63.1653 181.837 63.608 181.57 63.992C181.303 64.3653 180.93 64.6533 180.45 64.856C179.97 65.0587 179.415 65.16 178.786 65.16ZM185.912 54.728V62.792C185.912 63.1867 186.024 63.48 186.248 63.672C186.472 63.864 186.76 63.96 187.112 63.96C187.421 63.96 187.688 63.9067 187.912 63.8C188.136 63.6933 188.338 63.5493 188.52 63.368L188.968 64.44C188.722 64.664 188.429 64.84 188.088 64.968C187.757 65.096 187.373 65.16 186.936 65.16C186.53 65.16 186.152 65.0907 185.8 64.952C185.448 64.8027 185.165 64.5733 184.952 64.264C184.749 63.944 184.642 63.528 184.632 63.016V55.08L185.912 54.728ZM188.824 57V58.104H183.032V57H188.824ZM193.303 65.16C192.791 65.16 192.305 65.064 191.847 64.872C191.399 64.68 191.031 64.3707 190.743 63.944C190.465 63.5067 190.327 62.9413 190.327 62.248V57H191.607V61.912C191.607 62.7227 191.783 63.2827 192.135 63.592C192.487 63.8907 192.983 64.04 193.623 64.04C193.921 64.04 194.215 63.992 194.503 63.896C194.791 63.7893 195.047 63.6293 195.271 63.416C195.505 63.192 195.687 62.9093 195.815 62.568C195.953 62.2267 196.023 61.8213 196.023 61.352V57H197.303V65H196.183L196.103 63.784C195.825 64.264 195.447 64.616 194.967 64.84C194.497 65.0533 193.943 65.16 193.303 65.16ZM203.082 65.16C202.42 65.16 201.812 64.9947 201.258 64.664C200.703 64.3333 200.26 63.8587 199.93 63.24C199.599 62.6107 199.434 61.864 199.434 61C199.434 60.1147 199.61 59.3627 199.962 58.744C200.314 58.1253 200.778 57.656 201.354 57.336C201.93 57.0053 202.548 56.84 203.21 56.84C203.871 56.84 204.442 57.0107 204.922 57.352C205.412 57.6933 205.738 58.1467 205.898 58.712L205.738 58.824V53.32H207.018V65H205.898L205.786 63.064L205.962 62.968C205.887 63.4373 205.706 63.8373 205.418 64.168C205.14 64.488 204.794 64.7333 204.378 64.904C203.972 65.0747 203.54 65.16 203.082 65.16ZM203.21 64.04C203.722 64.04 204.164 63.912 204.538 63.656C204.922 63.4 205.215 63.0373 205.418 62.568C205.631 62.088 205.738 61.528 205.738 60.888C205.738 60.28 205.631 59.7573 205.418 59.32C205.215 58.8827 204.927 58.5467 204.554 58.312C204.191 58.0773 203.764 57.96 203.274 57.96C202.463 57.96 201.834 58.2373 201.386 58.792C200.938 59.3467 200.714 60.0827 200.714 61C200.714 61.9173 200.932 62.6533 201.37 63.208C201.807 63.7627 202.42 64.04 203.21 64.04ZM213.017 65.16C212.26 65.16 211.582 64.9947 210.985 64.664C210.398 64.3333 209.94 63.8587 209.609 63.24C209.278 62.6107 209.113 61.864 209.113 61C209.113 60.136 209.278 59.3947 209.609 58.776C209.94 58.1467 210.393 57.6667 210.969 57.336C211.545 57.0053 212.201 56.84 212.937 56.84C213.684 56.84 214.318 57 214.841 57.32C215.374 57.64 215.78 58.0773 216.057 58.632C216.334 59.176 216.473 59.7893 216.473 60.472C216.473 60.6533 216.468 60.8187 216.457 60.968C216.446 61.1173 216.43 61.2507 216.409 61.368H209.945V60.232H215.849L215.193 60.36C215.193 59.592 214.98 59 214.553 58.584C214.137 58.168 213.588 57.96 212.905 57.96C212.382 57.96 211.929 58.0827 211.545 58.328C211.172 58.5627 210.878 58.9093 210.665 59.368C210.462 59.816 210.361 60.36 210.361 61C210.361 61.6293 210.468 62.1733 210.681 62.632C210.894 63.0907 211.193 63.4427 211.577 63.688C211.972 63.9227 212.441 64.04 212.985 64.04C213.572 64.04 214.046 63.928 214.409 63.704C214.782 63.48 215.081 63.176 215.305 62.792L216.313 63.384C216.11 63.7467 215.849 64.0613 215.529 64.328C215.22 64.5947 214.852 64.8027 214.425 64.952C214.009 65.0907 213.54 65.16 213.017 65.16ZM218.587 65V57H219.707L219.819 58.792L219.611 58.616C219.782 58.1893 220.011 57.848 220.299 57.592C220.587 57.3253 220.918 57.1333 221.291 57.016C221.675 56.8987 222.07 56.84 222.475 56.84C223.051 56.84 223.574 56.952 224.043 57.176C224.513 57.3893 224.886 57.72 225.163 58.168C225.451 58.616 225.595 59.1867 225.595 59.88V65H224.315V60.328C224.315 59.4427 224.123 58.8293 223.739 58.488C223.366 58.136 222.902 57.96 222.347 57.96C221.963 57.96 221.579 58.0507 221.195 58.232C220.811 58.4133 220.491 58.7067 220.235 59.112C219.99 59.5173 219.867 60.0613 219.867 60.744V65H218.587ZM229.952 54.728V62.792C229.952 63.1867 230.064 63.48 230.288 63.672C230.512 63.864 230.8 63.96 231.152 63.96C231.462 63.96 231.728 63.9067 231.952 63.8C232.176 63.6933 232.379 63.5493 232.56 63.368L233.008 64.44C232.763 64.664 232.47 64.84 232.128 64.968C231.798 65.096 231.414 65.16 230.976 65.16C230.571 65.16 230.192 65.0907 229.84 64.952C229.488 64.8027 229.206 64.5733 228.992 64.264C228.79 63.944 228.683 63.528 228.672 63.016V55.08L229.952 54.728ZM232.864 57V58.104H227.072V57H232.864ZM237.327 65.16C236.549 65.16 235.829 64.9947 235.167 64.664C234.517 64.3333 234.015 63.864 233.663 63.256L234.751 62.472C234.986 62.9627 235.327 63.3467 235.775 63.624C236.234 63.9013 236.783 64.04 237.423 64.04C237.989 64.04 238.431 63.9333 238.751 63.72C239.071 63.496 239.231 63.208 239.231 62.856C239.231 62.632 239.157 62.4293 239.007 62.248C238.869 62.056 238.597 61.9173 238.191 61.832L236.271 61.432C235.493 61.272 234.933 61.0053 234.591 60.632C234.261 60.2587 234.095 59.7947 234.095 59.24C234.095 58.8027 234.218 58.4027 234.463 58.04C234.719 57.6773 235.077 57.3893 235.535 57.176C236.005 56.952 236.554 56.84 237.183 56.84C237.973 56.84 238.639 56.9947 239.183 57.304C239.727 57.6133 240.133 58.0507 240.399 58.616L239.327 59.32C239.146 58.8507 238.853 58.5093 238.447 58.296C238.042 58.072 237.621 57.96 237.183 57.96C236.799 57.96 236.469 58.0133 236.191 58.12C235.925 58.2267 235.717 58.376 235.567 58.568C235.429 58.7493 235.359 58.9573 235.359 59.192C235.359 59.4267 235.439 59.6453 235.599 59.848C235.759 60.04 236.058 60.1787 236.495 60.264L238.495 60.68C239.242 60.8293 239.765 61.0747 240.063 61.416C240.362 61.7573 240.511 62.1733 240.511 62.664C240.511 63.1653 240.378 63.608 240.111 63.992C239.845 64.3653 239.471 64.6533 238.991 64.856C238.511 65.0587 237.957 65.16 237.327 65.16Z" fill="#58514D"/>
</svg>
