<svg width="107" height="140" viewBox="0 0 107 140" fill="none" xmlns="http://www.w3.org/2000/svg">
<g clip-path="url(#clip0_20704_211)">
<path d="M9.24989 124.431C28.0735 146.248 74.1759 144.341 89.4898 123.595C111.249 94.1158 70.7075 26.7756 42.8889 28.6316C16.6875 30.3773 -16.3911 94.713 9.24989 124.431Z" fill="#FD6C22"/>
<path d="M86.5933 121.661C85.4953 120.163 81.7788 120.361 79.4428 121.755C78.9122 122.072 78.57 122.38 78.0945 122.812C75.8044 124.879 74.9476 127.3 74.6927 128.09C74.27 129.4 73.2088 132.691 74.5158 133.72C75.9124 134.82 79.1878 132.684 80.0102 132.147C84.3721 129.301 88.0886 123.705 86.591 121.661H86.5933Z" fill="black"/>
<path d="M59.2801 104.372C57.5964 103.051 42.6685 108.102 40.9825 110.654C39.8937 112.303 43.7182 113.835 49.5709 112.051C56.1723 110.034 60.4516 105.291 59.2824 104.372H59.2801Z" fill="black"/>
<path d="M49.2446 124.893C46.0518 129.666 42.8613 134.439 39.6685 139.212C41.8139 139.568 44.2326 139.846 46.8879 139.954C48.9092 140.037 50.795 140.007 52.5223 139.91C52.5591 137.875 52.419 135.245 51.7712 132.257C51.1143 129.227 50.1335 126.746 49.2446 124.893Z" fill="black"/>
<path d="M85.4287 36.2874C85.8284 34.7048 87.8037 27.513 93.8654 24.9336C94.7291 24.566 96.2037 24.1641 98.0942 24.148C102.463 24.1112 106.267 27.6578 106.517 31.7142C107.082 40.863 101.101 46.61 93.5324 54.8194C86.7104 62.2202 73.1422 77.0746 63.2722 72.8827C59.5924 71.3207 56.9969 67.455 56.4456 63.8235C55.0353 54.5184 66.3042 42.8016 85.4264 36.2874H85.4287Z" fill="#FD6C22"/>
<path d="M77.9796 104.728L49.2883 107.794C50.2047 78.9055 48.5509 65.4728 46.4033 58.8989C45.9117 57.3898 44.1568 52.4628 46.4951 48.7234C48.3189 45.8085 51.9091 44.7657 54.5345 44.3408L62.1007 43.5322C64.6503 43.2589 67.0668 44.0468 68.9158 45.5375C70.3261 46.6768 70.294 47.9906 72.3176 51.7737C73.6016 54.1741 78.0508 72.0215 77.9796 104.728Z" fill="#0000FF"/>
<path d="M46.1184 83.1065C55.6554 84.3399 62.8564 89.2531 64.044 95.2275C64.8594 99.3276 63.0264 102.734 63.0264 102.734C60.9844 106.526 57.1691 107.81 56.2228 108.13C49.1022 110.525 41.5681 105.291 37.4956 102.461C35.0172 100.738 22.9696 92.0279 19.5494 75.7171C18.3229 69.8691 16.5174 61.2623 21.7086 55.4188C24.0722 52.759 28.2343 50.2736 32.0794 50.8272C39.6318 51.9114 46.1299 64.7284 46.1161 83.1088L46.1184 83.1065Z" fill="#FD6C22"/>
<path d="M70.1447 37.8676C68.5667 34.9298 68.2497 32.0126 67.1173 30.2715C65.9872 28.5304 64.7813 28.2227 64.7813 28.2227L45.8773 30.9767L26.8102 29.7846C26.8102 29.7846 25.6342 30.1912 24.6511 32.0172C23.668 33.8456 22.2025 36.7766 20.8726 39.8338C19.5426 42.8911 17.8521 44.5288 19.7333 47.7469C22.6665 52.7657 39.7008 58.8619 47.0189 58.7263C53.8914 58.6 69.5337 52.3201 72.0443 47.0761C73.6545 43.7134 71.7205 40.7985 70.1424 37.863L70.1447 37.8676Z" fill="#1B1464"/>
<path d="M52.0906 38.8807C50.8847 37.1121 35.1275 37.4222 32.7478 39.3447C31.2112 40.5874 34.3948 43.2036 40.5139 43.2679C47.4163 43.3392 52.929 40.1096 52.0906 38.8807Z" fill="black"/>
<path d="M100.192 122.699C107.058 114.256 108.803 104.305 104.089 100.472C99.3759 96.6385 89.9891 100.375 83.1232 108.817C76.2574 117.26 74.5124 127.211 79.2257 131.044C83.939 134.878 93.3258 131.141 100.192 122.699Z" fill="#FD6C22"/>
<path d="M93.0615 125.665C90.3625 128.046 85.0359 130.624 81.9763 128.265C78.8501 125.855 80.1916 119.911 81.6593 116.86C82.3553 115.411 83.8782 112.243 87.2547 111.336C91.0126 110.325 95.7903 112.464 97.0283 116.302C98.5007 120.864 94.0032 124.833 93.0592 125.667L93.0615 125.665Z" fill="#FEA679"/>
<path d="M93.6678 108.483C93.2797 109.544 92.0944 110.53 91.5317 110.226C91.0263 109.955 91.1435 108.717 91.5087 107.888C91.6075 107.665 91.7981 107.229 92.184 106.958C92.7491 106.558 93.4956 106.68 93.7391 107.261C93.9412 107.741 93.7184 108.348 93.6701 108.483H93.6678Z" fill="#FEA679"/>
<path d="M99.1484 112.668C98.3353 113.451 96.8377 113.819 96.4633 113.3C96.1279 112.836 96.7757 111.772 97.4647 111.189C97.6508 111.03 98.0137 110.723 98.48 110.647C99.1622 110.537 99.7801 110.971 99.7456 111.6C99.7158 112.122 99.2518 112.567 99.1484 112.668Z" fill="#FEA679"/>
<path d="M97.4647 109.386C96.7596 110.484 95.2596 111.387 94.7681 110.975C94.3271 110.608 94.8071 109.276 95.4204 108.428C95.5858 108.198 95.9097 107.753 96.3829 107.512C97.0788 107.158 97.8093 107.397 97.8897 108.065C97.9563 108.619 97.5543 109.246 97.4647 109.384V109.386Z" fill="#FEA679"/>
<path d="M45.3673 72.6506C45.5671 74.8649 45.744 77.1182 45.8956 79.4106C45.9783 80.6533 46.0518 81.8844 46.1184 83.1041C55.8805 84.0229 63.116 89.3082 64.0439 95.2252C64.9007 100.69 61.8549 104.457 61.8549 104.457C60.6008 106.005 59.133 106.869 58.1568 107.332" stroke="#754C24" stroke-width="0.459393" stroke-miterlimit="10"/>
<path d="M22.9467 85.7065C23.4796 86.7172 24.0722 87.7508 24.7337 88.8006C27.3913 93.027 30.4003 96.3231 33.1842 98.8452" stroke="#754C24" stroke-width="0.459393" stroke-miterlimit="10"/>
<path d="M42.9532 139.43C48.9145 138.259 52.0473 128.654 49.9505 117.976C47.8536 107.298 41.3211 99.591 35.3597 100.762C29.3984 101.932 26.2656 111.538 28.3624 122.215C30.4593 132.893 36.9918 140.601 42.9532 139.43Z" fill="#FD6C22"/>
<path d="M48.8036 125.892C48.59 129.485 46.6628 135.08 42.8338 135.585C38.9198 136.102 35.6512 130.961 34.5211 127.769C33.9859 126.253 32.8121 122.94 34.5486 119.906C36.4827 116.53 41.366 114.646 44.9608 116.475C49.2331 118.647 48.8794 124.636 48.8036 125.89V125.892Z" fill="#FEA679"/>
<path d="M37.0454 113.348C37.5255 114.37 37.3877 115.905 36.7744 116.093C36.2254 116.261 35.4307 115.305 35.0999 114.462C35.0103 114.235 34.8381 113.792 34.9161 113.328C35.031 112.645 35.642 112.202 36.2277 112.439C36.7101 112.634 36.9834 113.22 37.0454 113.348Z" fill="#FEA679"/>
<path d="M43.879 112.413C43.8606 113.544 43.0659 114.862 42.4342 114.763C41.8669 114.674 41.5705 113.465 41.6441 112.563C41.6624 112.319 41.7015 111.846 41.9748 111.463C42.3768 110.9 43.121 110.769 43.5436 111.237C43.8928 111.626 43.8813 112.271 43.879 112.413Z" fill="#FEA679"/>
<path d="M40.3646 111.293C40.6471 112.567 40.2291 114.267 39.5905 114.327C39.0186 114.38 38.4122 113.1 38.2422 112.069C38.1962 111.789 38.1067 111.247 38.2697 110.741C38.5086 109.999 39.1931 109.65 39.726 110.064C40.1647 110.406 40.3278 111.134 40.3623 111.295L40.3646 111.293Z" fill="#FEA679"/>
<path d="M50.1335 118.93C49.9268 117.69 47.3634 103.322 38.6878 100.977C36.5585 100.4 34.8128 100.892 34.8128 100.892C31.8612 101.726 30.3567 104.549 29.5435 106.127C28.9624 107.254 27.049 111.288 27.8507 118.535C28.6661 125.901 31.7394 131.641 34.2753 135.323" stroke="#754C24" stroke-width="0.459393" stroke-miterlimit="10"/>
<path d="M77.155 120.23C77.4215 119.178 77.7913 118.004 78.3058 116.75C78.6595 115.891 79.0339 115.11 79.4084 114.409C82.2681 108.69 86.3222 105.254 87.6728 104.174C90.4545 101.948 93.2499 100.527 95.5928 99.6078" stroke="#754C24" stroke-width="0.459393" stroke-miterlimit="10"/>
<path d="M29.2312 106.724C28.2044 107.098 26.1556 108.015 24.5661 110.116C23.8907 111.01 23.4704 111.89 23.2017 112.604" stroke="#754C24" stroke-width="0.459393" stroke-miterlimit="10"/>
<path d="M30.6476 13.7259C34.3569 12.1145 36.0897 7.87481 34.5178 4.2562C32.9458 0.637597 28.6645 -0.989615 24.9552 0.621722C21.2458 2.23306 19.5131 6.47277 21.085 10.0914C22.6569 13.71 26.9382 15.3372 30.6476 13.7259Z" fill="#FD6C22"/>
<path d="M30.804 11.7318C33.0625 10.7508 34.1173 8.16897 33.16 5.96522C32.2027 3.76148 29.5958 2.7703 27.3374 3.75135C25.0789 4.73241 24.0242 7.3142 24.9815 9.51794C25.9388 11.7217 28.5456 12.7129 30.804 11.7318Z" fill="#FEA679"/>
<path d="M61.8618 14.3193C65.9061 14.3193 69.1846 11.1211 69.1846 7.17579C69.1846 3.23051 65.9061 0.0322266 61.8618 0.0322266C57.8176 0.0322266 54.5391 3.23051 54.5391 7.17579C54.5391 11.1211 57.8176 14.3193 61.8618 14.3193Z" fill="black"/>
<path d="M60.9224 12.553C63.3847 12.553 65.3808 10.6052 65.3808 8.2025C65.3808 5.79981 63.3847 3.85205 60.9224 3.85205C58.4601 3.85205 56.464 5.79981 56.464 8.2025C56.464 10.6052 58.4601 12.553 60.9224 12.553Z" fill="black"/>
<path d="M61.8618 14.3193C65.9061 14.3193 69.1846 11.1211 69.1846 7.17579C69.1846 3.23051 65.9061 0.0322266 61.8618 0.0322266C57.8176 0.0322266 54.5391 3.23051 54.5391 7.17579C54.5391 11.1211 57.8176 14.3193 61.8618 14.3193Z" fill="#FD6C22"/>
<path d="M60.9224 12.553C63.3847 12.553 65.3808 10.6052 65.3808 8.2025C65.3808 5.79981 63.3847 3.85205 60.9224 3.85205C58.4601 3.85205 56.464 5.79981 56.464 8.2025C56.464 10.6052 58.4601 12.553 60.9224 12.553Z" fill="#FEA679"/>
<path d="M55.1409 41.3891H36.6526C32.3481 41.3891 28.859 38.0975 28.859 34.0365V16.5933C28.7579 -3.07557 62.838 -2.31987 62.9345 16.5933V34.0365C62.9345 38.0975 59.4454 41.3891 55.1409 41.3891Z" fill="#FD6C22"/>
<path d="M39.053 17.016C39.7976 17.016 40.4013 16.4123 40.4013 15.6677C40.4013 14.923 39.7976 14.3193 39.053 14.3193C38.3083 14.3193 37.7047 14.923 37.7047 15.6677C37.7047 16.4123 38.3083 17.016 39.053 17.016Z" fill="#603813"/>
<path d="M52.1755 17.016C52.9202 17.016 53.5238 16.4123 53.5238 15.6677C53.5238 14.923 52.9202 14.3193 52.1755 14.3193C51.4309 14.3193 50.8272 14.923 50.8272 15.6677C50.8272 16.4123 51.4309 17.016 52.1755 17.016Z" fill="#603813"/>
<path d="M37.2568 29.3047C37.2568 32.9316 41.1249 35.8694 45.898 35.8694C50.6711 35.8694 54.5391 32.9293 54.5391 29.3047C54.5391 25.6801 50.6711 16.3337 45.898 16.3337C41.1249 16.3337 37.2568 25.6778 37.2568 29.3047Z" fill="#FEA679"/>
<path d="M49.5271 22.3793C50.014 23.5921 48.5118 26.3645 46.0196 26.415C43.4011 26.4701 41.8529 23.468 42.3697 22.2552C43.1071 20.5302 48.8081 20.5922 49.5248 22.377L49.5271 22.3793Z" fill="black"/>
<path d="M42.6661 28.0965C42.7052 28.1861 43.0911 29.0451 44.0145 29.2496C44.7954 29.4218 45.6338 29.0566 46.0955 28.3308C46.4332 29.0635 47.2049 29.4907 47.9813 29.3874C48.7003 29.2909 49.2975 28.7557 49.4858 28.0391" stroke="black" stroke-width="0.459393" stroke-miterlimit="10"/>
<path d="M38.3639 15.6676C38.6087 15.6676 38.8072 15.4692 38.8072 15.2243C38.8072 14.9795 38.6087 14.781 38.3639 14.781C38.1191 14.781 37.9206 14.9795 37.9206 15.2243C37.9206 15.4692 38.1191 15.6676 38.3639 15.6676Z" fill="white"/>
<path d="M51.452 15.6676C51.6969 15.6676 51.8954 15.4692 51.8954 15.2243C51.8954 14.9795 51.6969 14.781 51.452 14.781C51.2072 14.781 51.0087 14.9795 51.0087 15.2243C51.0087 15.4692 51.2072 15.6676 51.452 15.6676Z" fill="white"/>
</g>
<defs>
<clipPath id="clip0_20704_211">
<rect width="106.738" height="140" fill="white"/>
</clipPath>
</defs>
</svg>
