<svg width="28" height="24" viewBox="0 0 28 24" fill="none" xmlns="http://www.w3.org/2000/svg">
<path d="M6.81725 8.80245C8.85513 7.91719 9.80708 5.58794 8.94349 3.59991C8.0799 1.61188 5.72779 0.717909 3.68991 1.60316C1.65203 2.48842 0.700079 4.81767 1.56367 6.8057C2.42726 8.79373 4.77937 9.6877 6.81725 8.80245Z" fill="#4FC3F7"/>
<path d="M6.9031 7.7073C8.14385 7.16832 8.72333 5.74991 8.1974 4.53919C7.67147 3.32848 6.23929 2.78393 4.99854 3.32291C3.75778 3.8619 3.1783 5.28031 3.70423 6.49102C4.23016 7.70174 5.66234 8.24628 6.9031 7.7073Z" fill="#4fc3f7"/>
<path d="M23.9659 9.1285C26.1877 9.1285 27.9889 7.3714 27.9889 5.2039C27.9889 3.0364 26.1877 1.2793 23.9659 1.2793C21.744 1.2793 19.9429 3.0364 19.9429 5.2039C19.9429 7.3714 21.744 9.1285 23.9659 9.1285Z" fill="black"/>
<path d="M23.4499 8.15812C24.8027 8.15812 25.8993 7.08804 25.8993 5.76803C25.8993 4.44801 24.8027 3.37793 23.4499 3.37793C22.0971 3.37793 21.0005 4.44801 21.0005 5.76803C21.0005 7.08804 22.0971 8.15812 23.4499 8.15812Z" fill="black"/>
<path d="M23.9659 9.1285C26.1877 9.1285 27.9889 7.3714 27.9889 5.2039C27.9889 3.0364 26.1877 1.2793 23.9659 1.2793C21.744 1.2793 19.9429 3.0364 19.9429 5.2039C19.9429 7.3714 21.744 9.1285 23.9659 9.1285Z" fill="#4FC3F7"/>
<path d="M23.4499 8.15812C24.8027 8.15812 25.8993 7.08804 25.8993 5.76803C25.8993 4.44801 24.8027 3.37793 23.4499 3.37793C22.0971 3.37793 21.0005 4.44801 21.0005 5.76803C21.0005 7.08804 22.0971 8.15812 23.4499 8.15812Z" fill="#4fc3f7"/>
<path d="M20.2735 24.0003H10.1163C7.75146 24.0003 5.8346 22.1919 5.8346 19.9608V10.3777C5.77907 -0.428183 24.5023 -0.0130076 24.5553 10.3777V19.9608C24.5553 22.1919 22.6384 24.0003 20.2735 24.0003Z" fill="#4FC3F7"/>
<path d="M11.4346 10.6099C11.8437 10.6099 12.1753 10.2783 12.1753 9.86917C12.1753 9.46006 11.8437 9.12842 11.4346 9.12842C11.0255 9.12842 10.6938 9.46006 10.6938 9.86917C10.6938 10.2783 11.0255 10.6099 11.4346 10.6099Z" fill="#603813"/>
<path d="M18.6441 10.6099C19.0532 10.6099 19.3848 10.2783 19.3848 9.86917C19.3848 9.46006 19.0532 9.12842 18.6441 9.12842C18.235 9.12842 17.9033 9.46006 17.9033 9.86917C17.9033 10.2783 18.235 10.6099 18.6441 10.6099Z" fill="#603813"/>
<path d="M10.4482 17.3615C10.4482 19.3541 12.5733 20.9681 15.1956 20.9681C17.8179 20.9681 19.943 19.3528 19.943 17.3615C19.943 15.3701 17.8179 10.2354 15.1956 10.2354C12.5733 10.2354 10.4482 15.3689 10.4482 17.3615Z" fill="#4fc3f7"/>
<path d="M17.1892 13.5566C17.4567 14.2229 16.6314 15.7461 15.2623 15.7738C13.8237 15.8041 12.9731 14.1548 13.2571 13.4885C13.6621 12.5408 16.7942 12.5748 17.188 13.5554L17.1892 13.5566Z" fill="black"/>
<path d="M13.4199 16.6981C13.4414 16.7473 13.6534 17.2192 14.1607 17.3315C14.5897 17.4262 15.0503 17.2255 15.304 16.8268C15.4895 17.2293 15.9135 17.464 16.34 17.4073C16.735 17.3543 17.0631 17.0602 17.1666 16.6665" stroke="black" stroke-width="0.620445" stroke-miterlimit="10"/>
<path d="M11.0561 9.86943C11.1906 9.86943 11.2996 9.76039 11.2996 9.62588C11.2996 9.49137 11.1906 9.38232 11.0561 9.38232C10.9215 9.38232 10.8125 9.49137 10.8125 9.62588C10.8125 9.76039 10.9215 9.86943 11.0561 9.86943Z" fill="white"/>
<path d="M18.247 9.86943C18.3815 9.86943 18.4905 9.76039 18.4905 9.62588C18.4905 9.49137 18.3815 9.38232 18.247 9.38232C18.1125 9.38232 18.0034 9.49137 18.0034 9.62588C18.0034 9.76039 18.1125 9.86943 18.247 9.86943Z" fill="white"/>
</svg>
