<svg width="25" height="24" viewBox="0 0 25 24" fill="none" xmlns="http://www.w3.org/2000/svg">
<path d="M1.57227 4.87505C1.57227 4.62309 1.67235 4.38146 1.85051 4.20329C2.02867 4.02514 2.27031 3.92505 2.52227 3.92505H22.4723C22.7242 3.92505 22.9659 4.02514 23.144 4.20329C23.3221 4.38146 23.4223 4.62309 23.4223 4.87505V19.125C23.4223 19.377 23.3221 19.6187 23.144 19.7968C22.9659 19.9749 22.7242 20.075 22.4723 20.075H2.52227C2.27031 20.075 2.02867 19.9749 1.85051 19.7968C1.67235 19.6187 1.57227 19.377 1.57227 19.125V4.87505Z" fill="#4fc3f7"/>
<path d="M2.52227 3.92505C2.27031 3.92505 2.02867 4.02514 1.85051 4.20329C1.67235 4.38146 1.57227 4.62309 1.57227 4.87505V19.125C1.5743 19.2725 1.61116 19.4173 1.67985 19.5477C1.74853 19.6781 1.84708 19.7904 1.96747 19.8755L17.918 3.92505H2.52227Z" fill="#FFD3BC"/>
<path d="M5.37207 15.325L7.81452 11.2543C7.85669 11.1838 7.91641 11.1256 7.98784 11.085C8.05926 11.0445 8.13996 11.0233 8.22207 11.0233C8.30418 11.0233 8.38488 11.0445 8.4563 11.085C8.52773 11.1256 8.58745 11.1838 8.62962 11.2543L10.7282 14.755C10.7671 14.8201 10.8212 14.8748 10.8857 14.9147C10.9502 14.9546 11.0232 14.9786 11.0989 14.9844C11.1745 14.9903 11.2504 14.9779 11.3203 14.9485C11.3901 14.9189 11.452 14.8731 11.5005 14.8149L13.0823 12.9149C13.1268 12.8614 13.1826 12.8185 13.2457 12.7889C13.3088 12.7594 13.3774 12.7441 13.4471 12.7441C13.5167 12.7441 13.5854 12.7594 13.6485 12.7889C13.7116 12.8185 13.7673 12.8614 13.8119 12.9149L15.3841 14.8016C15.4332 14.8605 15.4958 14.9066 15.5666 14.936C15.6374 14.9654 15.7142 14.9773 15.7905 14.9705C15.8669 14.9639 15.9404 14.9387 16.005 14.8974C16.0695 14.856 16.1231 14.7997 16.1612 14.7332L19.6221 8.67505" stroke="#191919" stroke-linecap="round" stroke-linejoin="round"/>
<path d="M1.57227 4.87505C1.57227 4.62309 1.67235 4.38146 1.85051 4.20329C2.02867 4.02514 2.27031 3.92505 2.52227 3.92505H22.4723C22.7242 3.92505 22.9659 4.02514 23.144 4.20329C23.3221 4.38146 23.4223 4.62309 23.4223 4.87505V19.125C23.4223 19.377 23.3221 19.6187 23.144 19.7968C22.9659 19.9749 22.7242 20.075 22.4723 20.075H2.52227C2.27031 20.075 2.02867 19.9749 1.85051 19.7968C1.67235 19.6187 1.57227 19.377 1.57227 19.125V4.87505Z" stroke="#191919" stroke-linecap="round" stroke-linejoin="round"/>
</svg>
