<svg width="28" height="24" viewBox="0 0 28 24" fill="none" xmlns="http://www.w3.org/2000/svg">
<path d="M6.82309 8.80217C8.86097 7.91692 9.81292 5.58768 8.94933 3.59967C8.08574 1.61165 5.73364 0.717679 3.69576 1.60293C1.65788 2.48818 0.705937 4.81742 1.56953 6.80543C2.43312 8.79345 4.78522 9.68742 6.82309 8.80217Z" fill="#4FC3F7"/>
<path d="M6.90895 7.70667C8.1497 7.16769 8.72918 5.74929 8.20325 4.53858C7.67732 3.32787 6.24515 2.78333 5.00439 3.32231C3.76364 3.86129 3.18416 5.27969 3.71009 6.4904C4.23602 7.70111 5.6682 8.24565 6.90895 7.70667Z" fill="#4fc3f7"/>
<path d="M23.9722 9.12821C26.1941 9.12821 27.9952 7.37112 27.9952 5.20363C27.9952 3.03615 26.1941 1.27905 23.9722 1.27905C21.7504 1.27905 19.9492 3.03615 19.9492 5.20363C19.9492 7.37112 21.7504 9.12821 23.9722 9.12821Z" fill="black"/>
<path d="M23.4562 8.15785C24.809 8.15785 25.9056 7.08777 25.9056 5.76777C25.9056 4.44776 24.809 3.37769 23.4562 3.37769C22.1035 3.37769 21.0068 4.44776 21.0068 5.76777C21.0068 7.08777 22.1035 8.15785 23.4562 8.15785Z" fill="black"/>
<path d="M23.9722 9.12821C26.1941 9.12821 27.9952 7.37112 27.9952 5.20363C27.9952 3.03615 26.1941 1.27905 23.9722 1.27905C21.7504 1.27905 19.9492 3.03615 19.9492 5.20363C19.9492 7.37112 21.7504 9.12821 23.9722 9.12821Z" fill="#4FC3F7"/>
<path d="M23.4562 8.15785C24.809 8.15785 25.9056 7.08777 25.9056 5.76777C25.9056 4.44776 24.809 3.37769 23.4562 3.37769C22.1035 3.37769 21.0068 4.44776 21.0068 5.76777C21.0068 7.08777 22.1035 8.15785 23.4562 8.15785Z" fill="#4fc3f7"/>
<path d="M20.2789 24H10.1217C7.75683 24 5.83997 22.1917 5.83997 19.9606V10.3776C5.78444 -0.428289 24.5076 -0.0131159 24.5606 10.3776V19.9606C24.5606 22.1917 22.6437 24 20.2789 24Z" fill="#4FC3F7"/>
<path d="M11.4409 10.6097C11.85 10.6097 12.1817 10.278 12.1817 9.86892C12.1817 9.45982 11.85 9.12817 11.4409 9.12817C11.0318 9.12817 10.7002 9.45982 10.7002 9.86892C10.7002 10.278 11.0318 10.6097 11.4409 10.6097Z" fill="#603813"/>
<path d="M18.6499 10.6097C19.059 10.6097 19.3907 10.278 19.3907 9.86892C19.3907 9.45982 19.059 9.12817 18.6499 9.12817C18.2408 9.12817 17.9092 9.45982 17.9092 9.86892C17.9092 10.278 18.2408 10.6097 18.6499 10.6097Z" fill="#603813"/>
<path d="M10.4541 17.3609C10.4541 19.3535 12.5792 20.9675 15.2015 20.9675C17.8237 20.9675 19.9488 19.3523 19.9488 17.3609C19.9488 15.3696 17.8237 10.2349 15.2015 10.2349C12.5792 10.2349 10.4541 15.3684 10.4541 17.3609Z" fill="#4fc3f7"/>
<path d="M17.1956 13.5564C17.4631 14.2227 16.6378 15.7458 15.2686 15.7736C13.83 15.8039 12.9795 14.1545 13.2634 13.4882C13.6685 12.5405 16.8006 12.5746 17.1943 13.5551L17.1956 13.5564Z" fill="black"/>
<path d="M13.4258 16.6972C13.4472 16.7464 13.6592 17.2184 14.1665 17.3307C14.5956 17.4253 15.0562 17.2247 15.3098 16.8259C15.4953 17.2285 15.9193 17.4632 16.3459 17.4064C16.7409 17.3534 17.069 17.0594 17.1724 16.6656" stroke="black" stroke-width="0.50497" stroke-miterlimit="10"/>
<path d="M11.0619 9.86894C11.1964 9.86894 11.3055 9.7599 11.3055 9.62539C11.3055 9.49088 11.1964 9.38184 11.0619 9.38184C10.9274 9.38184 10.8184 9.49088 10.8184 9.62539C10.8184 9.7599 10.9274 9.86894 11.0619 9.86894Z" fill="white"/>
<path d="M18.2523 9.86894C18.3868 9.86894 18.4959 9.7599 18.4959 9.62539C18.4959 9.49088 18.3868 9.38184 18.2523 9.38184C18.1178 9.38184 18.0088 9.49088 18.0088 9.62539C18.0088 9.7599 18.1178 9.86894 18.2523 9.86894Z" fill="white"/>
</svg>
