<svg width="20" height="20" viewBox="0 0 20 20" fill="none" xmlns="http://www.w3.org/2000/svg">
<path d="M18.2662 13.9583C17.9912 16.175 16.1746 17.9916 13.9579 18.2666C12.6162 18.4333 11.3662 18.0666 10.3912 17.35C9.83289 16.9416 9.96623 16.075 10.6329 15.875C13.1412 15.1166 15.1162 13.1333 15.8829 10.625C16.0829 9.96662 16.9496 9.83329 17.3579 10.3833C18.0662 11.3666 18.4329 12.6166 18.2662 13.9583Z" fill="#06113C"/>
<path d="M8.32533 1.66663C4.65033 1.66663 1.66699 4.64996 1.66699 8.32496C1.66699 12 4.65033 14.9833 8.32533 14.9833C12.0003 14.9833 14.9837 12 14.9837 8.32496C14.9753 4.64996 12.0003 1.66663 8.32533 1.66663ZM7.54199 7.39163L9.55033 8.09163C10.2753 8.34996 10.6253 8.85829 10.6253 9.64163C10.6253 10.5416 9.90866 11.2833 9.03366 11.2833H8.95866V11.325C8.95866 11.6666 8.67533 11.95 8.33366 11.95C7.99199 11.95 7.70866 11.6666 7.70866 11.325V11.275C6.78366 11.2333 6.04199 10.4583 6.04199 9.49163C6.04199 9.14996 6.32533 8.86663 6.66699 8.86663C7.00866 8.86663 7.29199 9.14996 7.29199 9.49163C7.29199 9.79163 7.50866 10.0333 7.77533 10.0333H9.02533C9.21699 10.0333 9.36699 9.85829 9.36699 9.64163C9.36699 9.34996 9.31699 9.33329 9.12533 9.26663L7.11699 8.56663C6.40033 8.31663 6.04199 7.80829 6.04199 7.01663C6.04199 6.11663 6.75866 5.37496 7.63366 5.37496H7.70866V5.34163C7.70866 4.99996 7.99199 4.71663 8.33366 4.71663C8.67533 4.71663 8.95866 4.99996 8.95866 5.34163V5.39163C9.88366 5.43329 10.6253 6.20829 10.6253 7.17496C10.6253 7.51663 10.342 7.79996 10.0003 7.79996C9.65866 7.79996 9.37533 7.51663 9.37533 7.17496C9.37533 6.87496 9.15866 6.63329 8.89199 6.63329H7.64199C7.45033 6.63329 7.30033 6.80829 7.30033 7.02496C7.29199 7.30829 7.34199 7.32496 7.54199 7.39163Z" fill="#06113C"/>
</svg>
