<svg width="283" height="73" viewBox="0 0 283 73" fill="none" xmlns="http://www.w3.org/2000/svg">
<path d="M274.101 64.476L276.451 63.0074C268.804 61.5935 271.686 59.2045 280.27 54.1958C250.787 36.7621 234.566 28.2733 208.015 23.0616C185.983 14.8042 167.392 9.10123 148.977 6.20588C133.802 3.8198 118.746 3.34053 101.982 4.9098C100.816 5.01899 99.6413 5.1381 98.4577 5.26718C87.9451 6.41366 76.7317 8.3464 64.3864 11.0988C62.6469 11.4867 60.885 11.8907 59.0994 12.3112C56.1316 13.01 53.0983 13.7541 49.9941 14.5438C46.0705 13.8324 43.7914 13.0006 39.4203 9.84429V8.08198L30.6087 4.26364H12.1044C20.433 12.0004 22.4157 15.8655 20.0349 21.593L21.5034 26.2925L2.99918 36.8664L6.23007 49.2026L13.573 59.7765C11.1002 62.23 9.59998 63.4337 5.05521 62.7136L2.99918 64.7697H20.0349H24.7343L56.4559 64.7323L76.7225 64.7084L84.0655 64.6998L155.733 64.6154L173.356 64.5946L176.881 64.5905L180.111 64.5867L246.492 64.5085L274.101 64.476Z" fill="#9F1C22"/>
<path d="M274.101 64.476L276.451 63.0074M274.101 64.476L246.492 64.5085M274.101 64.476L251.485 61.5379L251.218 59.7756M276.451 63.0074C268.804 61.5935 271.686 59.2045 280.27 54.1958M276.451 63.0074L253.541 59.7756V57.4493M280.27 54.1958C250.787 36.7621 234.566 28.2733 208.015 23.0616M280.27 54.1958C273.296 52.7632 266.808 51.5282 260.59 50.3901M208.015 23.0616H189.804C188.114 24.2874 186.547 25.4741 185.105 26.6368M208.015 23.0616C185.983 14.8042 167.392 9.10123 148.977 6.20588M49.9941 14.5438C46.0705 13.8324 43.7914 13.0006 39.4203 9.84429V8.08198L30.6087 4.26364H12.1044C20.433 12.0004 22.4157 15.8655 20.0348 21.593L21.5034 26.2925M49.9941 14.5438C53.0983 13.7541 56.1316 13.01 59.0994 12.3112M49.9941 14.5438L48.1886 15.2883M21.5034 26.2925L2.99917 36.8664L6.23007 49.2026L13.573 59.7765C11.1002 62.23 9.59997 63.4337 5.0552 62.7136L2.99917 64.7697H20.0348H24.7343L56.456 64.7323L76.7225 64.7084M21.5034 26.2925L30.6087 22.5378M180.111 64.5867L176.881 64.5905M180.111 64.5867C171.395 49.8641 171.257 41.3484 178.319 33.0472M180.111 64.5867L246.492 64.5085M30.6087 22.5378C68.7921 14.5438 95.8142 49.2026 76.7225 64.7084M30.6087 22.5378L42.9449 17.4507M76.7225 64.7084L84.0655 64.6998M84.0655 64.6998L155.733 64.6154M84.0655 64.6998C84.3743 64.3804 84.6679 64.0545 84.9467 63.7227M42.9449 17.4507C62.0374 18.0976 76.8068 27.213 84.0655 37.914M42.9449 17.4507L48.1886 15.2883M185.105 26.6368L182.168 24.5293M185.105 26.6368C182.389 28.8259 180.12 30.9296 178.319 33.0472M182.168 24.5293C171.549 32.748 171.571 37.731 170.712 46.5582L169.391 45.6641M182.168 24.5293H178.349M168.069 24.5293L156.908 26.6368C156.49 26.8546 156.099 27.0639 155.733 27.2692M168.069 24.5293L106.094 15.2883M168.069 24.5293H178.349M101.101 14.5438L97.2828 6.90621L98.4577 5.26718M101.101 14.5438L64.3864 11.0988M101.101 14.5438L99.6326 17.1864M101.101 14.5438L103.598 14.9161M98.4577 5.26718C87.945 6.41366 76.7317 8.3464 64.3864 11.0988M98.4577 5.26718C99.6413 5.1381 100.816 5.01899 101.982 4.9098M176.881 64.5905L170.712 52.4326H169.391M176.881 64.5905L173.356 64.5946M155.733 64.6154L151.621 60.0693L162.195 52.4326H168.656M155.733 64.6154L173.356 64.5946M59.0994 12.3112H64.3864L69.4395 15.2883M59.0994 12.3112C60.885 11.8907 62.6469 11.4867 64.3864 11.0988M84.0655 37.914C86.4893 41.4873 88.0757 45.2373 88.7059 48.908M84.0655 37.914L87.5901 36.3617M88.7059 48.908C89.6292 54.2853 88.5005 59.4921 84.9467 63.7227M88.7059 48.908L91.6726 49.4954M84.9467 63.7227L91.1147 59.5936M148.977 6.20588L149.618 11.0988L152.796 23.0616L149.618 26.6368M148.977 6.20588C133.802 3.8198 118.746 3.34053 101.982 4.9098M149.618 26.6368L99.6326 17.1864M149.618 26.6368C149.614 37.1992 150.173 42.344 152.796 52.4326M149.618 26.6368L155.733 27.2692M99.6326 17.1864C84.746 14.798 75.3791 12.9146 69.4395 15.2883M99.6326 17.1864L97.2828 26.6368M77.8974 20.2714L86.1215 25.1168L91.1147 34.8095L87.5901 36.3617M77.8974 20.2714L80.2472 18.3612L109.325 25.1168C124.895 31.4486 133.194 35.8053 146.921 45.3833C148.028 48.1877 148.013 49.5868 146.921 51.5514L141.634 53.9012M77.8974 20.2714L69.4395 15.2883M141.634 53.9012L115.2 52.4326L101.982 40.9776M141.634 53.9012H149.618L152.796 52.4326M101.982 40.9776L97.2828 26.6368M101.982 40.9776L107.563 56.2509L148.977 60.0693C151.476 59.9866 152.097 57.695 152.796 52.4326M97.2828 26.6368L98.4577 27.2554M99.6326 27.874C127.514 37.7252 136.272 42.3516 139.578 48.908L117.549 50.0828L107.563 43.3529M99.6326 27.874L104.038 40.9776L107.563 43.3529M99.6326 27.874L98.4577 27.2554M101.982 4.9098L106.094 15.2883M106.094 15.2883L104.038 26.6368L107.563 43.3529M106.094 15.2883L103.598 14.9161M87.5901 36.3617C76.0023 24.0155 68.8933 17.7514 48.1886 15.2883M91.6726 49.4954L94.6394 50.0828L96.108 56.2509L91.1147 59.5936M91.6726 49.4954L91.1147 59.5936M178.349 24.5293C172.054 31.1193 169.365 35.308 168.069 44.77M168.069 44.77L150.74 33.0472C151.664 30.0698 153.048 28.7731 155.733 27.2692M168.069 44.77L169.391 45.6641M168.656 52.4326C170.202 57.9853 171.267 60.5668 173.356 64.5946M168.656 52.4326H169.391M169.391 45.6641C168.971 48.305 168.892 49.7934 169.391 52.4326M103.598 14.9161C100.985 19.5431 100.067 22.3091 98.4577 27.2554M178.319 33.0472C212.082 42.3873 233.823 45.4903 260.59 50.3901M260.59 50.3901L253.541 57.4493M246.492 64.5085L251.218 59.7756M253.541 57.4493L251.218 59.7756" stroke="#B93C3C"/>
<path d="M274.101 64.476L276.451 63.0074C268.804 61.5935 271.686 59.2045 280.27 54.1958C250.787 36.7621 234.566 28.2733 208.015 23.0616C185.983 14.8042 167.392 9.10123 148.977 6.20588C133.802 3.8198 118.746 3.34053 101.982 4.9098C100.816 5.01899 99.6413 5.1381 98.4577 5.26718C87.9451 6.41366 76.7317 8.3464 64.3864 11.0988C62.6469 11.4867 60.885 11.8907 59.0994 12.3112C56.1316 13.01 53.0983 13.7541 49.9941 14.5438C46.0705 13.8324 43.7914 13.0006 39.4203 9.84429V8.08198L30.6087 4.26364H12.1044C20.433 12.0004 22.4157 15.8655 20.0349 21.593L21.5034 26.2925L2.99918 36.8664L6.23007 49.2026L13.573 59.7765C11.1002 62.23 9.59998 63.4337 5.05521 62.7136L2.99918 64.7697H20.0349H24.7343L56.4559 64.7323L76.7225 64.7084L84.0655 64.6998L155.733 64.6154L173.356 64.5946L176.881 64.5905L180.111 64.5867L246.492 64.5085L274.101 64.476Z" fill="#9F1C22"/>
<path d="M274.101 64.476L276.451 63.0074M274.101 64.476L246.492 64.5085M274.101 64.476L251.485 61.5379L251.218 59.7756M276.451 63.0074C268.804 61.5935 271.686 59.2045 280.27 54.1958M276.451 63.0074L253.541 59.7756V57.4493M280.27 54.1958C250.787 36.7621 234.566 28.2733 208.015 23.0616M280.27 54.1958C273.296 52.7632 266.808 51.5282 260.59 50.3901M208.015 23.0616H189.804C188.114 24.2874 186.547 25.4741 185.105 26.6368M208.015 23.0616C185.983 14.8042 167.392 9.10123 148.977 6.20588M49.9941 14.5438C46.0705 13.8324 43.7914 13.0006 39.4203 9.84429V8.08198L30.6087 4.26364H12.1044C20.433 12.0004 22.4157 15.8655 20.0348 21.593L21.5034 26.2925M49.9941 14.5438C53.0983 13.7541 56.1316 13.01 59.0994 12.3112M49.9941 14.5438L48.1886 15.2883M21.5034 26.2925L2.99917 36.8664L6.23007 49.2026L13.573 59.7765C11.1002 62.23 9.59997 63.4337 5.0552 62.7136L2.99917 64.7697H20.0348H24.7343L56.456 64.7323L76.7225 64.7084M21.5034 26.2925L30.6087 22.5378M180.111 64.5867L176.881 64.5905M180.111 64.5867C171.395 49.8641 171.257 41.3484 178.319 33.0472M180.111 64.5867L246.492 64.5085M30.6087 22.5378C68.7921 14.5438 95.8142 49.2026 76.7225 64.7084M30.6087 22.5378L42.9449 17.4507M76.7225 64.7084L84.0655 64.6998M84.0655 64.6998L155.733 64.6154M84.0655 64.6998C84.3743 64.3804 84.6679 64.0545 84.9467 63.7227M42.9449 17.4507C62.0374 18.0976 76.8068 27.213 84.0655 37.914M42.9449 17.4507L48.1886 15.2883M185.105 26.6368L182.168 24.5293M185.105 26.6368C182.389 28.8259 180.12 30.9296 178.319 33.0472M182.168 24.5293C171.549 32.748 171.571 37.731 170.712 46.5582L169.391 45.6641M182.168 24.5293H178.349M168.069 24.5293L156.908 26.6368C156.49 26.8546 156.099 27.0639 155.733 27.2692M168.069 24.5293L106.094 15.2883M168.069 24.5293H178.349M101.101 14.5438L97.2828 6.90621L98.4577 5.26718M101.101 14.5438L64.3864 11.0988M101.101 14.5438L99.6326 17.1864M101.101 14.5438L103.598 14.9161M98.4577 5.26718C87.945 6.41366 76.7317 8.3464 64.3864 11.0988M98.4577 5.26718C99.6413 5.1381 100.816 5.01899 101.982 4.9098M176.881 64.5905L170.712 52.4326H169.391M176.881 64.5905L173.356 64.5946M155.733 64.6154L151.621 60.0693L162.195 52.4326H168.656M155.733 64.6154L173.356 64.5946M59.0994 12.3112H64.3864L69.4395 15.2883M59.0994 12.3112C60.885 11.8907 62.6469 11.4867 64.3864 11.0988M84.0655 37.914C86.4893 41.4873 88.0757 45.2373 88.7059 48.908M84.0655 37.914L87.5901 36.3617M88.7059 48.908C89.6292 54.2853 88.5005 59.4921 84.9467 63.7227M88.7059 48.908L91.6726 49.4954M84.9467 63.7227L91.1147 59.5936M148.977 6.20588L149.618 11.0988L152.796 23.0616L149.618 26.6368M148.977 6.20588C133.802 3.8198 118.746 3.34053 101.982 4.9098M149.618 26.6368L99.6326 17.1864M149.618 26.6368C149.614 37.1992 150.173 42.344 152.796 52.4326M149.618 26.6368L155.733 27.2692M99.6326 17.1864C84.746 14.798 75.3791 12.9146 69.4395 15.2883M99.6326 17.1864L97.2828 26.6368M77.8974 20.2714L86.1215 25.1168L91.1147 34.8095L87.5901 36.3617M77.8974 20.2714L80.2472 18.3612L109.325 25.1168C124.895 31.4486 133.194 35.8053 146.921 45.3833C148.028 48.1877 148.013 49.5868 146.921 51.5514L141.634 53.9012M77.8974 20.2714L69.4395 15.2883M141.634 53.9012L115.2 52.4326L101.982 40.9776M141.634 53.9012H149.618L152.796 52.4326M101.982 40.9776L97.2828 26.6368M101.982 40.9776L107.563 56.2509L148.977 60.0693C151.476 59.9866 152.097 57.695 152.796 52.4326M97.2828 26.6368L98.4577 27.2554M99.6326 27.874C127.514 37.7252 136.272 42.3516 139.578 48.908L117.549 50.0828L107.563 43.3529M99.6326 27.874L104.038 40.9776L107.563 43.3529M99.6326 27.874L98.4577 27.2554M101.982 4.9098L106.094 15.2883M106.094 15.2883L104.038 26.6368L107.563 43.3529M106.094 15.2883L103.598 14.9161M87.5901 36.3617C76.0023 24.0155 68.8933 17.7514 48.1886 15.2883M91.6726 49.4954L94.6394 50.0828L96.108 56.2509L91.1147 59.5936M91.6726 49.4954L91.1147 59.5936M178.349 24.5293C172.054 31.1193 169.365 35.308 168.069 44.77M168.069 44.77L150.74 33.0472C151.664 30.0698 153.048 28.7731 155.733 27.2692M168.069 44.77L169.391 45.6641M168.656 52.4326C170.202 57.9853 171.267 60.5668 173.356 64.5946M168.656 52.4326H169.391M169.391 45.6641C168.971 48.305 168.892 49.7934 169.391 52.4326M103.598 14.9161C100.985 19.5431 100.067 22.3091 98.4577 27.2554M178.319 33.0472C212.082 42.3873 233.823 45.4903 260.59 50.3901M260.59 50.3901L253.541 57.4493M246.492 64.5085L251.218 59.7756M253.541 57.4493L251.218 59.7756" stroke="#540C0C" stroke-width="2"/>
<path fill-rule="evenodd" clip-rule="evenodd" d="M196.263 64.4752C192.262 60.234 189.803 54.4759 189.803 48.1336C189.803 35.0973 200.192 24.5293 213.007 24.5293C225.822 24.5293 236.211 35.0973 236.211 48.1336C236.211 54.4771 233.751 60.2362 229.749 64.4776V64.4752H196.263Z" fill="black"/>
<g filter="url(#filter0_d_21534_76)">
<circle cx="20.854" cy="20.854" r="20.854" transform="matrix(-1 0 0 1 233.859 26.292)" fill="#D9D9D9"/>
<circle cx="20.854" cy="20.854" r="20.354" transform="matrix(-1 0 0 1 233.859 26.292)" stroke="black"/>
</g>
<circle cx="18.5043" cy="18.5043" r="18.0043" transform="matrix(-1 0 0 1 231.512 28.6426)" fill="#D9D9D9" stroke="black"/>
<circle cx="7.9304" cy="7.9304" r="7.4304" transform="matrix(-1 0 0 1 220.938 38.6279)" stroke="black"/>
<path d="M208.511 46.5591C208.511 48.6863 210.36 50.4649 212.711 50.4649C215.061 50.4649 216.91 48.6863 216.91 46.5591C216.91 44.4319 215.061 42.6533 212.711 42.6533C210.36 42.6533 208.511 44.4319 208.511 46.5591Z" stroke="black"/>
<path fill-rule="evenodd" clip-rule="evenodd" d="M20.6189 64.4752C16.6178 60.234 14.1589 54.4759 14.1589 48.1336C14.1589 35.0973 24.5476 24.5293 37.3626 24.5293C50.1777 24.5293 60.5664 35.0973 60.5664 48.1336C60.5664 54.4771 58.1065 60.2362 54.1041 64.4776V64.4752H20.6189Z" fill="black"/>
<g filter="url(#filter1_d_21534_76)">
<circle cx="20.854" cy="20.854" r="20.854" transform="matrix(-1 0 0 1 58.2148 26.292)" fill="#D9D9D9"/>
<circle cx="20.854" cy="20.854" r="20.354" transform="matrix(-1 0 0 1 58.2148 26.292)" stroke="black"/>
</g>
<circle cx="18.5043" cy="18.5043" r="18.0043" transform="matrix(-1 0 0 1 55.8672 28.6416)" fill="#D9D9D9" stroke="black"/>
<circle cx="7.9304" cy="7.9304" r="7.4304" transform="matrix(-1 0 0 1 45.293 38.627)" stroke="black"/>
<path d="M32.8666 46.5581C32.8666 48.6853 34.7159 50.4639 37.0661 50.4639C39.4163 50.4639 41.2656 48.6853 41.2656 46.5581C41.2656 44.4309 39.4163 42.6523 37.0661 42.6523C34.7159 42.6523 32.8666 44.4309 32.8666 46.5581Z" stroke="black"/>
<path d="M170.712 24.5924C183.823 25.0253 191.071 24.4953 203.902 22.8301C164.804 6.1755 138.986 3.00354 98.7511 5.20702L97.8699 6.67562L101.688 14.3123L170.712 24.5924Z" fill="black" stroke="black"/>
<g filter="url(#filter2_f_21534_76)">
<path d="M188.67 22.7974H202.727C162.681 7.87921 141.38 4.45094 105.212 6.16414C153.265 8.75346 172.259 12.161 188.67 22.7974Z" fill="white" fill-opacity="0.94"/>
</g>
<g filter="url(#filter3_f_21534_76)">
<path d="M105.214 9.28711L174.238 22.5044H160.434L106.977 14.2803L105.214 9.28711Z" fill="white" fill-opacity="0.57"/>
</g>
<path d="M278.551 54.3032C277.946 54.3032 277.403 54.0338 276.799 54.0338C276.54 54.0338 276.219 53.7804 275.946 53.7643C273.276 53.6072 270.6 53.3062 267.981 52.7562C267.237 52.6 266.544 52.5461 265.795 52.5067C265.464 52.4893 265.049 52.2616 264.747 52.1724C263.531 51.8122 262.293 51.5463 261.03 51.4288C260.336 51.3643 259.578 51.0252 258.909 50.8798C257.374 50.5465 255.806 50.4655 254.278 50.1612C252.966 49.9 251.667 49.5744 250.335 49.4276C249.677 49.3551 249.214 49.3189 248.589 49.0933C246.575 48.3666 244.407 47.5863 242.261 47.3716C240.898 47.2353 239.558 46.9374 238.184 46.9374C237.615 46.9374 237.074 46.668 236.512 46.668" stroke="#420809" stroke-width="3" stroke-linecap="round"/>
<path d="M278.488 53.1055C276.335 52.0287 274.44 50.6399 272.307 49.5732" stroke="#420809" stroke-width="3" stroke-linecap="round"/>
<path d="M277.383 54.8721C276.603 55.2617 275.793 55.6818 275.065 56.0863C274.055 56.6474 273.865 57.2617 273.066 58.0609C272.418 58.7085 271.643 59.1546 271.643 60.1704C271.643 60.7968 271.475 62.0732 272.084 62.378" stroke="#420809" stroke-width="3" stroke-linecap="round"/>
<path d="M19.9743 11.1611C19.9743 13.0348 20.8919 13.9934 21.7404 15.4783C22.4627 16.7423 22.4613 18.417 21.0781 19.1086" stroke="#420809" stroke-width="3" stroke-linecap="round"/>
<path d="M10.4818 61.9364C11.2876 61.8469 12.104 61.1669 12.9102 60.943C13.3075 60.8326 14.329 60.8941 14.6272 60.5628C14.9184 60.2393 15.2269 57.8383 14.4555 57.7419C13.9183 57.6748 13.0862 57.2646 12.6403 56.9079C12.1749 56.5356 13.0957 57.4614 13.2413 57.607C13.6213 57.987 13.8277 58.0663 14.014 58.625" stroke="#420809" stroke-width="3" stroke-linecap="round"/>
<path d="M11.4414 38.8225C10.5471 40.8615 9.66923 42.8592 9.66923 45.1236C9.66923 45.5215 9.87146 47.7905 9.23603 47.0139C8.05546 45.571 5.18102 42.9799 5.06156 40.9491C5.03991 40.5811 4.86101 39.1526 5.14032 38.9012C5.64736 38.4449 7.8165 38.8225 8.52716 38.8225C10.5724 38.8225 12.2173 38.4011 10.2009 40.4174C9.58099 41.0373 9.17144 41.6828 8.98005 42.5441C8.82911 43.2233 8.96035 45.3271 8.96035 44.6313C8.96035 43.8862 9.3891 40.725 8.78314 40.2402C8.17877 39.7567 7.88294 39.3516 7.03065 39.1966C6.04335 39.0171 6.60616 40.6253 7.01096 40.9491C7.73978 41.5322 8.21032 43.3478 8.60592 44.139" stroke="#420809" stroke-width="3" stroke-linecap="round"/>
<path d="M5.77079 41.3047C5.85881 42.0969 6.8844 43.9207 7.54297 44.1402" stroke="#420809" stroke-width="3" stroke-linecap="round"/>
<path d="M192.309 36.1197C191.725 36.1197 190.981 36.2411 190.42 36.0687C189.699 35.8468 189.17 35.4306 188.404 35.4306C186.705 35.4306 180.981 31.9528 180.365 33.0316C178.526 36.249 184.362 32.8059 184.716 34.397C184.778 34.6777 185.037 36.4762 185.52 35.303C185.546 35.2408 185.765 34.162 185.494 34.3587C184.549 35.0465 184.184 36.3445 183.529 37.2171C183.134 37.7441 184.732 36.7247 184.831 36.6557C185.723 36.0335 186.817 34.6267 187.893 34.3332C188.406 34.1935 192.725 34.7045 192.768 35.4306C192.81 36.1459 191.915 35.8253 191.849 36.3494C191.789 36.8286 191.306 37.7325 190.777 37.3447C189.159 36.158 187.92 34.5535 186.12 33.6058C185.085 33.0614 184.001 32.7266 182.904 32.3425C182.198 32.0955 181.291 32.0944 180.709 32.5467C179.764 33.2816 178.757 34.37 178.757 35.6603" stroke="#9F1C22" stroke-width="3" stroke-linecap="round"/>
<path d="M183.808 34.7431C183.542 35.4806 183.191 36.1517 183.017 36.9252C182.849 37.6673 182.265 39.6908 183.029 37.9205C183.754 36.2426 184.67 34.6122 185.314 32.9055C185.767 31.7046 185.93 31.7878 187.177 31.9867C189.091 32.2922 190.598 31.5273 192.421 31.5273C193.138 31.5273 193.445 31.7352 193.213 32.5482C193.012 33.2509 192.063 34.3014 191.618 34.8579C191.344 35.1996 192.591 34.5612 192.817 34.3347C193.201 33.9505 193.225 33.4483 193.225 32.9055" stroke="#9F1C22" stroke-width="3" stroke-linecap="round"/>
<defs>
<filter id="filter0_d_21534_76" x="192.152" y="26.292" width="41.707" height="46.708" filterUnits="userSpaceOnUse" color-interpolation-filters="sRGB">
<feFlood flood-opacity="0" result="BackgroundImageFix"/>
<feColorMatrix in="SourceAlpha" type="matrix" values="0 0 0 0 0 0 0 0 0 0 0 0 0 0 0 0 0 0 127 0" result="hardAlpha"/>
<feOffset dy="5"/>
<feComposite in2="hardAlpha" operator="out"/>
<feColorMatrix type="matrix" values="0 0 0 0 0 0 0 0 0 0 0 0 0 0 0 0 0 0 1 0"/>
<feBlend mode="normal" in2="BackgroundImageFix" result="effect1_dropShadow_21534_76"/>
<feBlend mode="normal" in="SourceGraphic" in2="effect1_dropShadow_21534_76" result="shape"/>
</filter>
<filter id="filter1_d_21534_76" x="16.5078" y="26.292" width="41.707" height="46.708" filterUnits="userSpaceOnUse" color-interpolation-filters="sRGB">
<feFlood flood-opacity="0" result="BackgroundImageFix"/>
<feColorMatrix in="SourceAlpha" type="matrix" values="0 0 0 0 0 0 0 0 0 0 0 0 0 0 0 0 0 0 127 0" result="hardAlpha"/>
<feOffset dy="5"/>
<feComposite in2="hardAlpha" operator="out"/>
<feColorMatrix type="matrix" values="0 0 0 0 0 0 0 0 0 0 0 0 0 0 0 0 0 0 1 0"/>
<feBlend mode="normal" in2="BackgroundImageFix" result="effect1_dropShadow_21534_76"/>
<feBlend mode="normal" in="SourceGraphic" in2="effect1_dropShadow_21534_76" result="shape"/>
</filter>
<filter id="filter2_f_21534_76" x="99.5109" y="0.0617189" width="108.916" height="28.4361" filterUnits="userSpaceOnUse" color-interpolation-filters="sRGB">
<feFlood flood-opacity="0" result="BackgroundImageFix"/>
<feBlend mode="normal" in="SourceGraphic" in2="BackgroundImageFix" result="shape"/>
<feGaussianBlur stdDeviation="2.85" result="effect1_foregroundBlur_21534_76"/>
</filter>
<filter id="filter3_f_21534_76" x="96.4148" y="0.487109" width="86.6234" height="30.8178" filterUnits="userSpaceOnUse" color-interpolation-filters="sRGB">
<feFlood flood-opacity="0" result="BackgroundImageFix"/>
<feBlend mode="normal" in="SourceGraphic" in2="BackgroundImageFix" result="shape"/>
<feGaussianBlur stdDeviation="4.4" result="effect1_foregroundBlur_21534_76"/>
</filter>
</defs>
</svg>
