<svg width="24" height="24" viewBox="0 0 24 24" fill="none" xmlns="http://www.w3.org/2000/svg">
<path d="M11.9999 1.75903L19.9134 9.67253V21.31C19.9134 21.5569 19.8153 21.7938 19.6408 21.9684C19.4663 22.143 19.2293 22.241 18.9824 22.241H5.01743C4.77052 22.241 4.53369 22.1429 4.35908 21.9684C4.18456 21.7938 4.08643 21.5569 4.08643 21.31V9.67253L11.9999 1.75903Z" fill="#FEA679"/>
<path d="M11.6704 4.88159C11.7136 4.83827 11.765 4.80388 11.8215 4.78041C11.878 4.75695 11.9387 4.74488 11.9999 4.74488C12.0612 4.74488 12.1218 4.75695 12.1783 4.78041C12.235 4.80388 12.2864 4.83827 12.3295 4.88159L19.9134 12.4655V9.67253L11.9999 1.75903L4.08643 9.67253V12.4655L11.6704 4.88159Z" fill="#FFD3BC"/>
<path d="M4.08643 9.67249V21.31C4.08643 21.5569 4.18456 21.7937 4.35908 21.9683C4.53369 22.1428 4.77052 22.241 5.01743 22.241H18.9824C19.2293 22.241 19.4662 22.1428 19.6408 21.9683C19.8154 21.7938 19.9134 21.5569 19.9134 21.31V9.67249" stroke="#191919" stroke-linecap="round" stroke-linejoin="round"/>
<path d="M1.29346 12.4655L12 1.75903L22.7065 12.4655" stroke="#191919" stroke-linecap="round" stroke-linejoin="round"/>
<path d="M10.138 14.793H13.862C14.1089 14.793 14.3458 14.8911 14.5204 15.0656C14.695 15.2401 14.793 15.4771 14.793 15.724V22.241H9.20703V15.724C9.20703 15.4771 9.30517 15.2402 9.47968 15.0656C9.65429 14.8911 9.89113 14.793 10.138 14.793Z" fill="#FFD3BC"/>
<path d="M9.26479 16.655H14.7921V15.724C14.7921 15.4771 14.6939 15.2402 14.5194 15.0656C14.3449 14.891 14.108 14.793 13.8611 14.793H10.138C9.89113 14.793 9.65429 14.8911 9.47968 15.0656C9.30517 15.2402 9.20703 15.4771 9.20703 15.724V16.655H9.26479Z" fill="#FFD3BC"/>
<path d="M10.138 14.793H13.862C14.1089 14.793 14.3458 14.8911 14.5204 15.0656C14.695 15.2401 14.793 15.4771 14.793 15.724V22.241H9.20703V15.724C9.20703 15.4771 9.30517 15.2402 9.47968 15.0656C9.65429 14.8911 9.89113 14.793 10.138 14.793Z" stroke="#191919" stroke-linecap="round" stroke-linejoin="round"/>
</svg>
