<svg width="20" height="20" viewBox="0 0 20 20" fill="none" xmlns="http://www.w3.org/2000/svg">
<path d="M10.0003 1.66663C5.40866 1.66663 1.66699 5.40829 1.66699 9.99996C1.66699 14.5916 5.40866 18.3333 10.0003 18.3333C14.592 18.3333 18.3337 14.5916 18.3337 9.99996C18.3337 5.40829 14.592 1.66663 10.0003 1.66663ZM12.8003 11.9166C13.042 12.1583 13.042 12.5583 12.8003 12.8C12.6753 12.925 12.517 12.9833 12.3587 12.9833C12.2003 12.9833 12.042 12.925 11.917 12.8L10.0003 10.8833L8.08366 12.8C7.95866 12.925 7.80033 12.9833 7.64199 12.9833C7.48366 12.9833 7.32533 12.925 7.20033 12.8C6.95866 12.5583 6.95866 12.1583 7.20033 11.9166L9.11699 9.99996L7.20033 8.08329C6.95866 7.84163 6.95866 7.44163 7.20033 7.19996C7.44199 6.95829 7.84199 6.95829 8.08366 7.19996L10.0003 9.11663L11.917 7.19996C12.1587 6.95829 12.5587 6.95829 12.8003 7.19996C13.042 7.44163 13.042 7.84163 12.8003 8.08329L10.8837 9.99996L12.8003 11.9166Z" fill="#EE3434"/>
</svg>
