<svg width="66" height="57" viewBox="0 0 66 57" fill="none" xmlns="http://www.w3.org/2000/svg">
<path d="M16.2976 21.0805C21.0256 19.0266 23.2342 13.6226 21.2306 9.01021C19.227 4.39783 13.7699 2.32374 9.04187 4.3776C4.31381 6.43146 2.1052 11.8355 4.10881 16.4479C6.11241 21.0603 11.5695 23.1344 16.2976 21.0805Z" fill="#FD6C22"/>
<path d="M16.4972 18.5391C19.3759 17.2886 20.7203 13.9978 19.5001 11.1888C18.2799 8.37988 14.9571 7.11649 12.0785 8.36697C9.19982 9.61745 7.85538 12.9083 9.07558 15.7172C10.2958 18.5262 13.6186 19.7896 16.4972 18.5391Z" fill="#FEA679"/>
<path d="M56.084 21.8372C61.2389 21.8372 65.4178 17.7606 65.4178 12.7319C65.4178 7.70309 61.2389 3.62646 56.084 3.62646C50.9291 3.62646 46.7502 7.70309 46.7502 12.7319C46.7502 17.7606 50.9291 21.8372 56.084 21.8372Z" fill="black"/>
<path d="M54.8859 19.586C58.0245 19.586 60.5688 17.1033 60.5688 14.0408C60.5688 10.9782 58.0245 8.49554 54.8859 8.49554C51.7474 8.49554 49.2031 10.9782 49.2031 14.0408C49.2031 17.1033 51.7474 19.586 54.8859 19.586Z" fill="black"/>
<path d="M56.084 21.8372C61.2389 21.8372 65.4178 17.7606 65.4178 12.7319C65.4178 7.70309 61.2389 3.62646 56.084 3.62646C50.9291 3.62646 46.7502 7.70309 46.7502 12.7319C46.7502 17.7606 50.9291 21.8372 56.084 21.8372Z" fill="#FD6C22"/>
<path d="M54.8859 19.586C58.0245 19.586 60.5688 17.1033 60.5688 14.0408C60.5688 10.9782 58.0245 8.49554 54.8859 8.49554C51.7474 8.49554 49.2031 10.9782 49.2031 14.0408C49.2031 17.1033 51.7474 19.586 54.8859 19.586Z" fill="#FEA679"/>
<path d="M47.5177 56.3411H23.9521C18.4654 56.3411 14.0181 52.1456 14.0181 46.9692V24.7357C13.8893 -0.334849 57.3287 0.62839 57.4517 24.7357V46.9692C57.4517 52.1456 53.0044 56.3411 47.5177 56.3411Z" fill="#FD6C22"/>
<path d="M27.0108 25.2744C27.96 25.2744 28.7294 24.505 28.7294 23.5558C28.7294 22.6066 27.96 21.8372 27.0108 21.8372C26.0617 21.8372 25.2922 22.6066 25.2922 23.5558C25.2922 24.505 26.0617 25.2744 27.0108 25.2744Z" fill="#603813"/>
<path d="M43.7372 25.2744C44.6863 25.2744 45.4558 24.505 45.4558 23.5558C45.4558 22.6066 44.6863 21.8372 43.7372 21.8372C42.788 21.8372 42.0186 22.6066 42.0186 23.5558C42.0186 24.505 42.788 25.2744 43.7372 25.2744Z" fill="#603813"/>
<path d="M24.7217 40.9379C24.7217 45.5609 29.6521 49.3055 35.736 49.3055C41.8199 49.3055 46.7503 45.5579 46.7503 40.9379C46.7503 36.3179 41.8199 24.4048 35.736 24.4048C29.6521 24.4048 24.7217 36.315 24.7217 40.9379Z" fill="#FEA679"/>
<path d="M40.3615 32.1108C40.9822 33.6566 39.0674 37.1905 35.8908 37.2549C32.5531 37.3252 30.5798 33.4985 31.2386 31.9527C32.1784 29.7539 39.4451 29.833 40.3586 32.1079L40.3615 32.1108Z" fill="black"/>
<path d="M31.6167 39.3977C31.6665 39.5118 32.1583 40.6068 33.3353 40.8674C34.3307 41.087 35.3994 40.6215 35.9879 39.6963C36.4183 40.6303 37.402 41.1748 38.3916 41.0431C39.308 40.9201 40.0692 40.2379 40.3093 39.3245" stroke="black" stroke-width="0.585555" stroke-miterlimit="10"/>
<path d="M26.132 23.5558C26.444 23.5558 26.697 23.3028 26.697 22.9908C26.697 22.6787 26.444 22.4257 26.132 22.4257C25.8199 22.4257 25.5669 22.6787 25.5669 22.9908C25.5669 23.3028 25.8199 23.5558 26.132 23.5558Z" fill="white"/>
<path d="M42.8158 23.5558C43.1279 23.5558 43.3809 23.3028 43.3809 22.9908C43.3809 22.6787 43.1279 22.4257 42.8158 22.4257C42.5037 22.4257 42.2507 22.6787 42.2507 22.9908C42.2507 23.3028 42.5037 23.5558 42.8158 23.5558Z" fill="white"/>
</svg>
