<svg width="62" height="64" viewBox="0 0 62 64" fill="none" xmlns="http://www.w3.org/2000/svg">
<ellipse cx="29.7931" cy="36.4138" rx="29.7931" ry="27.5862" fill="#283A78"/>
<ellipse cx="32.0001" cy="27.5862" rx="29.7931" ry="27.5862" fill="#3651AB"/>
<path d="M20.9658 23.5477V31.6249C20.9658 33.2801 22.7644 34.3173 24.1989 33.4897L27.6969 31.4704L31.1948 29.4511L31.7355 29.1421V26.0304L31.1948 25.7215L27.6969 23.7021L24.1989 21.6828C22.7644 20.8552 20.9658 21.8925 20.9658 23.5477Z" fill="white"/>
<path d="M31.7354 23.5477V31.6249C31.7354 33.2801 33.534 34.3173 34.9574 33.4897L38.4664 31.4704L41.9643 29.4511C43.3878 28.6235 43.3878 26.549 41.9643 25.7215L38.4664 23.7021L34.9574 21.6828C33.534 20.8552 31.7354 21.8925 31.7354 23.5477Z" fill="white"/>
</svg>
