<svg width="44" height="120" viewBox="0 0 44 120" fill="none" xmlns="http://www.w3.org/2000/svg">
<g clip-path="url(#clip0_20940_1161)">
<path d="M28.4872 77.8057H21.7959V114.512H28.4872V77.8057Z" fill="#C69C6D"/>
<path d="M28.4872 105.875H21.7959V114.51H28.4872V105.875Z" fill="#39B54A"/>
<path d="M21.7954 88.2303C21.997 87.2196 27.7076 86.9498 28.1741 88.2605C28.382 88.8444 27.5267 89.6854 26.854 90.0487C24.7135 91.2039 21.6368 89.0269 21.797 88.2303H21.7954Z" fill="#754C24"/>
<path d="M16.87 77.8057H10.1787V114.512H16.87V77.8057Z" fill="#C69C6D"/>
<path d="M10.3284 87.7908C10.6314 86.3025 16.166 85.5599 16.6579 86.6611C17.0339 87.502 14.8617 90.2995 12.5054 89.7917C11.3851 89.5505 10.1745 88.5541 10.33 87.7908H10.3284Z" fill="#754C24"/>
<path d="M16.87 105.875H10.1787V114.51H16.87V105.875Z" fill="#39B54A"/>
<path d="M6.61494 59.834H32.2724C32.6834 63.7485 32.7707 66.9235 32.777 69.064C32.7897 73.2816 32.493 75.3285 32.7596 79.2175C32.9658 82.245 33.3974 84.6823 33.7132 86.2166C32.7294 86.791 31.5838 87.3321 30.2716 87.7462C24.2452 89.6487 18.7551 87.6003 16.5066 86.599C16.6526 85.1138 16.8272 83.0067 16.9319 80.4726C17.2397 73.0309 16.6986 67.6725 16.6986 67.6725C16.6986 67.6725 17.2397 73.0324 16.9319 80.4726C16.8272 83.0051 16.6526 85.1138 16.5066 86.599C16.1195 86.8291 15.7355 87.0179 15.3594 87.1718C11.2815 88.8585 6.99417 87.0957 5.125 86.1722C5.62165 77.3928 6.1183 68.6134 6.61336 59.8356L6.61494 59.834Z" fill="#C1272D"/>
<path d="M7.63992 60.0722C8.91407 57.3001 31.4774 58.6346 31.6298 60.2054C31.7726 61.6684 12.7 65.4322 8.28414 61.4193C8.00804 61.1686 7.39398 60.6101 7.63992 60.0722Z" fill="#8B272D"/>
<path d="M6.2837 66.1972C6.07108 68.1267 5.96794 68.9978 6.09646 69.0263C6.26783 69.0644 6.81049 67.5951 7.1088 66.1781C7.77047 63.038 7.25161 60.0962 6.99456 60.0962C6.88666 60.0962 6.89776 60.6103 6.2837 66.1956V66.1972Z" fill="black"/>
<path d="M31.9529 87.1137C31.8133 87.1899 31.6546 87.2676 31.4753 87.3406C31.2722 87.4231 31.0818 87.485 30.9104 87.5295C30.5391 85.5206 30.1202 82.4329 30.2393 78.6501C30.3186 76.1208 30.5883 74.78 30.7724 72.7347C31.0247 69.9421 31.0945 65.9213 30.1758 60.8374H31.4975C32.1037 65.8721 32.0021 69.8596 31.7847 72.6126C31.6292 74.5896 31.4118 75.9637 31.3563 78.4073C31.2738 82.0854 31.6276 85.1002 31.9513 87.1121L31.9529 87.1137Z" fill="#39B54A"/>
<path d="M31.9528 87.1134C31.6228 87.2689 31.2546 87.4688 30.904 87.5307C30.0535 83.137 29.9678 78.61 30.5676 74.1783C31.115 69.745 30.9024 65.2402 30.0995 60.8529L30.082 60.7593H30.1772L31.499 60.7624H31.5672L31.5751 60.8291C32.0924 65.1942 32.1749 69.6164 31.7148 73.9879C31.6053 75.0811 31.4958 76.1712 31.4434 77.2677C31.288 80.5554 31.4482 83.859 31.9528 87.1134ZM31.9528 87.1134C31.4149 83.8637 31.2023 80.5554 31.3546 77.2645C31.5593 73.9799 31.9972 70.7065 31.8846 67.4077C31.8481 65.2148 31.6878 63.0251 31.4228 60.8481L31.499 60.9164L30.1772 60.9195L30.255 60.8259C31.0436 65.2291 31.2403 69.7513 30.6739 74.1926C30.5406 75.3017 30.4041 76.4092 30.3391 77.5231C30.1392 80.8664 30.328 84.2318 30.9167 87.5291C31.1451 87.445 31.4593 87.3688 31.6973 87.2339L31.9528 87.1149V87.1134Z" fill="white"/>
<path d="M11.8432 32.5645C11.7433 31.3554 11.591 29.0388 10.3835 28.6421C9.02838 28.1962 7.23537 30.4542 7.05766 30.6811C-0.366676 40.211 0.00303293 51.8354 0.00303293 51.8465C0.361635 53.3825 0.810681 55.0041 1.37556 56.6924C2.82901 61.0306 4.66803 64.6705 6.45311 67.6044C6.634 67.2918 6.91961 66.7507 7.15603 66.0383C7.54637 64.8578 7.58445 63.8549 7.58763 63.1758C7.59715 61.4637 7.41308 57.1526 6.94976 51.4245C11.9083 40.9996 12.059 35.1684 11.8432 32.5661V32.5645Z" fill="#A67C52"/>
<path d="M32.6783 61.0658C23.9719 61.4624 15.2671 61.8591 6.56067 62.2558C7.23821 55.9025 6.88437 50.844 6.39882 47.2897C6.02753 44.578 5.2897 40.7286 5.99262 35.6082C6.44167 32.3379 7.23345 30.3624 8.69324 28.8503C10.3625 27.1207 12.6664 26.0513 15.2131 26.0513H23.4562C28.5496 26.0513 32.6767 30.3307 32.6767 35.6082V61.0658H32.6783Z" fill="#C1272D"/>
<path d="M31.9508 64.2297C38.0807 64.2297 43.05 59.2604 43.05 53.1305C43.05 47.0005 38.0807 42.0312 31.9508 42.0312C25.8208 42.0312 20.8516 47.0005 20.8516 53.1305C20.8516 59.2604 25.8208 64.2297 31.9508 64.2297Z" fill="#F15A24"/>
<path d="M22.127 47.959C26.7539 46.7531 31.0254 48.4985 32.1393 51.1023C33.4721 54.2203 30.835 59.8754 24.6197 61.4637" stroke="black" stroke-width="0.103019" stroke-miterlimit="10"/>
<path d="M21.1592 55.739C24.3168 54.0111 29.1611 51.9039 35.3525 51.1835C38.161 50.8566 40.6966 50.8789 42.8562 51.0534" stroke="black" stroke-width="0.103019" stroke-miterlimit="10"/>
<path d="M32.1115 38.7053C32.9128 38.4848 37.0018 45.3887 36.0545 52.8574C35.7784 55.0313 35.0105 57.7668 34.4884 57.7192C33.8347 57.6589 33.6951 53.2509 33.6919 49.1572C31.9179 40.7982 31.81 38.7879 32.1115 38.7053Z" fill="#A53800"/>
<path d="M24.9402 31.6252C24.4705 30.7906 24.453 28.4169 25.6399 27.4981C26.2651 27.0142 27.0759 27.0903 27.3552 27.1173C30.3382 27.3998 38.1037 35.8269 39.9856 47.556C41.2851 55.6563 39.362 62.7221 37.358 67.5378C35.8331 67.0761 34.3082 66.6143 32.7834 66.1526C33.4863 60.5371 34.1892 54.9201 34.8906 49.3046C31.5743 43.4115 28.2564 37.5184 24.9402 31.6252Z" fill="#C69C6D"/>
<path d="M33.6288 68.2647C33.0846 68.2678 32.6403 68.7169 32.6371 69.2691L32.6133 73.4755C32.6101 74.0261 33.0497 74.4704 33.5939 74.4672C34.1382 74.464 34.5824 74.015 34.5856 73.4628L34.6094 69.2564C34.6126 68.7058 34.1731 68.2615 33.6288 68.2647Z" fill="#C69C6D"/>
<path d="M35.4174 68.777C34.8716 68.8199 34.4559 69.2975 34.4892 69.8449L34.7446 74.018C34.778 74.5654 35.2476 74.9732 35.7935 74.9304C36.3393 74.8875 36.755 74.4099 36.7217 73.8625L36.4662 69.6894C36.4329 69.142 35.9633 68.7342 35.4174 68.777Z" fill="#C69C6D"/>
<path d="M33.5625 65.7641C33.0833 65.5039 32.4867 65.6879 32.2328 66.1766L30.2922 69.8959C30.0383 70.3831 30.2208 70.9892 30.7 71.2494C31.1792 71.5097 31.7758 71.3256 32.0297 70.8369L33.9703 67.1176C34.2241 66.6304 34.0417 66.0243 33.5625 65.7641Z" fill="#C69C6D"/>
<path d="M36.8084 67.2302C36.2689 67.3381 35.9119 67.8601 36.0119 68.3964L36.7735 72.487C36.8735 73.0233 37.3924 73.3692 37.9318 73.2613C38.4713 73.1534 38.8283 72.6314 38.7284 72.0951L37.9668 68.0045C37.8668 67.4682 37.3479 67.1223 36.8084 67.2302Z" fill="#C69C6D"/>
<path d="M37.9526 67.1143C37.7796 65.4514 36.2992 64.2629 34.6458 64.4629C32.9924 64.6628 31.7928 66.1718 31.9658 67.8363C32.1388 69.4992 33.6192 70.6876 35.2726 70.4877C36.9259 70.2878 38.1255 68.7788 37.9526 67.1143Z" fill="#C69C6D"/>
<path d="M16.6994 67.6729C16.9041 70.291 17.0278 73.1027 17.0278 76.0857C17.0278 79.8701 16.8263 83.3879 16.509 86.5994C15.7965 86.9358 15.2189 86.9961 14.7731 86.7803C12.7992 85.8267 13.4418 79.4575 16.701 67.6729H16.6994Z" fill="#8B272D"/>
<path d="M24.7656 31.1431C25.5542 32.6298 26.3666 34.1309 27.2028 35.6462C28.0406 37.1631 28.8784 38.6515 29.7162 40.1129C29.1973 40.0462 28.7562 39.9066 28.3833 39.7321C24.71 38.0168 24.7545 31.6921 24.764 31.1431H24.7656Z" fill="#603813"/>
<path d="M6.6689 114.51H16.8494V119.462H4.07617V117.103C4.07617 115.672 5.23766 114.51 6.6689 114.51Z" fill="#B3B3B3"/>
<path d="M16.9181 114.51H14.5459C16.2215 118.187 16.945 118.888 17.2925 118.79C17.7194 118.669 17.7701 117.282 17.6527 116.44C17.5274 115.537 17.1577 114.874 16.9181 114.51Z" fill="#4D4D4D"/>
<path d="M16.8494 119.462H4.07617V120H16.8494V119.462Z" fill="black"/>
<path d="M11.2023 110.729C12.2464 110.729 13.0937 111.576 13.0937 112.62V114.511H9.3125V112.62C9.3125 111.576 10.1598 110.729 11.2039 110.729H11.2023Z" fill="#4D4D4D"/>
<path d="M18.3066 114.51H28.4871C28.7203 114.851 29.1789 115.624 29.2487 116.706C29.3392 118.118 28.7076 119.138 28.4871 119.462H15.7139V117.102C15.7139 115.671 16.8754 114.51 18.3066 114.51Z" fill="#B3B3B3"/>
<path d="M28.4874 114.51H26.1152C27.7908 118.186 28.5144 118.888 28.8619 118.789C29.2887 118.669 29.3395 117.282 29.2221 116.439C29.0967 115.536 28.727 114.873 28.4874 114.51Z" fill="#4D4D4D"/>
<path d="M28.4871 119.462H15.7139V120H28.4871V119.462Z" fill="black"/>
<path d="M22.9836 110.729C24.0276 110.729 24.8749 111.576 24.8749 112.62V114.511H21.0938V112.62C21.0938 111.576 21.9411 110.729 22.9851 110.729H22.9836Z" fill="#4D4D4D"/>
<path d="M26.5888 26.6079C23.7787 26.9173 23.866 29.8084 24.0453 31.9901C24.2611 34.8716 24.707 38.3133 27.3092 40.0301C27.9503 40.4411 28.6976 40.6807 29.4624 40.7679C29.4386 41.2884 29.4148 41.8088 29.3831 42.3293C29.3704 41.8231 29.364 41.3169 29.3593 40.8124L29.4053 40.8631C28.6389 40.8187 27.8725 40.6077 27.1997 40.2126C24.4452 38.5386 23.9168 34.9668 23.7549 32.0092C23.5963 29.7766 23.6708 26.7317 26.5888 26.6079Z" fill="white"/>
<path d="M9.0725 28.3882C7.06369 30.9095 5.94504 34.029 5.79589 37.2422C5.48806 34.0116 6.70985 30.6255 9.0725 28.3882Z" fill="white"/>
<path d="M23.4579 26.0529C20.3891 30.959 16.8079 33.2979 15.0974 32.4411C13.198 31.489 13.7693 26.6844 13.8359 26.156L14.6086 26.0735C14.5341 26.5955 13.9549 30.8623 15.4734 31.5763C16.7888 32.1951 19.518 30.0721 22.0536 26.0703C22.5217 26.064 22.9882 26.0576 23.4563 26.0513L23.4579 26.0529Z" fill="#39B54A" stroke="white" stroke-width="0.103019" stroke-miterlimit="10"/>
<path d="M38.9303 42.177L32.6691 45.7837L30.5635 42.1374C32.8166 40.8315 35.0698 39.5256 37.323 38.2197C37.8593 39.5383 38.394 40.8569 38.9303 42.177Z" fill="#39B54A"/>
<path d="M30.8206 10.2073C30.8396 11.0292 29.4957 11.6877 29.2989 12.4573C29.1022 13.2269 29.9638 14.455 29.5687 15.1579C29.1736 15.8608 27.682 15.7593 27.1251 16.3543C26.584 16.9335 26.7919 18.4171 26.1175 18.8788C25.4431 19.3406 24.15 18.6059 23.3963 18.9232C22.6426 19.2406 22.2744 20.6782 21.4715 20.8464C20.6687 21.0146 19.7547 19.8467 18.9312 19.8658C18.1077 19.8848 17.2159 21.0891 16.4384 20.9622C15.6609 20.8353 15.1674 19.4024 14.4264 19.1295C13.6854 18.8566 12.378 19.6278 11.7052 19.2104C11.0324 18.7931 11.1498 17.2889 10.5834 16.7351C10.0169 16.1814 8.50951 16.3289 8.08744 15.653C7.66536 14.977 8.46825 13.714 8.23183 12.9428C7.99541 12.1717 6.62764 11.5878 6.6086 10.7658C6.58956 9.94391 7.93352 9.28541 8.13028 8.51585C8.32703 7.74628 7.46544 6.51815 7.86053 5.81522C8.25563 5.1123 9.74716 5.21385 10.3041 4.61882C10.861 4.0238 10.6373 2.55607 11.3117 2.09433C11.986 1.63259 13.2792 2.36725 14.0329 2.0499C14.7866 1.73255 15.1548 0.294972 15.9576 0.126778C16.7605 -0.0414162 17.6745 1.12642 18.498 1.10738C19.3215 1.08834 20.2133 -0.117579 20.9908 0.00935936C21.7683 0.136298 22.2617 1.56912 23.0027 1.84204C23.7437 2.11496 25.0512 1.3438 25.724 1.76111C26.3968 2.17843 26.2794 3.68265 26.8458 4.23642C27.4123 4.79019 28.9197 4.64263 29.3417 5.31857C29.7638 5.99452 28.9609 7.25756 29.1974 8.02872C29.4338 8.79987 30.8015 9.38379 30.8206 10.2057V10.2073Z" fill="#42210B"/>
<path d="M22.0538 26.0702C19.469 30.0371 16.7795 32.1887 15.4736 31.5762C14.0201 30.8939 14.5231 26.9001 14.612 26.2432L14.4914 21.0244L21.9332 20.853L22.0538 26.0718V26.0702Z" fill="#C69C6D"/>
<path d="M22.0825 24.0533L14.4916 24.2279C12.724 24.2691 11.2562 22.7776 11.2134 20.8957L11.0277 12.8177C10.777 3.70821 24.7784 3.73677 25.0196 12.4955L25.2052 20.5736C25.2481 22.4539 23.8517 24.0121 22.0841 24.0533H22.0825Z" fill="#C69C6D"/>
<path d="M16.1143 15.0933C15.981 16.3214 15.8462 17.5511 15.7129 18.7792C16.2159 18.7316 16.7189 18.684 17.2219 18.6364" stroke="black" stroke-width="0.103019" stroke-miterlimit="10"/>
<path d="M12.1855 13.8774C13.0471 13.8759 13.9087 13.8743 14.7719 13.8711" stroke="black" stroke-width="0.103019" stroke-miterlimit="10"/>
<path d="M20.4544 13.6794C20.3814 13.6001 19.9356 13.1225 19.1993 13.1129C18.4615 13.1034 18.0013 13.5699 17.9268 13.6477" stroke="black" stroke-width="0.103019" stroke-miterlimit="10"/>
<path d="M27.6201 13.5398C27.5503 13.6492 26.695 12.7718 26.5744 12.8194C26.4808 12.8559 26.7934 14.0824 26.6569 14.1253C26.5585 14.157 26.0191 13.0003 25.8905 13.051C25.7906 13.0907 26.2047 14.295 26.0841 14.3553C25.9857 14.4045 25.2733 13.3478 25.1606 13.4144C24.9623 13.5318 25.4938 14.7028 25.3368 14.8218C25.1511 14.9631 24.161 14.1491 24.0229 14.2871C23.8547 14.4537 24.6592 15.4629 24.5402 15.612C24.3863 15.8056 23.2804 15.1741 23.1645 15.3121C22.9995 15.5105 23.3787 16.6783 23.1756 16.691C22.7345 16.7212 22.9773 15.3232 22.6742 14.5172C22.4902 14.0269 21.1129 13.8666 20.9034 13.2494C20.7178 12.7004 21.6889 11.6611 21.4413 11.1136C21.1938 10.5662 19.8181 10.6836 19.4595 10.2298C19.0819 9.75063 19.4008 8.38763 18.8565 8.13375C18.3155 7.88146 17.4888 8.99535 16.9112 9.00487C16.3336 9.01439 15.5688 7.8878 15.0087 8.06076C14.4486 8.23371 14.374 9.64115 13.8663 9.88868C13.303 10.1632 12.1938 9.33332 11.7464 9.58561C10.9102 10.0569 10.1247 11.3104 9.98193 11.112C9.83436 10.9074 11.1783 10.1457 11.8543 9.22542C12.2256 8.72084 11.7638 7.32927 12.3351 6.80248C12.8349 6.34232 14.1614 6.91038 14.7897 6.53115C15.4181 6.15192 15.5244 4.71751 16.2178 4.50965C16.9112 4.30178 17.7553 5.44423 18.49 5.45534C19.3833 5.46962 20.4877 4.44459 21.2906 4.77146C22.0935 5.09832 22.2268 6.65015 22.9122 7.18647C23.5977 7.72278 25.1257 7.46256 25.6636 8.11153C26.2698 8.8446 25.7049 10.2901 26.0524 10.9835C26.6093 12.0958 27.9009 13.1066 27.6217 13.5382L27.6201 13.5398Z" fill="#42210B"/>
<path d="M26.3634 15.6655C27.0395 14.5433 27.0102 13.2857 26.2978 12.8565C25.5855 12.4273 24.4599 12.9891 23.7838 14.1112C23.1077 15.2334 23.137 16.491 23.8494 16.9202C24.5617 17.3494 25.6872 16.7876 26.3634 15.6655Z" fill="#C69C6D"/>
<path d="M25.8842 14.8979C26.1222 14.4743 26.1064 13.8333 25.8461 13.7C25.5113 13.5286 24.8703 14.2537 24.8179 14.314C24.4228 14.7663 24.2864 15.2661 24.2324 15.5628C24.9607 15.6421 25.6097 15.3883 25.8842 14.8964V14.8979Z" fill="#754C24"/>
<path d="M18.2869 24.1565L22.0078 24.0708C22.0078 24.0803 22.0078 24.0867 22.0078 24.0898C22.0221 25.0244 18.2742 26.9079 15.9259 25.6115C15.2277 25.2259 14.8056 24.6452 14.5645 24.2231L18.2869 24.1565Z" fill="#A67C52"/>
<path d="M11.877 14.9385L15.5926 15.2511C15.5063 16.2773 14.603 17.0389 13.5785 16.9527C12.5523 16.8663 11.7907 15.9631 11.877 14.9385Z" fill="white"/>
<path d="M17.3994 15.2554L21.1149 14.9408C21.2018 15.9669 20.439 16.8691 19.4145 16.9558C18.3884 17.0427 17.4862 16.2799 17.3994 15.2554Z" fill="white"/>
<path d="M17.4727 20.6196C17.6996 20.6545 18.6564 20.7751 19.364 20.0515C19.7607 19.6453 19.9099 19.1471 19.9718 18.8662" stroke="black" stroke-width="0.103019" stroke-miterlimit="10"/>
<path d="M13.676 16.451C13.9371 16.451 14.1488 16.1512 14.1488 15.7814C14.1488 15.4116 13.9371 15.1118 13.676 15.1118C13.4148 15.1118 13.2031 15.4116 13.2031 15.7814C13.2031 16.1512 13.4148 16.451 13.676 16.451Z" fill="black"/>
<path d="M19.134 16.451C19.3951 16.451 19.6068 16.1512 19.6068 15.7814C19.6068 15.4116 19.3951 15.1118 19.134 15.1118C18.8728 15.1118 18.6611 15.4116 18.6611 15.7814C18.6611 16.1512 18.8728 16.451 19.134 16.451Z" fill="black"/>
</g>
<defs>
<clipPath id="clip0_20940_1161">
<rect width="43.0497" height="120" fill="white"/>
</clipPath>
</defs>
</svg>
