<svg width="27" height="26" viewBox="0 0 27 26" fill="none" xmlns="http://www.w3.org/2000/svg">
<path d="M25.8144 25C25.8144 25 21.2916 23.0006 18.1302 21.8318C16.0569 21.0593 16.3524 17.5621 17.5525 16.2477C19.6574 14.1858 20.6968 11.2705 20.3713 8.34198C20.7464 4.32957 17.5284 0.892471 13.5 1.00257C9.47025 0.893568 6.25226 4.33286 6.62863 8.34636C6.30468 11.2746 7.34408 14.1893 9.44744 16.2523C10.6476 17.5665 10.943 21.0639 8.86973 21.8362C5.70833 23.005 1.18555 25 1.18555 25" fill="#F2F2F2"/>
<path d="M25.8144 25C25.8144 25 21.2916 23.0006 18.1302 21.8318C16.0569 21.0593 16.3524 17.5621 17.5525 16.2477C19.6574 14.1858 20.6968 11.2705 20.3713 8.34198C20.7464 4.32957 17.5284 0.892471 13.5 1.00257C9.47025 0.893568 6.25226 4.33286 6.62863 8.34636C6.30468 11.2746 7.34408 14.1893 9.44744 16.2523C10.6476 17.5665 10.943 21.0639 8.86973 21.8362C5.70833 23.005 1.18555 25 1.18555 25" stroke="#191919" stroke-linecap="round" stroke-linejoin="round"/>
</svg>
