<svg width="358" height="12" viewBox="0 0 358 12" fill="none" xmlns="http://www.w3.org/2000/svg">
<rect width="358" height="7" rx="3.5" fill="#FD6C22"/>
<ellipse cx="25.5" cy="6" rx="24.5" ry="6" fill="#FD6C22"/>
<ellipse cx="25.5" cy="8.14286" rx="7.5" ry="2.14286" fill="#FEA679"/>
<ellipse cx="71.5" cy="6" rx="24.5" ry="6" fill="#FD6C22"/>
<ellipse cx="71.5" cy="8.14286" rx="7.5" ry="2.14286" fill="#FEA679"/>
<ellipse cx="117.5" cy="6" rx="24.5" ry="6" fill="#FD6C22"/>
<ellipse cx="117.5" cy="8.14286" rx="7.5" ry="2.14286" fill="#FEA679"/>
<ellipse cx="163.5" cy="6" rx="24.5" ry="6" fill="#FD6C22"/>
<ellipse cx="163.5" cy="8.14286" rx="7.5" ry="2.14286" fill="#FEA679"/>
<ellipse cx="209.5" cy="6" rx="24.5" ry="6" fill="#FD6C22"/>
<ellipse cx="209.5" cy="8.14286" rx="7.5" ry="2.14286" fill="#FEA679"/>
<ellipse cx="255.5" cy="6" rx="24.5" ry="6" fill="#FD6C22"/>
<ellipse cx="255.5" cy="8.14286" rx="7.5" ry="2.14286" fill="#FEA679"/>
<ellipse cx="301.5" cy="6" rx="24.5" ry="6" fill="#FD6C22"/>
<ellipse cx="301.5" cy="8.14286" rx="7.5" ry="2.14286" fill="#FEA679"/>
<ellipse cx="340.5" cy="6" rx="17.5" ry="6" fill="#FD6C22"/>
<ellipse cx="342.5" cy="8.14286" rx="7.5" ry="2.14286" fill="#FEA679"/>
</svg>
