<svg width="67" height="67" viewBox="0 0 67 67" fill="none" xmlns="http://www.w3.org/2000/svg">
<g clip-path="url(#clip0_20961_2378)">
<path d="M39.5295 60.5281C43.4997 58.9273 46.061 55.9998 45.2504 53.9894C44.4398 51.979 40.5642 51.6471 36.594 53.2479C32.6238 54.8487 30.0624 57.7762 30.873 59.7866C31.6836 61.797 35.5593 62.129 39.5295 60.5281Z" fill="#6B706C"/>
<path d="M16.1182 55.0592C16.7726 48.2776 17.3561 42.8569 17.64 38.9649C17.7733 37.1228 18.0624 33.7848 20.1227 30.897C20.2854 30.6685 20.4516 30.4763 20.623 30.2928C24.2224 26.4735 30.211 26.8215 33.5715 31.0442C33.7221 31.2346 33.8658 31.4303 34.0078 31.6588C35.7218 34.4531 35.9573 37.3894 36.0559 39.1381C36.2637 42.7738 36.6134 48.2447 36.8368 55.1042C34.013 55.4782 30.8932 55.7344 27.5206 55.7725C23.3239 55.8192 19.4977 55.5214 16.1199 55.0592H16.1182Z" fill="#6B706C"/>
<path d="M21.7674 29.1879C21.9856 31.288 22.0704 34.5861 21.0766 38.4348C20.0119 42.564 18.1611 45.5609 16.8817 47.3165C16.6272 49.8978 16.3727 52.4775 16.1182 55.0589C22.801 55.206 29.4822 55.3532 36.165 55.5004C36.2343 52.6524 36.3018 49.8026 36.371 46.9546C35.2613 45.8899 32.6747 43.125 31.5788 38.6582C30.5279 34.3766 31.4195 30.8673 31.8835 29.3957C31.7138 29.2675 31.5286 29.1377 31.326 29.0078C31.0438 28.8278 30.7737 28.6772 30.5209 28.5508C29.9132 30.5037 29.3056 32.4566 28.6979 34.4078C27.3353 34.3818 25.9711 34.3576 24.6085 34.3316C24.0285 32.4133 23.4485 30.4968 22.8685 28.5785C22.4998 28.781 22.131 28.9836 21.764 29.1879H21.7674Z" fill="#D5D7D5"/>
<path d="M25.9006 23.3242H27.0554C27.9332 23.3242 28.6465 24.0375 28.6465 24.9153V28.1788C28.6465 29.0566 27.9332 29.7699 27.0554 29.7699H25.9006C25.0229 29.7699 24.3096 29.0566 24.3096 28.1788V24.9153C24.3096 24.0375 25.0229 23.3242 25.9006 23.3242Z" fill="#D5D7D5"/>
<path d="M35.9123 58.3852L35.644 60.4057C35.3981 62.2582 33.6963 63.5601 31.8438 63.3143L7.56732 60.0923C5.71481 59.8465 4.41287 58.1446 4.65871 56.2921L4.92707 54.2716C5.17291 52.4191 6.90249 50.2134 8.75499 50.4593L32.8081 55.7761C34.6606 56.022 36.1599 56.531 35.9141 58.3835L35.9123 58.3852Z" fill="#D5D7D5"/>
<path d="M29.8632 58.6587C31.4959 58.7885 33.1285 58.9184 34.7594 59.0482C37.1711 59.4257 38.4332 61.6573 37.9606 63.1826C37.616 64.2958 36.3141 65.139 34.7871 65.1563C33.0679 64.6231 31.347 64.0898 29.6278 63.5566C29.375 63.5635 28.7742 63.5479 28.1562 63.1618C27.3321 62.6476 27.0568 61.8339 26.9893 61.6158C26.991 61.344 27.0325 60.5181 27.6212 59.7667C28.447 58.7124 29.678 58.6656 29.8598 58.6604L29.8632 58.6587Z" fill="#404341"/>
<path d="M5.55641 27.2647C9.77908 29.524 5.93903 41.2346 8.44424 42.1695C11.242 43.2135 18.5482 29.5587 20.4249 30.5143C20.5738 30.5905 20.7435 30.7844 20.7902 31.425C21.1261 35.9801 14.161 48.2551 7.60109 46.8406C1.03077 45.4244 -1.90034 30.6979 1.78389 27.6369C2.72918 26.8526 4.36008 26.6241 5.55641 27.2647Z" fill="#6B706C"/>
<path d="M14.4163 66.0824C12.7352 66.0218 11.0541 65.9612 9.37299 65.8989C6.87644 65.582 5.42733 62.9383 5.80303 61.0547C6.07658 59.68 7.35082 58.5754 8.9142 58.4629C10.713 59.01 12.5119 59.5571 14.3107 60.1042C14.5687 60.0799 15.1867 60.0644 15.8446 60.4972C16.7241 61.0754 17.0652 62.0484 17.1483 62.3116C17.1656 62.6423 17.1812 63.6516 16.6306 64.6004C15.8585 65.9318 14.6016 66.0633 14.4146 66.0789L14.4163 66.0824Z" fill="#404341"/>
<path d="M45.2635 48.9788L46.1586 51.2399C47.1766 53.8144 46.2123 56.6087 44.0049 57.4813L20.7326 65.1337C18.5251 66.0062 16.2312 66.0495 15.2131 63.4751C14.1951 60.9006 15.4157 59.4134 17.6231 58.5408L42.258 47.3929C43.3937 46.9428 44.7407 47.6544 45.2652 48.9788H45.2635Z" fill="#D5D7D5"/>
<path opacity="0.32" d="M24.1013 58.5668C27.1675 56.3542 30.2336 54.1433 33.2998 51.9307C34.8857 54.171 34.2486 57.3843 32.01 59.1987C29.5757 61.1741 25.8915 60.9698 24.0996 58.5668H24.1013Z" fill="#6B706C"/>
<path d="M22.596 57.4153C21.623 53.5614 33.647 51.0077 34.3239 44.2123C34.7152 40.284 31.263 35.4467 32.0992 30.5246C32.1529 30.2078 32.2238 29.8909 32.4229 29.8338C33.6297 29.4823 40.361 38.3917 38.3908 47.1608C36.7374 54.5154 29.1906 60.7706 24.8935 59.4202C24.6649 59.3475 22.9388 58.7813 22.5943 57.417L22.596 57.4153Z" fill="#6B706C"/>
<path d="M21.5352 56.9624L23.7402 60.0469L24.7881 59.2978L22.5831 56.2133L21.5352 56.9624Z" fill="#6B706C"/>
<path d="M4.19017 16.4524C4.19017 15.9399 3.77509 15.5244 3.26305 15.5244C2.75102 15.5244 2.33594 15.9399 2.33594 16.4524V20.353C2.33594 20.8656 2.75102 21.281 3.26305 21.281C3.77509 21.281 4.19017 20.8656 4.19017 20.353V16.4524Z" fill="#D5D7D5"/>
<path d="M7.57952 18.1975C7.79968 17.7347 7.60331 17.1812 7.14093 16.9612C6.67855 16.7413 6.12524 16.9382 5.90508 17.401L4.52401 20.3043C4.30385 20.7671 4.50022 21.3206 4.9626 21.5405C5.42498 21.7605 5.97829 21.5636 6.19845 21.1008L7.57952 18.1975Z" fill="#D5D7D5"/>
<path d="M3.26179 26.589C5.06323 26.589 6.52358 25.1287 6.52358 23.3272C6.52358 21.5258 5.06323 20.0654 3.26179 20.0654C1.46035 20.0654 0 21.5258 0 23.3272C0 25.1287 1.46035 26.589 3.26179 26.589Z" fill="#D5D7D5"/>
<path d="M5.43051 25.9825L1.65723 26.3545L1.78359 27.6364L5.55688 27.2644L5.43051 25.9825Z" fill="#6B706C"/>
<path d="M22.242 47.4097C19.252 49.3314 17.4861 52.292 17.822 55.1452C17.8999 55.8134 18.1353 56.8315 18.8919 57.9637" stroke="#404341" stroke-width="3.11628" stroke-miterlimit="10"/>
<path d="M18.9797 55.8378L16.9713 57.2736C16.3599 57.7106 16.2186 58.5606 16.6556 59.172L18.0914 61.1804C18.5285 61.7918 19.3784 61.9331 19.9898 61.496L21.9983 60.0603C22.6097 59.6232 22.751 58.7732 22.3139 58.1619L20.8781 56.1534C20.4411 55.542 19.5911 55.4007 18.9797 55.8378Z" fill="#D5D7D5"/>
<path d="M19.3704 22.1975C18.4736 22.3983 17.9299 24.7771 18.593 26.6366C19.1782 28.2796 20.5581 29.1106 21.0757 29.3894C20.8801 30.068 20.4352 31.9552 21.3787 33.799C21.8756 34.7703 23.0529 36.3008 23.993 36.0393C24.8777 35.7935 25.314 34.0293 24.9193 32.6927C24.412 30.9718 22.646 30.3624 22.4452 30.2966C22.6478 29.2578 22.8936 27.1854 21.9189 25.0265C21.4341 23.9513 20.2586 21.9967 19.3704 22.1958V22.1975Z" fill="#404341"/>
<path d="M33.0086 21.5064C32.9895 22.5746 34.3971 23.7935 36.6495 23.9683C36.9144 25.5092 37.974 26.6207 39.1634 26.7402C39.9355 26.8181 40.5623 26.4545 40.8462 26.2589C41.0349 26.6588 42.4321 29.5068 44.9737 29.7526C46.0505 29.8565 47.6935 29.5276 47.9325 28.6498C48.1212 27.9573 47.3559 27.2076 47.1482 27.005C45.6367 25.523 43.1869 25.9663 42.7004 26.0649C43.0381 24.9569 42.6035 23.7554 41.6495 23.1321C40.7371 22.5365 39.5287 22.585 38.6526 23.2585C37.6745 20.7758 35.8427 19.486 34.5113 19.8201C33.7634 20.0071 33.0207 20.7464 33.0068 21.5081L33.0086 21.5064Z" fill="#404341"/>
<path d="M24.1865 25.5074C25.7343 25.5004 27.2804 25.4918 28.8282 25.4849C28.823 26.7453 27.8465 27.7771 26.6692 27.8568C25.3881 27.9451 24.2108 26.8838 24.1865 25.5074Z" fill="#6B706C"/>
<path d="M22.1328 10.3465L30.9659 10.4434C33.0227 10.4659 34.6761 11.8302 34.6571 13.4923L34.5792 20.6287C34.5393 28.6759 18.2581 28.1876 18.2979 20.4504L18.3758 13.3139C18.3949 11.6519 20.076 10.324 22.1328 10.3465Z" fill="#D5D7D5"/>
<path d="M26.0106 10.2966C21.6893 11.6401 19.7086 13.6363 18.7045 15.2758C18.05 16.344 17.7609 17.3413 17.4666 17.2789C16.897 17.1612 16.3049 13.0978 18.3513 10.0594C20.7388 6.51365 25.2938 6.48421 26.2201 6.47902C26.9576 6.47383 31.9888 6.44266 34.4421 10.281C36.421 13.3783 35.6869 17.3742 35.2091 17.4573C34.9719 17.4988 34.939 16.5501 34.0474 15.6169C32.7333 14.2405 31.1786 14.5954 29.404 13.773C28.4327 13.3229 27.1429 12.4053 26.0123 10.2983L26.0106 10.2966Z" fill="#404341"/>
<path d="M26.0465 7.05307C25.2916 7.07385 22.1511 7.16388 20.0354 9.35225C17.3276 12.1518 18.0963 16.5233 17.7795 16.513C17.4679 16.5026 16.1815 12.2643 18.3526 8.98002C20.6933 5.4343 25.4682 5.40486 26.2214 5.39967C27.2013 5.39275 32.139 5.49836 34.4434 9.20163C36.5244 12.5465 35.1792 16.7692 34.8 16.7796C34.388 16.79 35.2311 11.835 32.1788 8.99907C29.9662 6.94227 26.8152 7.0323 26.05 7.0548L26.0465 7.05307Z" fill="#6B706C" stroke="black" stroke-width="0.389535" stroke-miterlimit="10"/>
<path d="M36.8957 17.9484C36.8974 18.1076 36.9009 20.2683 35.592 20.8431C35.4674 20.8985 34.993 21.1063 34.5723 20.9072C33.8434 20.5661 33.8451 19.2849 33.8468 18.1232C33.8486 16.9286 33.8503 15.5453 34.6415 15.1835C35.0692 14.9878 35.5297 15.1817 35.637 15.2267C36.8403 15.7305 36.894 17.6731 36.8974 17.9449L36.8957 17.9484Z" fill="#404341"/>
<path d="M16.1189 18.2894C16.1172 18.1302 16.1137 15.9695 17.4226 15.3947C17.5473 15.3393 18.0216 15.1315 18.4423 15.3306C19.1712 15.6717 19.1695 16.9529 19.1678 18.1146C19.166 19.3092 19.1643 20.6925 18.3731 21.0543C17.9455 21.25 17.4849 21.0561 17.3776 21.0111C16.1743 20.5072 16.1207 18.5647 16.1172 18.2929L16.1189 18.2894Z" fill="#404341"/>
<path d="M29.5915 16.2637H31.5998C31.6604 16.2637 31.7106 16.3139 31.7106 16.3745V17.2696C31.7106 18.0313 31.0925 18.6494 30.3307 18.6494H28.1753C28.1147 18.6494 28.0645 18.5992 28.0645 18.5386V17.789C28.0645 16.9475 28.7483 16.2637 29.5897 16.2637H29.5915Z" fill="white"/>
<path d="M24.7054 18.6499H22.5499C21.7881 18.6499 21.17 18.0318 21.17 17.27V16.375C21.17 16.3144 21.2203 16.2642 21.2808 16.2642H23.2892C24.1306 16.2642 24.8145 16.948 24.8145 17.7894V18.5391C24.8145 18.5997 24.7642 18.6499 24.7036 18.6499H24.7054Z" fill="white"/>
<path d="M25.7923 17.7441C25.7732 18.7777 25.7524 19.8096 25.7334 20.8432C26.2043 20.7255 26.677 20.6077 27.1479 20.49" stroke="black" stroke-width="1.55814" stroke-miterlimit="10"/>
<path d="M30.6402 22.1847C30.4653 22.5241 30.1606 23.0002 29.655 23.4399C28.708 24.2606 27.6519 24.4233 27.2191 24.4649C26.6097 24.6449 26.0089 24.4424 25.7579 24.0234C25.4774 23.5542 25.7094 22.9326 26.021 22.5985C26.6027 21.9735 27.3489 22.4808 28.1055 21.8765C28.7565 21.3572 28.5418 20.7148 29.1737 20.4274C29.5789 20.2439 30.2229 20.2543 30.5986 20.6906C30.931 21.0767 30.9605 21.6896 30.6402 22.183V22.1847Z" fill="white"/>
<path d="M21.1719 16.2637H23.7706C24.2813 16.2637 24.6968 16.6792 24.6968 17.1899H21.1736V16.2637H21.1719Z" fill="black"/>
<path d="M31.7121 17.1904H28.2028C28.2028 16.6797 28.6183 16.2642 29.129 16.2642H31.7139V17.1904H31.7121Z" fill="black"/>
<path d="M22.9941 18.6496C23.1585 18.6496 23.2919 18.3248 23.2919 17.9242C23.2919 17.5235 23.1585 17.1987 22.9941 17.1987C22.8296 17.1987 22.6963 17.5235 22.6963 17.9242C22.6963 18.3248 22.8296 18.6496 22.9941 18.6496Z" fill="black" stroke="black" stroke-width="1.55814" stroke-miterlimit="10"/>
<path d="M29.8886 18.6496C30.0531 18.6496 30.1864 18.3248 30.1864 17.9242C30.1864 17.5235 30.0531 17.1987 29.8886 17.1987C29.7241 17.1987 29.5908 17.5235 29.5908 17.9242C29.5908 18.3248 29.7241 18.6496 29.8886 18.6496Z" fill="black" stroke="black" stroke-width="1.55814" stroke-miterlimit="10"/>
<path d="M30.4961 20.3756C31.0937 20.3756 31.5782 19.8911 31.5782 19.2935C31.5782 18.6959 31.0937 18.2114 30.4961 18.2114C29.8985 18.2114 29.4141 18.6959 29.4141 19.2935C29.4141 19.8911 29.8985 20.3756 30.4961 20.3756Z" fill="#D5D7D5"/>
<path d="M30.7229 38.6597C30.7229 42.3526 28.7025 45.3927 26.2457 45.3927C23.789 45.3927 21.7686 42.3543 21.7686 38.6597H30.7229Z" fill="#6B706C"/>
<path d="M26.693 39.6121C26.6947 40.3878 26.9475 41.0197 27.1639 41.4387C26.6739 41.43 25.3373 41.3383 24.2206 40.3462C23.7601 39.9359 22.8131 39.0997 22.9793 37.9536C23.1022 37.1 23.8069 36.1547 24.8578 36.0751C25.8741 35.9989 26.7657 36.7641 26.9561 37.5207C27.131 38.215 26.6878 38.5612 26.6912 39.6139L26.693 39.6121Z" fill="#404341"/>
<path d="M51.9889 30.1992C52.7229 30.7359 53.7721 30.1074 53.876 30.3342C54.0162 30.6424 52.342 32.3373 50.3251 32.1694C49.9615 32.1382 48.5193 32.0188 47.9739 30.8501C47.6086 30.0693 47.6779 28.892 48.5124 28.248C49.3192 27.6264 50.4843 27.7771 51.0609 28.3034C51.7101 28.8989 51.3361 29.7213 51.9871 30.1974L51.9889 30.1992Z" fill="#404341"/>
<path d="M24.8271 35.4856L23.1391 36.1605C22.9695 36.2282 22.887 36.4207 22.9548 36.5903L22.9554 36.5919C23.0232 36.7614 23.2156 36.844 23.3852 36.7762L25.0732 36.1014C25.2428 36.0336 25.3253 35.8411 25.2575 35.6716L25.2569 35.67C25.1891 35.5004 24.9967 35.4179 24.8271 35.4856Z" fill="#999999"/>
<path d="M48.0205 27.8259L47.2422 29.4687C47.164 29.6338 47.2344 29.831 47.3994 29.9092L47.401 29.9099C47.566 29.9881 47.7632 29.9177 47.8414 29.7526L48.6197 28.1098C48.6979 27.9448 48.6275 27.7476 48.4625 27.6694L48.4609 27.6687C48.2959 27.5905 48.0987 27.6609 48.0205 27.8259Z" fill="#999999"/>
<path d="M23.4389 44.9494C23.5099 45.6211 23.1152 47.1031 22.4417 47.1724C21.7682 47.2416 21.0739 45.8773 21.003 45.2056C20.932 44.5339 21.4202 43.9314 22.0919 43.8604C22.7637 43.7894 23.3662 44.2776 23.4372 44.9494H23.4389Z" fill="#D5D7D5"/>
<path d="M23.8797 49.1408C23.8087 48.4691 23.1144 47.1031 22.441 47.174C21.7692 47.245 21.3727 48.7253 21.4437 49.3971C21.5147 50.0688 22.1172 50.557 22.7889 50.486C23.4607 50.4151 23.9489 49.8126 23.8779 49.1408H23.8797Z" fill="#D5D7D5"/>
<path d="M24.6669 48.1691C23.9952 48.2401 22.5132 47.8454 22.4439 47.1736C22.3747 46.5019 23.739 45.8059 24.4107 45.7349C25.0825 45.6639 25.685 46.1521 25.7559 46.8239C25.8269 47.4956 25.3387 48.0981 24.6669 48.1691Z" fill="#D5D7D5"/>
<path d="M20.4751 48.6111C21.1469 48.5401 22.5129 47.8459 22.4419 47.1724C22.3709 46.5007 20.8906 46.1042 20.2189 46.1752C19.5471 46.2461 19.0589 46.8486 19.1299 47.5204C19.2009 48.1921 19.8034 48.6804 20.4751 48.6094V48.6111Z" fill="#D5D7D5"/>
<path d="M23.4774 47.0652C23.5379 47.6365 23.1224 48.149 22.5528 48.2078C21.9815 48.2684 21.469 47.8529 21.4102 47.2833C21.3496 46.712 21.7651 46.1995 22.3347 46.1407C22.906 46.0801 23.4185 46.4938 23.4774 47.0652Z" fill="#6B706C"/>
<path d="M62.6977 41.9942L61.6225 41.4852C59.912 40.6749 57.8691 41.4038 57.0588 43.1143L56.5498 44.1895L57.6509 44.7106C59.3476 45.5139 61.3732 44.7903 62.1766 43.0953L62.6977 41.9942Z" fill="#6B706C"/>
<path d="M5.82031 4.01662L6.99241 4.22092C8.85703 4.54467 10.6316 3.2964 10.9554 1.43178C11.0679 0.784267 10.6351 0.169652 9.98758 0.0571168L9.95988 0.0519228C8.11084 -0.26837 6.35183 0.969518 6.0298 2.81856L5.82204 4.01836L5.82031 4.01662Z" fill="#6B706C"/>
<path d="M40.2385 42.8018L39.0508 42.8658C37.162 42.9662 35.7111 44.5815 35.8116 46.4704C35.8462 47.1266 36.4071 47.6287 37.0633 47.594H37.0927C38.966 47.4919 40.4047 45.8921 40.3043 44.0171L40.2385 42.8018Z" fill="#6B706C"/>
<path d="M66.9994 16.2587L66.8245 16.0838C65.4862 14.7455 63.3169 14.7455 61.9786 16.0838L61.8037 16.2587L61.9993 16.4543C63.3255 17.7805 65.4776 17.7805 66.8055 16.4543L67.0011 16.2587H66.9994Z" fill="#404341"/>
<path d="M26.0109 10.2959C25.1158 10.5798 23.0435 11.3762 21.4749 13.4469C20.7218 14.4424 20.3166 15.4275 20.0898 16.1581" stroke="#404341" stroke-width="1.55814" stroke-miterlimit="10"/>
<path d="M24.9371 15.5989C24.5372 15.3877 23.7564 15.0466 22.7262 15.0397C22.0043 15.0345 21.4226 15.1955 21.0469 15.334" stroke="black" stroke-width="1.55814" stroke-miterlimit="10"/>
<path d="M27.9443 15.5989C28.3443 15.3877 29.1251 15.0466 30.1552 15.0397C30.8772 15.0345 31.4589 15.1955 31.8346 15.334" stroke="black" stroke-width="1.55814" stroke-miterlimit="10"/>
<path d="M34.0506 15.9401C33.4862 15.9608 29.551 16.0387 27.2206 13.0903C26.4554 12.1225 26.0866 11.1132 25.9014 10.3462" stroke="#404341" stroke-width="1.55814" stroke-miterlimit="10"/>
<path d="M24.3084 27.9901C24.1682 28.0369 24.0279 28.0836 23.8877 28.1303C23.8929 28.3797 23.9414 29.1587 24.5283 29.7076C25.0771 30.2218 25.7714 30.2304 26.4345 30.2391C27.0664 30.2477 27.6689 30.2547 28.2073 29.8409C29.0141 29.2211 29.0349 28.1511 29.0366 27.9693C28.9068 27.9347 28.7752 27.9001 28.6453 27.8672C28.6609 28.0542 28.6973 28.7519 28.2246 29.2626C27.7606 29.7647 27.0975 29.7699 26.4881 29.7734C25.8891 29.7768 25.2277 29.782 24.7568 29.2886C24.3101 28.8229 24.3032 28.1944 24.3084 27.9918V27.9901Z" fill="#404341"/>
<path d="M26.0439 9.396C27.4602 11.8094 28.8331 12.6751 29.8511 13.0092C30.322 13.1633 31.3625 13.4144 32.6991 14.119C33.3068 14.4393 33.7812 14.7509 34.0876 14.9656" stroke="#404341" stroke-width="1.55814" stroke-miterlimit="10"/>
<path d="M26.3877 8.8042C26.8274 9.48287 27.6342 10.5372 28.9604 11.4289C29.9282 12.0798 30.851 12.4278 31.5245 12.6217" stroke="#404341" stroke-width="1.55814" stroke-miterlimit="10"/>
<path d="M33.8924 12.1278C33.5219 11.4093 32.8241 10.2805 31.5914 9.26076C30.6929 8.51803 29.8082 8.08001 29.1572 7.82031" stroke="#404341" stroke-width="1.55814" stroke-miterlimit="10"/>
<path d="M34.4654 15.2682C34.2732 14.4822 33.8577 13.2235 32.8951 11.9441C32.1939 11.0109 31.4373 10.379 30.8643 9.97559" stroke="#404341" stroke-width="1.55814" stroke-miterlimit="10"/>
<path d="M25.7574 9.97559C24.9558 10.0812 23.6591 10.3599 22.2827 11.1771C21.2803 11.7727 20.5687 12.4583 20.1064 12.9829" stroke="#404341" stroke-width="1.55814" stroke-miterlimit="10"/>
<path d="M25.4576 9.396C24.6508 9.44967 23.3384 9.64184 21.9118 10.369C20.8731 10.8988 20.1182 11.5359 19.623 12.0293" stroke="#404341" stroke-width="1.55814" stroke-miterlimit="10"/>
<path d="M25.8753 7.44668C25.413 7.41898 22.3642 7.2822 20.1654 9.61774C18.8427 11.0218 18.4878 12.6216 18.377 13.3158" stroke="#404341" stroke-width="1.55814" stroke-miterlimit="10"/>
<path d="M34.2217 22.9224C34.4381 23.0366 34.6805 23.1509 34.9506 23.253C35.5981 23.5006 36.1954 23.6062 36.6749 23.6512" stroke="#404341" stroke-width="1.55814" stroke-miterlimit="10"/>
<path d="M38.2657 23.8506C38.1982 23.4593 38.0493 22.8793 37.6909 22.2595C37.2131 21.4319 36.5968 20.9385 36.2314 20.6909" stroke="#404341" stroke-width="1.55814" stroke-miterlimit="10"/>
<path d="M37.948 25.5664C38.4328 26.1412 39.0335 26.6208 39.7053 26.967L39.6689 27.0398C38.9729 26.716 38.3393 26.252 37.8164 25.6807L37.9463 25.5664H37.948Z" fill="#404341"/>
<path d="M48.1836 29.2578C48.2251 29.4933 48.3446 29.9884 48.7411 30.4593C49.2657 31.0791 49.934 31.2523 50.1556 31.299" stroke="#404341" stroke-width="1.55814" stroke-miterlimit="10"/>
<path d="M34.8604 21.5254C34.8759 21.6483 34.9521 22.1625 35.4074 22.5486C35.9563 23.0126 36.6124 22.9139 36.7077 22.8966" stroke="#404341" stroke-width="1.55814" stroke-miterlimit="10"/>
<path d="M37.6846 24.0566C37.7313 24.2246 38.0204 25.2184 39.0108 25.7066C39.5942 25.994 40.143 25.9697 40.3958 25.942" stroke="#404341" stroke-width="1.55814" stroke-miterlimit="10"/>
<path d="M43.0468 25.2944C42.4668 24.008 41.0679 23.1995 39.6673 23.293L39.6621 23.1199C41.0991 23.0818 42.5067 23.9543 43.0468 25.2944Z" fill="#404341"/>
<path d="M42.1338 27.2095C42.2221 27.4259 42.7363 28.624 44.1075 29.1832C45.4839 29.7458 46.6923 29.2472 46.907 29.1537" stroke="#404341" stroke-width="1.55814" stroke-miterlimit="10"/>
<path d="M41.9355 26.3086C42.152 26.4229 42.3943 26.5371 42.6644 26.6393C43.3119 26.8868 43.9092 26.9925 44.3888 27.0375" stroke="#404341" stroke-width="1.55814" stroke-miterlimit="10"/>
<path d="M19.0913 23.6041C18.5251 24.5823 18.3156 25.7527 18.4749 26.8728L18.4057 26.8832C18.2083 25.7457 18.3883 24.5407 18.9389 23.521L19.0913 23.6041Z" fill="#404341"/>
<path d="M21.5566 33.4873C21.6415 33.766 21.8077 34.1833 22.1314 34.6144C22.4656 35.0593 22.8343 35.3381 23.0819 35.4991" stroke="#404341" stroke-width="1.55814" stroke-miterlimit="10"/>
<path d="M23.3912 37.5537C23.3375 37.784 23.2925 38.1198 23.3686 38.5042C23.5747 39.5499 24.4871 40.0728 24.6498 40.1611" stroke="#404341" stroke-width="1.55814" stroke-miterlimit="10"/>
<path d="M19.5059 27.4136C19.6513 27.6109 19.8227 27.817 20.0218 28.0265C20.5014 28.5285 20.9931 28.88 21.4068 29.1258" stroke="#404341" stroke-width="1.55814" stroke-miterlimit="10"/>
<path d="M24.7265 33.558C24.6884 33.2307 24.5551 32.4655 23.9664 31.7401C23.5163 31.1861 22.9986 30.9021 22.7061 30.7671" stroke="#404341" stroke-width="1.55814" stroke-miterlimit="10"/>
<path d="M21.2692 30.4795C21.219 30.779 21.1844 31.2032 21.2692 31.6949C21.4302 32.6263 21.9254 33.2531 22.1747 33.5301" stroke="#404341" stroke-width="1.55814" stroke-miterlimit="10"/>
<path d="M22.2431 29.4196C22.2795 29.0006 22.2916 28.2198 21.9505 27.3317C21.6545 26.563 21.2199 26.0401 20.9395 25.751" stroke="#404341" stroke-width="1.55814" stroke-miterlimit="10"/>
<path d="M27.1711 37.4635C26.5825 36.8939 25.7809 36.5649 24.9775 36.5511L24.9845 36.3779C25.8311 36.4316 26.6413 36.8142 27.2144 37.4202L27.1694 37.4635H27.1711Z" fill="#404341"/>
<path d="M23.1084 33.29C23.3681 33.5636 23.7421 34.031 23.9862 34.7028C24.1281 35.0923 24.1887 35.4473 24.2147 35.7277" stroke="#404341" stroke-width="1.55814" stroke-miterlimit="10"/>
<path d="M7.60036 46.8404C7.62633 46.6673 7.69039 46.4301 7.86179 46.2171C8.24095 45.7479 8.90058 45.7098 9.14296 45.6873C10.1835 45.5869 11.018 45.0364 12.4879 44.0668C13.4834 43.4107 14.349 42.8393 15.0952 41.8421C15.3272 41.5322 15.7116 40.9643 16.4508 40.5904C16.8715 40.3774 17.268 40.2995 17.5398 40.2666C16.9321 41.2742 16.0353 42.5346 14.742 43.7881C13.2583 45.2268 12.2108 45.8466 11.9477 45.992C10.4691 46.8006 9.4217 46.9027 9.13084 46.9235C8.49718 46.972 7.96567 46.9096 7.59863 46.8439L7.60036 46.8404Z" fill="#404341"/>
</g>
<defs>
<clipPath id="clip0_20961_2378">
<rect width="67" height="66.0824" fill="white"/>
</clipPath>
</defs>
</svg>
