<svg width="24" height="24" viewBox="0 0 24 24" fill="none" xmlns="http://www.w3.org/2000/svg">
<path d="M11.3282 2.53317C11.3902 2.40511 11.4871 2.2971 11.6077 2.22157C11.7281 2.14605 11.8676 2.10596 12.0099 2.10596C12.1521 2.10596 12.2915 2.14605 12.412 2.22157C12.5326 2.2971 12.6295 2.40511 12.6915 2.53317L15.4922 8.19517L21.7691 9.10394C21.9092 9.12427 22.0407 9.18346 22.1488 9.27485C22.257 9.36614 22.3374 9.48584 22.3809 9.62065C22.4245 9.75526 22.4294 9.89947 22.3952 10.0367C22.361 10.1741 22.2889 10.299 22.1872 10.3976L17.6431 14.7902L18.7154 21.0005C18.7394 21.1396 18.724 21.2826 18.6709 21.4134C18.6179 21.5441 18.5293 21.6576 18.4152 21.7407C18.3013 21.8239 18.1662 21.8735 18.0255 21.884C17.8848 21.8945 17.744 21.8656 17.6188 21.8003L12.0083 18.8708L6.38719 21.8078C6.26208 21.8732 6.12119 21.9021 5.9805 21.8916C5.8398 21.8811 5.70481 21.8315 5.59071 21.7483C5.47671 21.6652 5.38817 21.5517 5.33516 21.421C5.28215 21.2902 5.26667 21.1472 5.29061 21.0081L6.36306 14.7978L1.81883 10.4052C1.71718 10.3066 1.64517 10.1817 1.61088 10.0443C1.57668 9.90707 1.58152 9.76286 1.62503 9.62825C1.66864 9.49344 1.74901 9.37374 1.85712 9.28245C1.96532 9.19106 2.0969 9.13187 2.23693 9.11154L8.51538 8.20277L11.3282 2.53317Z" fill="#4fc3f7"/>
<path d="M12.0083 18.871L6.38719 21.808C6.26208 21.8734 6.12119 21.9022 5.9805 21.8918C5.8398 21.8812 5.70481 21.8316 5.59071 21.7485C5.47671 21.6654 5.38817 21.5519 5.33516 21.4212C5.28215 21.2903 5.26667 21.1474 5.29061 21.0083L6.36306 14.7979L1.81883 10.4053C1.71718 10.3068 1.64517 10.1819 1.61088 10.0445C1.57668 9.90725 1.58152 9.76304 1.62503 9.62842C1.66864 9.49362 1.74901 9.37392 1.85712 9.28262C1.96532 9.19123 2.0969 9.13205 2.23693 9.11172L8.51538 8.20295L11.3237 2.54247C11.3854 2.41336 11.4826 2.30449 11.6037 2.2284C11.725 2.15221 11.8652 2.11202 12.0083 2.11231V18.871Z" fill="#FFD3BC"/>
<path d="M11.3282 2.53317C11.3902 2.40511 11.4871 2.2971 11.6077 2.22157C11.7281 2.14605 11.8676 2.10596 12.0099 2.10596C12.1521 2.10596 12.2915 2.14605 12.412 2.22157C12.5326 2.2971 12.6295 2.40511 12.6915 2.53317L15.4922 8.19517L21.7691 9.10394C21.9092 9.12427 22.0407 9.18346 22.1488 9.27485C22.257 9.36614 22.3374 9.48584 22.3809 9.62065C22.4245 9.75526 22.4294 9.89947 22.3952 10.0367C22.361 10.1741 22.2889 10.299 22.1872 10.3976L17.6431 14.7902L18.7154 21.0005C18.7394 21.1396 18.724 21.2826 18.6709 21.4134C18.6179 21.5441 18.5293 21.6576 18.4152 21.7407C18.3013 21.8239 18.1662 21.8735 18.0255 21.884C17.8848 21.8945 17.744 21.8656 17.6188 21.8003L12.0083 18.8708L6.38719 21.8078C6.26208 21.8732 6.12119 21.9021 5.9805 21.8916C5.8398 21.8811 5.70481 21.8315 5.59071 21.7483C5.47671 21.6652 5.38817 21.5517 5.33516 21.421C5.28215 21.2902 5.26667 21.1472 5.29061 21.0081L6.36306 14.7978L1.81883 10.4052C1.71718 10.3066 1.64517 10.1817 1.61088 10.0443C1.57668 9.90707 1.58152 9.76286 1.62503 9.62825C1.66864 9.49344 1.74901 9.37374 1.85712 9.28245C1.96532 9.19106 2.0969 9.13187 2.23693 9.11154L8.51538 8.20277L11.3282 2.53317Z" stroke="#191919" stroke-linecap="round" stroke-linejoin="round"/>
</svg>
