<svg width="124" height="90" viewBox="0 0 124 90" fill="none" xmlns="http://www.w3.org/2000/svg">
<g clip-path="url(#clip0_20961_2673)">
<path d="M82.7664 69.6143C98.6207 69.6143 111.473 56.7618 111.473 40.9075C111.473 25.0532 98.6207 12.2007 82.7664 12.2007C66.9121 12.2007 54.0596 25.0532 54.0596 40.9075C54.0596 56.7618 66.9121 69.6143 82.7664 69.6143Z" fill="#090C2C"/>
<path d="M106.142 51.6722C106.425 51.6722 106.654 51.4427 106.654 51.1596C106.654 50.8765 106.425 50.647 106.142 50.647C105.858 50.647 105.629 50.8765 105.629 51.1596C105.629 51.4427 105.858 51.6722 106.142 51.6722Z" fill="white"/>
<path d="M85.9965 29.5269L86.1749 30.2384L86.6629 30.5008L86.1749 30.7633L85.9965 31.4748L85.816 30.7633L85.3301 30.5008L85.816 30.2384L85.9965 29.5269Z" fill="white"/>
<path d="M89.8397 19.6846L89.9791 20.7754L91.0679 20.9149L89.9791 21.0543L89.8397 22.1452L89.7002 21.0543L88.6094 20.9149L89.7002 20.7754L89.8397 19.6846Z" fill="white"/>
<path d="M96.1962 28.3993C96.4793 28.3993 96.7088 28.1698 96.7088 27.8866C96.7088 27.6035 96.4793 27.374 96.1962 27.374C95.9131 27.374 95.6836 27.6035 95.6836 27.8866C95.6836 28.1698 95.9131 28.3993 96.1962 28.3993Z" fill="white"/>
<path d="M105.873 29.4551L106.657 30.0067L107.583 29.7729L107.032 30.5541L107.268 31.483L106.484 30.9314L105.558 31.1652L106.109 30.3839L105.873 29.4551Z" fill="white" stroke="black" stroke-width="8.86765" stroke-miterlimit="10"/>
<path d="M99.212 43.7471L99.1239 44.0526L99.3104 44.3397L98.9885 44.2207L98.7117 44.3766L98.7999 44.071L98.6133 43.784L98.9352 43.9029L99.212 43.7471Z" fill="white"/>
<path d="M99.1502 57.059L98.7176 57.912L99.0805 58.7978L98.2275 58.3631L97.3438 58.7281L97.7785 57.8751L97.4135 56.9893L98.2665 57.424L99.1502 57.059Z" fill="white"/>
<path d="M104.944 36.1709L104.454 36.9562L105.108 37.6083L104.325 37.1162L103.673 37.7723L104.163 36.989L103.509 36.3349L104.292 36.8271L104.944 36.1709Z" fill="white"/>
<path d="M89.2399 48.6607L88.4689 49.6819L89.73 49.9033L88.4607 49.7475L88.8975 50.9491L88.3992 49.7721L87.577 50.7522L88.3459 49.7311L87.0869 49.5096L88.3562 49.6655L87.9194 48.4639L88.4177 49.6408L89.2399 48.6607Z" fill="white"/>
<path d="M103.035 22.7464L101.564 23.9438L103.346 24.5959L101.493 24.194L102.094 25.9923L101.253 24.2924L100.221 25.8857L101.025 24.1673L99.1367 24.3519L100.982 23.911L99.6596 22.5495L101.156 23.7183L101.394 21.8359L101.415 23.7326L103.035 22.7464Z" fill="white"/>
<path d="M57.2831 30.6304L53.8667 31.323C50.0377 32.0992 47.5629 35.8326 48.3391 39.6617L51.9242 57.3462C52.7005 61.1753 56.4338 63.6501 60.2629 62.8738L63.6792 62.1813C67.5083 61.405 69.9831 57.6717 69.2069 53.8426L65.6218 36.158C64.8455 32.329 61.1122 29.8542 57.2831 30.6304Z" fill="#808080"/>
<path d="M81.3243 31.7717C81.4351 39.8404 81.4515 46.2974 81.6257 50.9171C81.7078 53.103 83.586 56.718 81.5355 60.3863C81.3735 60.6754 79.4194 61.2762 79.241 61.5141C75.4989 66.4783 67.5861 68.2028 63.0811 63.6671C62.8782 63.4641 62.0457 62.689 61.8509 62.4368C59.4702 59.3713 60.2679 55.1514 59.9234 53.105C59.2078 48.8523 58.0841 42.4568 56.9297 34.4128C60.2064 33.6049 63.8439 32.8975 67.8096 32.4156C72.7451 31.8148 77.2869 31.6692 81.3243 31.7738V31.7717Z" fill="#E6E6E6"/>
<path d="M77.7282 37.0977C76.9798 37.9876 75.809 39.0538 74.0927 39.7571C70.447 41.2519 65.7678 40.5281 62.2266 37.9527C67.3938 37.6677 72.561 37.3827 77.7282 37.0977Z" fill="#333333"/>
<path d="M68.9239 39.1643C80.0219 39.1643 89.0187 30.3971 89.0187 19.5822C89.0187 8.76723 80.0219 0 68.9239 0C57.8258 0 48.8291 8.76723 48.8291 19.5822C48.8291 30.3971 57.8258 39.1643 68.9239 39.1643Z" fill="#E6E6E6"/>
<path d="M72.9289 37.5815C81.8142 37.5815 89.0171 29.49 89.0171 19.5085C89.0171 9.5271 81.8142 1.43555 72.9289 1.43555C64.0437 1.43555 56.8408 9.5271 56.8408 19.5085C56.8408 29.49 64.0437 37.5815 72.9289 37.5815Z" fill="#808080"/>
<path d="M74.5157 36.454C82.5244 36.454 89.0167 28.9821 89.0167 19.7651C89.0167 10.5481 82.5244 3.07617 74.5157 3.07617C66.507 3.07617 60.0146 10.5481 60.0146 19.7651C60.0146 28.9821 66.507 36.454 74.5157 36.454Z" fill="#4D4D4D"/>
<path d="M74.0498 58.234C76.373 57.4815 80.1336 56.3209 82.4568 55.5684V56.5936C80.8841 58.439 79.3134 60.2845 77.7407 62.1299C76.5104 60.832 75.2801 59.532 74.0498 58.234Z" fill="#B3B3B3"/>
<path d="M54.6216 27.4765C58.4436 27.4765 61.542 24.3322 61.542 20.4536C61.542 16.5749 58.4436 13.4307 54.6216 13.4307C50.7995 13.4307 47.7012 16.5749 47.7012 20.4536C47.7012 24.3322 50.7995 27.4765 54.6216 27.4765Z" fill="#CCCCCC"/>
<path d="M56.1091 56.0803C55.1802 55.9429 54.0893 56.3305 53.6874 57.1097C53.3327 57.7945 53.5993 58.5901 53.7551 59.0023C57.042 67.7374 59.0269 73.0112 63.0828 74.8218C71.3708 78.5229 86.8643 67.1099 93.8401 53.6218C98.7777 44.0747 97.1024 38.0176 104.913 23.6847C106.988 19.8769 111.202 12.7904 116.521 12.6223C117.047 12.6059 118.389 12.5813 119.471 13.4322C122.567 15.8662 120.488 23.0347 120.203 24.0189C117.004 35.0485 106.635 35.5242 101.427 45.6249C99.4933 49.3773 97.8775 55.1884 99.5814 64.0793C99.9915 63.8066 100.402 63.5318 100.812 63.2591C100.176 59.4452 99.8685 53.8986 102.247 48.2905C106.98 37.1359 117.913 37.0169 121.932 25.12C122.514 23.3956 124.979 15.4253 121.112 11.5868C119.276 9.76597 116.752 9.59578 116.223 9.57117C108.936 9.24309 103.127 19.4996 101.222 22.8645C98.8515 27.0516 98.9745 28.3106 95.0704 39.4734C91.5743 49.4716 89.8273 54.4707 88.0987 57.1076C83.3949 64.2884 73.1014 73.8724 65.5434 70.8459C60.0747 68.656 58.5614 60.4356 58.1616 57.7228C58.1226 57.6346 57.5198 56.2895 56.1111 56.0824L56.1091 56.0803Z" fill="url(#paint0_linear_20961_2673)"/>
<path d="M92.7817 34.5708C92.6075 34.3698 92.6218 34.0889 92.8166 33.9413L94.2909 32.8197C94.4837 32.672 94.783 32.7151 94.9573 32.916C95.1316 33.117 95.1173 33.3979 94.9225 33.5455L93.4482 34.6672C93.2554 34.8148 92.956 34.7717 92.7817 34.5708Z" fill="#CCCCCC"/>
<path d="M93.6527 34.7967C93.4805 34.6081 93.5051 34.3353 93.7081 34.1857L95.2644 33.0435C95.4674 32.8938 95.775 32.9246 95.9472 33.1133C96.1194 33.3019 96.0948 33.5746 95.8918 33.7243L94.3355 34.8664C94.1325 35.0161 93.825 34.9853 93.6527 34.7967Z" fill="#CCCCCC"/>
<path d="M92.6478 35.7888C92.738 35.5469 93.0066 35.3992 93.2485 35.4607L95.094 35.9323C95.3359 35.9939 95.459 36.242 95.3687 36.4839C95.2785 36.7259 95.0099 36.8735 94.768 36.812L92.9225 36.3404C92.6806 36.2789 92.5575 36.0308 92.6478 35.7888Z" fill="#CCCCCC"/>
<path d="M93.8619 35.5607C93.7327 35.3495 93.8188 35.087 94.0526 34.9722L95.8447 34.1028C96.0784 33.988 96.3737 34.068 96.5049 34.2792C96.6341 34.4904 96.548 34.7528 96.3142 34.8676L94.5221 35.7371C94.2884 35.8519 93.9931 35.7719 93.8619 35.5607Z" fill="#CCCCCC"/>
<path d="M94.2004 36.0866C93.659 36.6176 92.7261 36.6381 92.1171 36.1337C91.5081 35.6293 91.4548 34.7886 91.9981 34.2575C92.5415 33.7264 93.4724 33.7059 94.0814 34.2104C94.6904 34.7148 94.7437 35.5555 94.2004 36.0866Z" fill="#CCCCCC"/>
<path d="M80.167 42.558C80.9175 44.6556 86.1175 43.4192 89.4742 41.5737C91.8117 40.2881 93.8171 38.1371 93.0236 36.0251C92.7508 35.2992 92.5437 35.1331 91.619 35.0019C89.913 34.76 88.8816 35.9472 86.1606 37.0688C83.6303 38.1125 81.6413 34.1428 80.5361 35.5432C80.0645 36.142 79.9086 41.8382 80.167 42.56V42.558Z" fill="#CCCCCC"/>
<path d="M53.2375 26.5538C56.2951 26.5538 58.7738 23.7795 58.7738 20.3572C58.7738 16.9349 56.2951 14.1606 53.2375 14.1606C50.1799 14.1606 47.7012 16.9349 47.7012 20.3572C47.7012 23.7795 50.1799 26.5538 53.2375 26.5538Z" fill="#E6E6E6"/>
<path d="M79.048 57.8725C79.5688 55.131 87.822 56.6033 92.0193 58.3318C94.9413 59.5334 100.02 66.7737 99.4544 69.5419C99.2596 70.4933 98.6527 70.725 97.6049 71.0449C95.6692 71.6375 91.4555 63.9932 88.1173 63.0603C85.0128 62.1929 79.3371 64.1634 77.8218 62.6071C77.1738 61.9427 78.8675 58.8158 79.048 57.8746V57.8725Z" fill="#CCCCCC"/>
<path d="M70.8456 58.5842C73.2016 56.3205 80.6592 63.9462 83.7268 68.8961C89.4784 78.1746 90.0566 84.324 86.7676 86.5118C85.9413 87.0614 84.9448 86.8543 84.4875 86.7579C78.7625 85.5604 81.1042 74.6375 73.6855 69.2057C70.6508 66.9851 67.3577 66.575 66.7446 63.7576C66.4904 62.5909 69.9865 59.4147 70.8477 58.5863L70.8456 58.5842Z" fill="#E6E6E6"/>
<path d="M44.7983 45.7546C44.3103 43.0254 44.868 38.0099 47.5972 37.5239L58.8544 38.1452C61.5836 37.6572 64.1918 39.476 64.6798 42.2052C65.1679 44.9344 63.3491 47.5426 60.6199 48.0306L50.673 51.8773C47.9438 52.3654 45.2843 48.4858 44.7983 45.7546Z" fill="#E6E6E6"/>
<path d="M81.63 55.8734C79.2555 56.7674 76.8811 57.6594 74.5066 58.5534C73.5039 58.7564 72.046 57.1119 71.7774 55.7791L69.8171 46.1131C69.5465 44.7803 70.1575 43.4003 71.1602 43.1973C73.5244 43.0599 75.8886 42.9225 78.2549 42.7852C78.6424 42.861 79.3868 43.062 80.1311 43.6382C80.8734 44.2123 81.2507 44.8787 81.4229 45.2334L82.6552 51.7888C82.7475 52.203 82.8767 53.0478 82.6019 54.0505C82.3559 54.9466 81.9007 55.5576 81.63 55.8734Z" fill="#808080"/>
<path d="M82.6871 55.7877C80.6735 56.3967 78.6579 57.0036 76.6443 57.6126C75.7605 57.791 74.8255 56.856 74.5569 55.5252L72.5966 45.8592C72.326 44.5264 72.7586 43.2407 73.6403 43.0623C76.0538 42.8757 78.5328 42.7486 80.9462 42.562C81.4896 42.9516 82.2872 43.6201 82.9762 44.6535C83.9789 46.1565 84.188 47.5816 84.3459 48.652C84.5079 49.7531 84.7396 51.3299 84.1142 53.1979C83.7164 54.3913 83.1156 55.2586 82.6871 55.7877Z" fill="#F2F2F2"/>
<path d="M70.6663 49.3413L59.9028 51.5234C58.8384 51.7391 58.1505 52.7769 58.3663 53.8413C58.5821 54.9056 59.6198 55.5936 60.6842 55.3778L71.4477 53.1958C72.512 52.98 73.2 51.9422 72.9842 50.8779C72.7684 49.8135 71.7306 49.1256 70.6663 49.3413Z" fill="#F2F2F2"/>
<path d="M78.2407 52.3168C79.4371 52.0743 80.2144 50.9275 79.9768 49.7555C79.7392 48.5835 78.5767 47.83 77.3802 48.0725C76.1838 48.3151 75.4065 49.4618 75.6441 50.6339C75.8817 51.8059 77.0442 52.5594 78.2407 52.3168Z" fill="#1B1464"/>
<path d="M78.6157 51.9504C79.5724 51.7564 80.178 50.7607 79.9683 49.7263C79.7586 48.6919 78.813 48.0105 77.8563 48.2045C76.8996 48.3984 76.294 49.3942 76.5037 50.4286C76.7134 51.463 77.659 52.1443 78.6157 51.9504Z" fill="#0071BC"/>
<path d="M80.8059 44.0643L79.2324 44.3833L79.7563 46.9677L81.3299 46.6487L80.8059 44.0643Z" fill="#C1272D"/>
<path d="M76.9881 53.9536L77.2656 55.0488L80.0642 54.3396L79.7867 53.2444L76.9881 53.9536Z" fill="#C1272D"/>
<path d="M84.8383 87.3999C84.2231 87.1682 83.2615 86.7909 82.6709 85.8292C82.2014 85.0664 82.025 84.1253 82.2485 83.1861C82.6976 81.3079 84.584 80.1494 86.4623 80.5964C88.4471 82.4336 90.2454 83.4958 91.5331 84.1273C92.7265 84.7137 93.6349 85.0049 94.2459 86.0179C94.9103 87.1169 95.1748 88.9788 94.289 89.8687C94.2644 89.8933 93.9076 90.8139 84.8383 87.3978V87.3999Z" fill="#E6E6E6"/>
<path d="M99.4381 70.6047C99.1019 70.8426 98.5687 71.2096 97.8675 71.183C97.3097 71.1625 96.7643 70.9287 96.3624 70.4858C95.5566 69.6041 95.6283 68.2262 96.5203 67.4101C97.9638 66.6986 99.2146 66.27 100.123 66.0096C102.223 65.4047 102.965 65.5421 103.465 65.8845C103.674 66.0281 103.962 66.2249 104.044 66.5694C104.179 67.1353 103.65 67.6213 99.4381 70.6027V70.6047Z" fill="#CCCCCC"/>
<path d="M74.1533 4.61318C74.547 4.06775 82.8104 6.76209 85.7385 13.7379C88.4677 20.2379 85.2997 27.4413 84.6108 27.3736C83.9854 27.3121 85.7344 21.3165 82.7653 14.6606C79.7081 7.80579 73.8068 5.09095 74.1533 4.61318Z" fill="white"/>
<path d="M69.5396 14.2506C71.1817 14.2506 72.5128 12.9195 72.5128 11.2774C72.5128 9.63535 71.1817 8.3042 69.5396 8.3042C67.8976 8.3042 66.5664 9.63535 66.5664 11.2774C66.5664 12.9195 67.8976 14.2506 69.5396 14.2506Z" fill="white"/>
<path d="M65.2331 19.787C66.3089 19.787 67.1811 18.9149 67.1811 17.8391C67.1811 16.7632 66.3089 15.8911 65.2331 15.8911C64.1573 15.8911 63.2852 16.7632 63.2852 17.8391C63.2852 18.9149 64.1573 19.787 65.2331 19.787Z" fill="white"/>
<path d="M72.496 34.3392C72.9506 33.7121 72.0556 32.2877 70.497 31.1577C68.9383 30.0277 67.3062 29.6201 66.8515 30.2473C66.3969 30.8744 67.2919 32.2988 68.8506 33.4288C70.4092 34.5587 72.0414 34.9663 72.496 34.3392Z" fill="white"/>
<path d="M57.544 38.037C57.5378 37.8196 60.5766 36.7349 63.0803 38.242C64.8601 39.3124 65.426 41.127 65.5409 41.5228C65.5983 41.7196 66.2954 44.3073 64.7207 46.444C62.8568 48.9743 59.2541 48.9168 59.1843 48.6995C59.1187 48.4965 63.0147 48.1007 64.3106 45.4187C65.2435 43.4871 64.6694 40.7046 63.0803 39.2672C60.9785 37.3644 57.5501 38.2297 57.544 38.037Z" fill="#93278F"/>
<path d="M80.2021 80.7893C80.0565 80.6417 81.1761 78.6158 83.2778 77.7136C85.5559 76.7376 87.998 77.5045 87.9939 77.7136C87.9898 77.8982 86.0726 77.5557 83.6879 78.5338C81.4303 79.4606 80.3333 80.9226 80.2021 80.7893Z" fill="#93278F"/>
<path d="M93.9406 68.2817C93.8237 68.2243 94.0513 66.7172 95.1709 65.8211C96.4401 64.8041 98.2282 65.0809 98.2466 65.206C98.263 65.3167 96.8789 65.2511 95.581 66.2312C94.3835 67.1355 94.0472 68.333 93.9406 68.2817Z" fill="#93278F"/>
<path d="M93.1205 37.5236C93.1123 37.5995 91.7815 37.9009 91.07 37.1135C90.3708 36.3384 90.7686 35.0671 90.865 35.063C90.9552 35.0589 90.7686 36.1908 91.4801 36.9084C92.1342 37.5666 93.1287 37.458 93.1205 37.5236Z" fill="#93278F"/>
<path d="M67.7954 71.46C67.6826 71.5338 66.8583 72.0936 66.7701 73.1004C66.6901 74.0251 67.2622 74.9437 68.2055 75.3559" stroke="black" stroke-width="8.86765" stroke-miterlimit="10"/>
<path opacity="0.8" d="M63.696 40.0869C63.8313 40.2551 65.3753 42.2481 64.6187 44.7005C64.0118 46.669 62.357 47.524 62.0556 47.6737C57.7844 49.2793 53.5112 50.8868 49.2401 52.4924C48.83 49.9641 48.4199 47.4338 48.0098 44.9056C53.8619 48.9881 60.1302 48.701 62.5682 45.7258C62.9127 45.3054 64.2086 43.5789 63.696 40.0869Z" fill="#CCCCCC"/>
<path opacity="0.8" d="M58.6965 21.3902C58.4423 24.3122 56.0083 26.539 53.2381 26.5534C50.2424 26.5698 47.6546 23.9944 47.7018 20.812C48.3477 21.3267 50.2321 22.6944 53.0331 22.8625C55.9222 23.0368 58.0096 21.8291 58.6965 21.3902Z" fill="#CCCCCC"/>
<path opacity="0.5" d="M61.4397 19.5825C61.8395 22.5782 60.2483 25.4961 57.5437 26.7592C54.7428 28.0674 51.3574 27.3148 49.3418 24.9137C51.7142 26.9273 55.0729 26.9232 57.1337 25.1188C58.7351 23.7162 59.3666 21.391 58.774 19.1724C59.0201 19.7855 59.5901 20.1915 60.2094 20.1976C60.9394 20.2038 61.3864 19.6522 61.4397 19.5825Z" fill="#808080"/>
<path d="M60.5179 37.3186C59.2159 36.7178 57.7211 35.8668 56.2119 34.6529C52.1171 31.3619 50.2614 27.2794 49.4453 25.0156C49.798 25.4565 50.9319 26.7585 52.9311 27.2712C54.7745 27.7428 56.2816 27.2671 56.8271 27.0661C56.5585 27.8289 55.9761 29.8138 56.622 32.1923C57.4894 35.387 59.9438 36.9679 60.5179 37.3186Z" fill="#CCCCCC"/>
<path d="M64.4133 50.6466C62.7729 50.9891 61.1325 51.3295 59.4921 51.6719C59.3547 50.7143 59.2194 49.7588 59.082 48.8012C59.65 48.7705 60.2693 48.7069 60.9275 48.5962C61.2863 48.5367 61.6287 48.467 61.9527 48.3911C61.9732 48.6208 62.0614 49.2605 62.5679 49.8265C63.2753 50.6179 64.2472 50.6446 64.4133 50.6466Z" fill="#CCCCCC"/>
<path d="M66.0535 54.3379C64.7842 54.9182 64.1301 55.6871 63.798 56.1833C62.2601 58.4799 62.8035 62.1133 65.2333 65.2055C64.4582 64.8077 62.2888 63.5651 60.9273 60.8995C59.697 58.4881 59.8098 56.253 59.902 55.3631C61.9525 55.0207 64.003 54.6803 66.0535 54.3379Z" fill="#CCCCCC"/>
<path d="M62.3629 54.9535C61.5427 55.0909 60.7225 55.2263 59.9023 55.3636C59.0944 55.2447 58.4403 54.6706 58.2619 53.9283C58.0466 53.0343 58.5552 52.0521 59.4922 51.6728C60.4498 51.4677 61.4053 51.2627 62.3629 51.0576C61.1552 51.3877 60.4806 52.5442 60.7225 53.5182C60.8989 54.2297 61.5489 54.7916 62.3629 54.9535Z" fill="#E6E6E6"/>
<path d="M11.0947 43.7964C7.47762 43.7964 6.83787 43.3227 6.77841 43.0418C6.75995 42.9516 6.79276 42.8429 6.87888 42.7178C7.98409 41.1082 16.6125 37.9546 25.1098 36.5705C28.8273 35.9656 32.9713 35.6313 36.7791 35.6313C42.3585 35.6313 45.3501 36.3244 45.4219 37.0072C45.5634 38.3687 35.5324 40.9729 26.4692 42.3898C21.9992 43.089 15.5135 43.7943 11.0947 43.7943V43.7964Z" fill="white"/>
<path d="M36.7793 35.734C42.578 35.734 45.2642 36.4844 45.3195 37.0176C45.3359 37.1734 45.1022 38.0387 38.9097 39.6975C35.346 40.651 30.5724 41.6455 26.4551 42.2894C21.9891 42.9886 15.5096 43.6939 11.0969 43.6939C7.21944 43.6939 6.90572 43.1321 6.88111 43.0193C6.86471 42.9435 6.91802 42.845 6.96518 42.7753C8.06014 41.18 16.6558 38.051 25.1263 36.671C28.8377 36.0661 32.9777 35.734 36.7793 35.734ZM36.7793 35.5289C33.2791 35.5289 29.1248 35.8119 25.0935 36.468C15.8233 37.9772 6.37259 41.5942 6.68016 43.0603C6.80524 43.6591 8.55021 43.8969 11.0969 43.8969C15.284 43.8969 21.6323 43.251 26.4879 42.4903C34.208 41.2826 45.6927 38.6067 45.5266 36.995C45.4344 36.103 41.7722 35.5269 36.7834 35.5269L36.7793 35.5289Z" fill="black"/>
<path d="M39.7245 79.2555L24.7888 81.5869C17.4562 82.731 10.5646 77.5864 9.39373 70.0939L5.67825 46.298C5.64954 46.0068 5.62494 45.6623 5.61878 45.2748C5.59623 45.0062 5.58393 44.6022 5.65979 44.1265C6.65428 37.932 20.1403 35.6949 24.5571 34.9608C29.7448 34.0996 43.2985 31.8502 46.526 37.7454C46.9443 38.5082 47.1042 39.2566 47.1719 39.8184L50.8874 63.6123C52.0582 71.1068 47.0591 78.1092 39.7266 79.2534L39.7245 79.2555Z" fill="#662D91"/>
<path d="M45.6448 37.0402C43.7973 39.6484 42.9546 39.7755 26.606 42.5355C13.3209 44.7766 9.5665 44.8997 7.60213 43.7309C7.18383 43.4828 6.90701 43.206 6.79834 43.1055C3.86819 40.3886 4.26394 35.3731 5.25432 32.2974C6.12578 29.5928 7.78052 27.3803 8.33005 27.5813C9.07848 27.854 7.72721 32.6029 8.9452 33.1176C9.46807 33.339 9.89663 32.5373 10.5856 32.7075C11.9328 33.0397 11.3074 36.3532 13.1815 37.8521C14.0571 38.5534 15.6257 38.9779 16.7371 38.4488C20.3398 36.7305 17.9345 26.7488 20.6719 25.8219C22.7245 25.1268 22.5604 25.0551 23.5426 23.5623C24.4141 22.2397 28.3121 24.7065 31.2955 22.8651C32.8518 21.9055 33.7233 19.7156 33.5511 17.944C33.2189 14.5094 28.9723 12.7337 29.6551 10.9723C29.9853 10.1214 31.0679 10.2977 31.3468 9.28066C31.7097 7.95194 30.3379 5.9035 30.5368 5.77432C30.543 5.77022 30.586 5.74357 30.6455 5.71896C30.7234 5.6841 30.7972 5.66565 30.8854 5.64104C36.5653 4.1811 52.2248 27.7535 45.6428 37.0422L45.6448 37.0402Z" fill="#42210B"/>
<path d="M2.81122 20.1297C2.0956 20.1297 1.82903 19.6498 1.33282 18.5405C1.01499 17.829 0.317826 17.1216 0.151736 16.1148C0.0143534 15.2803 0 14.3555 0 13.3959C0 12.4362 0.485965 11.5894 0.623348 10.7548C0.789438 9.74804 0.725873 8.83353 1.04575 8.12201C1.54197 7.01269 2.0956 5.63477 2.81122 5.63477C3.52684 5.63477 4.68126 6.74408 5.17748 7.85339C5.49531 8.56491 5.07496 9.70908 5.239 10.7159C5.37638 11.5504 5.77007 12.4362 5.77007 13.3959C5.77007 14.3555 5.19388 15.2105 5.0565 16.0451C4.89041 17.0519 4.6341 17.8413 4.31628 18.5528C3.82006 19.6622 3.52684 20.1297 2.81122 20.1297Z" fill="#42210B"/>
<path d="M12.1227 31.735C12.2931 31.3646 12.1594 30.9393 11.824 30.7849C11.4886 30.6306 11.0786 30.8057 10.9082 31.1761C10.7378 31.5464 10.8715 31.9718 11.2069 32.1261C11.5422 32.2804 11.9523 32.1053 12.1227 31.735Z" fill="#42210B"/>
<path d="M11.3369 25.0699C11.7305 23.8284 11.3932 22.614 10.5836 22.3573C9.77394 22.1006 8.79856 22.8989 8.405 24.1404C8.01143 25.3818 8.34872 26.5963 9.15834 26.8529C9.96797 27.1096 10.9434 26.3113 11.3369 25.0699Z" fill="#42210B"/>
<path d="M12.151 11.5387C12.3214 11.1683 12.1877 10.743 11.8523 10.5887C11.517 10.4343 11.1069 10.6095 10.9365 10.9798C10.7661 11.3502 10.8998 11.7755 11.2352 11.9298C11.5706 12.0841 11.9806 11.909 12.151 11.5387Z" fill="#42210B"/>
<path d="M2.82733 4.71122C3.43977 4.61827 3.77783 3.49913 3.58241 2.21156C3.38699 0.92398 2.7321 -0.0444557 2.11966 0.0484949C1.50722 0.141446 1.16916 1.26058 1.36458 2.54816C1.55999 3.83574 2.21489 4.80417 2.82733 4.71122Z" fill="#42210B"/>
<path d="M23.3035 22.9557C23.7095 23.0869 24.1032 22.8737 24.1811 22.4821C24.259 22.0904 23.9924 21.668 23.5865 21.5368C23.1805 21.4055 22.7868 21.6188 22.7088 22.0104C22.6309 22.4021 22.8975 22.8245 23.3035 22.9557Z" fill="#42210B"/>
<path d="M19.3461 19.2993C19.6003 20.4373 19.5839 21.4667 19.9223 22.2397C20.6686 23.9518 21.3822 24.7515 21.2161 24.8643C21.0172 24.9996 19.8197 23.8924 18.5074 22.3279C17.718 21.3846 17.0659 20.2466 16.5492 19.0983C15.971 17.8168 15.4686 16.6049 15.9013 15.4751C16.3175 14.3925 17.2587 13.8634 17.8533 14.05C18.3885 14.2182 18.1937 14.8518 18.3065 16.4553C18.3659 17.2919 19.1 18.1859 19.3481 19.2972L19.3461 19.2993Z" fill="#42210B"/>
<path d="M37.9621 64.5905C40.0167 62.3227 45.512 56.0892 46.7792 46.5462C47.2119 43.2818 47.0356 40.5034 46.7792 38.5493C48.2146 47.5038 49.6499 56.4562 51.0853 65.4107C51.1304 66.8645 50.9991 69.5814 49.4449 72.3824C46.2666 78.1073 39.8917 79.2125 38.9874 79.354C33.5885 80.1742 28.1875 80.9944 22.7885 81.8146C21.6628 81.8413 19.4688 81.7408 17.0472 80.5843C14.4984 79.3663 13.0057 77.6009 12.3311 76.6884C15.6754 76.4239 28.5176 75.0172 37.9621 64.5905Z" fill="#1B1464"/>
<path d="M10.5832 49.6307C10.4415 48.7933 9.64765 48.2294 8.81023 48.3712C7.97281 48.513 7.40889 49.3068 7.55068 50.1442L10.8516 69.6396C10.9934 70.477 11.7872 71.0409 12.6246 70.8991C13.462 70.7574 14.0259 69.9635 13.8841 69.1261L10.5832 49.6307Z" fill="#93278F"/>
<path d="M45.1786 30.6593C45.3426 30.6204 45.5087 29.8596 45.1437 27.6779C44.9653 26.6055 44.8136 25.3301 44.4342 24.0014C44.1103 22.8695 43.854 21.5982 43.3516 20.3966C42.8431 19.1766 42.4699 17.8848 41.8609 16.8288C41.1986 15.6764 40.0011 14.9054 39.2732 13.9397C38.4612 12.859 38.2889 11.2679 37.4728 10.4108C36.5009 9.39167 34.8667 8.55917 34.0137 7.8374C34.6186 8.58173 35.4716 9.933 36.1831 10.9234C36.7736 11.7456 37.8542 12.371 38.4776 13.3614C39.0292 14.237 38.049 16.0722 38.6006 17.0789C39.105 17.9996 41.2724 18.1144 41.7563 19.1417C42.3981 20.5033 41.2991 22.5045 41.7645 23.7246C42.3325 25.2132 43.1117 26.3984 43.4685 27.5528C44.2354 30.038 45.0063 30.6983 45.1786 30.6573V30.6593Z" fill="#754C24"/>
<path d="M30.5843 24.9441C28.0622 25.9386 26.1122 25.0507 26.1429 25.3296C26.1737 25.6208 28.2324 26.6091 30.3116 26.8798C31.9827 27.0971 33.7625 26.8839 34.4043 25.549C34.8124 24.7001 34.8575 23.1909 34.4433 22.7726C33.8774 22.2026 32.8214 24.0624 30.5863 24.9441H30.5843Z" fill="#754C24"/>
<path d="M7.27327 31.3873C7.15024 29.671 7.64645 28.7073 7.56033 28.6622C7.39629 28.5781 6.09834 31.9491 6.90418 33.4706C7.13178 33.9012 7.60749 34.2334 7.76128 34.0816C7.97453 33.8745 7.38194 32.9087 7.27327 31.3873Z" fill="#754C24"/>
</g>
<defs>
<linearGradient id="paint0_linear_20961_2673" x1="53.5111" y1="42.5451" x2="123.24" y2="42.5451" gradientUnits="userSpaceOnUse">
<stop stop-color="white"/>
<stop offset="0.11" stop-color="#E9E9E9"/>
<stop offset="0.35" stop-color="#B2B2B2"/>
<stop offset="0.68" stop-color="#5A5A5A"/>
<stop offset="1"/>
</linearGradient>
<clipPath id="clip0_20961_2673">
<rect width="123.24" height="90" fill="white"/>
</clipPath>
</defs>
</svg>
