<svg width="68" height="50" viewBox="0 0 68 50" fill="none" xmlns="http://www.w3.org/2000/svg">
<g clip-path="url(#clip0_20961_2099)">
<path d="M45.6676 38.4109C54.4155 38.4109 61.5071 31.3193 61.5071 22.5714C61.5071 13.8235 54.4155 6.73193 45.6676 6.73193C36.9197 6.73193 29.8281 13.8235 29.8281 22.5714C29.8281 31.3193 36.9197 38.4109 45.6676 38.4109Z" fill="#090C2C"/>
<path d="M58.5651 28.511C58.7213 28.511 58.8479 28.3844 58.8479 28.2282C58.8479 28.0719 58.7213 27.9453 58.5651 27.9453C58.4089 27.9453 58.2822 28.0719 58.2822 28.2282C58.2822 28.3844 58.4089 28.511 58.5651 28.511Z" fill="white"/>
<path d="M47.4497 16.292L47.5482 16.6846L47.8174 16.8294L47.5482 16.9742L47.4497 17.3668L47.3502 16.9742L47.082 16.8294L47.3502 16.6846L47.4497 16.292Z" fill="white"/>
<path d="M49.5704 10.8613L49.6474 11.4632L50.2481 11.5402L49.6474 11.6171L49.5704 12.219L49.4935 11.6171L48.8916 11.5402L49.4935 11.4632L49.5704 10.8613Z" fill="white"/>
<path d="M53.0778 15.6697C53.234 15.6697 53.3606 15.5431 53.3606 15.3869C53.3606 15.2306 53.234 15.104 53.0778 15.104C52.9216 15.104 52.7949 15.2306 52.7949 15.3869C52.7949 15.5431 52.9216 15.6697 53.0778 15.6697Z" fill="white"/>
<path d="M58.4174 16.2524L58.8496 16.5568L59.361 16.4278L59.0566 16.8589L59.1867 17.3714L58.7546 17.067L58.2432 17.196L58.5475 16.765L58.4174 16.2524Z" fill="white" stroke="black" stroke-miterlimit="10"/>
<path d="M54.7415 24.1382L54.6928 24.3068L54.7958 24.4652L54.6182 24.3995L54.4654 24.4855L54.5141 24.3169L54.4111 24.1585L54.5888 24.2242L54.7415 24.1382Z" fill="white"/>
<path d="M54.7077 31.4833L54.469 31.954L54.6692 32.4427L54.1986 32.2029L53.7109 32.4042L53.9508 31.9336L53.7494 31.4448L54.2201 31.6847L54.7077 31.4833Z" fill="white"/>
<path d="M57.9043 19.958L57.6339 20.3913L57.9948 20.7511L57.5626 20.4796L57.2028 20.8416L57.4732 20.4094L57.1123 20.0485L57.5445 20.3201L57.9043 19.958Z" fill="white"/>
<path d="M49.2397 26.8493L48.8143 27.4128L49.5101 27.535L48.8098 27.449L49.0508 28.112L48.7758 27.4625L48.3222 28.0034L48.7464 27.4399L48.0518 27.3177L48.7521 27.4037L48.5111 26.7407L48.786 27.3901L49.2397 26.8493Z" fill="white"/>
<path d="M56.851 12.5507L56.0398 13.2114L57.0229 13.5712L56.0002 13.3494L56.3317 14.3417L55.8678 13.4037L55.2987 14.2828L55.7422 13.3347L54.7002 13.4366L55.7184 13.1933L54.9887 12.4421L55.8146 13.087L55.9459 12.0483L55.9572 13.0949L56.851 12.5507Z" fill="white"/>
<path d="M31.607 16.9009L29.722 17.2831C27.6092 17.7114 26.2437 19.7713 26.672 21.8841L28.6502 31.6418C29.0785 33.7546 31.1384 35.1201 33.2512 34.6918L35.1362 34.3096C37.2489 33.8813 38.6144 31.8214 38.1861 29.7086L36.208 19.9509C35.7797 17.8381 33.7197 16.4726 31.607 16.9009Z" fill="#808080"/>
<path d="M44.8723 17.5307C44.9334 21.9827 44.9424 25.5455 45.0386 28.0945C45.0838 29.3006 46.1202 31.2952 44.9888 33.3193C44.8994 33.4788 43.8212 33.8103 43.7228 33.9415C41.658 36.6806 37.2919 37.6321 34.8063 35.1295C34.6943 35.0175 34.2349 34.5898 34.1274 34.4506C32.8139 32.7592 33.254 30.4308 33.0639 29.3017C32.6691 26.9552 32.0491 23.4264 31.4121 18.9879C33.2201 18.5422 35.2272 18.1518 37.4153 17.8859C40.1385 17.5544 42.6446 17.4741 44.8723 17.5318V17.5307Z" fill="#E6E6E6"/>
<path d="M42.8883 20.4692C42.4753 20.9603 41.8293 21.5486 40.8823 21.9367C38.8707 22.7614 36.2889 22.3621 34.335 20.941C37.1861 20.7838 40.0372 20.6265 42.8883 20.4692Z" fill="#333333"/>
<path d="M38.03 21.6096C44.1535 21.6096 49.1176 16.7721 49.1176 10.8048C49.1176 4.83747 44.1535 0 38.03 0C31.9065 0 26.9424 4.83747 26.9424 10.8048C26.9424 16.7721 31.9065 21.6096 38.03 21.6096Z" fill="#E6E6E6"/>
<path d="M40.2402 20.7362C45.1428 20.7362 49.1171 16.2715 49.1171 10.7641C49.1171 5.25664 45.1428 0.791992 40.2402 0.791992C35.3376 0.791992 31.3633 5.25664 31.3633 10.7641C31.3633 16.2715 35.3376 20.7362 40.2402 20.7362Z" fill="#808080"/>
<path d="M41.1155 20.114C45.5344 20.114 49.1167 15.9913 49.1167 10.9057C49.1167 5.82 45.5344 1.69727 41.1155 1.69727C36.6965 1.69727 33.1143 5.82 33.1143 10.9057C33.1143 15.9913 36.6965 20.114 41.1155 20.114Z" fill="#4D4D4D"/>
<path d="M40.8584 32.1315C42.1403 31.7162 44.2152 31.0759 45.4971 30.6606V31.2263C44.6293 32.2446 43.7627 33.2628 42.8949 34.2811C42.2161 33.5649 41.5372 32.8476 40.8584 32.1315Z" fill="#B3B3B3"/>
<path d="M30.1388 15.1607C32.2476 15.1607 33.9572 13.4258 33.9572 11.2857C33.9572 9.14555 32.2476 7.41064 30.1388 7.41064C28.0299 7.41064 26.3203 9.14555 26.3203 11.2857C26.3203 13.4258 28.0299 15.1607 30.1388 15.1607Z" fill="#CCCCCC"/>
<path d="M30.9595 30.9433C30.447 30.8675 29.8451 31.0813 29.6233 31.5113C29.4276 31.8892 29.5747 32.3281 29.6607 32.5555C31.4743 37.3753 32.5695 40.2852 34.8074 41.2842C39.3804 43.3264 47.9292 37.0291 51.7782 29.5868C54.5026 24.319 53.5783 20.9769 57.8877 13.0685C59.0327 10.9675 61.3577 7.05738 64.2925 6.96461C64.5833 6.95556 65.3232 6.94198 65.9206 7.41151C67.629 8.75447 66.4818 12.7098 66.3245 13.2529C64.5595 19.3386 58.8381 19.6011 55.9644 25.1743C54.8975 27.2448 54.0059 30.4512 54.9461 35.3569C55.1724 35.2064 55.3987 35.0548 55.625 34.9043C55.2742 32.7999 55.1045 29.7395 56.4169 26.6452C59.0282 20.4904 65.0608 20.4248 67.2783 13.8604C67.5996 12.9089 68.9595 8.51122 66.8257 6.39326C65.8131 5.38858 64.4204 5.29468 64.1285 5.2811C60.1075 5.10008 56.9023 10.7593 55.8512 12.6159C54.5433 14.9262 54.6112 15.6209 52.4571 21.7802C50.528 27.2968 49.5641 30.0552 48.6103 31.5101C46.0149 35.4723 40.3353 40.7604 36.165 39.0905C33.1476 37.8821 32.3126 33.3464 32.092 31.8496C32.0705 31.8009 31.7379 31.0587 30.9606 30.9444L30.9595 30.9433Z" fill="url(#paint0_linear_20961_2099)"/>
<path d="M51.194 19.0752C51.0979 18.9643 51.1058 18.8093 51.2133 18.7278L52.0267 18.109C52.1331 18.0275 52.2983 18.0513 52.3945 18.1621C52.4906 18.273 52.4827 18.428 52.3752 18.5095L51.5617 19.1283C51.4554 19.2098 51.2902 19.186 51.194 19.0752Z" fill="#CCCCCC"/>
<path d="M51.6746 19.1998C51.5795 19.0957 51.5931 18.9453 51.7051 18.8627L52.5639 18.2325C52.6759 18.1499 52.8456 18.1669 52.9406 18.271C53.0356 18.375 53.0221 18.5255 52.9101 18.6081L52.0513 19.2383C51.9393 19.3209 51.7696 19.3039 51.6746 19.1998Z" fill="#CCCCCC"/>
<path d="M51.1198 19.7473C51.1696 19.6138 51.3178 19.5324 51.4513 19.5663L52.4696 19.8265C52.6031 19.8605 52.671 19.9974 52.6212 20.1309C52.5714 20.2644 52.4232 20.3458 52.2897 20.3119L51.2714 20.0517C51.1379 20.0177 51.0701 19.8808 51.1198 19.7473Z" fill="#CCCCCC"/>
<path d="M51.79 19.6215C51.7187 19.505 51.7662 19.3601 51.8952 19.2968L52.8841 18.8171C53.013 18.7537 53.176 18.7978 53.2484 18.9144C53.3196 19.0309 53.2721 19.1757 53.1431 19.2391L52.1543 19.7188C52.0253 19.7821 51.8624 19.738 51.79 19.6215Z" fill="#CCCCCC"/>
<path d="M51.9768 19.9115C51.6781 20.2045 51.1633 20.2158 50.8273 19.9375C50.4912 19.6592 50.4618 19.1953 50.7616 18.9023C51.0615 18.6093 51.5751 18.598 51.9111 18.8763C52.2472 19.1546 52.2766 19.6185 51.9768 19.9115Z" fill="#CCCCCC"/>
<path d="M44.2335 23.4821C44.6476 24.6395 47.5168 23.9573 49.3689 22.939C50.6586 22.2296 51.7651 21.0428 51.3273 19.8775C51.1768 19.477 51.0626 19.3853 50.5523 19.3129C49.611 19.1794 49.0419 19.8345 47.5405 20.4533C46.1444 21.0292 45.0469 18.8388 44.4371 19.6116C44.1769 19.942 44.0909 23.085 44.2335 23.4832V23.4821Z" fill="#CCCCCC"/>
<path d="M29.3751 14.6516C31.0622 14.6516 32.4298 13.1208 32.4298 11.2325C32.4298 9.34424 31.0622 7.81348 29.3751 7.81348C27.688 7.81348 26.3203 9.34424 26.3203 11.2325C26.3203 13.1208 27.688 14.6516 29.3751 14.6516Z" fill="#E6E6E6"/>
<path d="M43.6161 31.9322C43.9034 30.4195 48.4573 31.2319 50.7732 32.1856C52.3855 32.8486 55.1879 36.8436 54.8757 38.371C54.7682 38.8959 54.4333 39.0238 53.8552 39.2003C52.7871 39.5272 50.4621 35.3094 48.6202 34.7946C46.9073 34.3161 43.7756 35.4033 42.9395 34.5446C42.582 34.178 43.5165 32.4527 43.6161 31.9333V31.9322Z" fill="#CCCCCC"/>
<path d="M39.0904 32.3248C40.3903 31.0757 44.5052 35.2834 46.1978 38.0146C49.3713 43.1341 49.6904 46.5271 47.8756 47.7343C47.4197 48.0376 46.8698 47.9233 46.6175 47.8701C43.4587 47.2094 44.7507 41.1825 40.6573 38.1854C38.9829 36.9601 37.1659 36.7338 36.8276 35.1793C36.6873 34.5355 38.6163 32.783 39.0915 32.3259L39.0904 32.3248Z" fill="#E6E6E6"/>
<path d="M24.7184 25.246C24.4491 23.7401 24.7569 20.9727 26.2628 20.7046L32.4741 21.0474C33.98 20.7781 35.4191 21.7817 35.6884 23.2876C35.9576 24.7934 34.9541 26.2326 33.4482 26.5018L27.9598 28.6243C26.454 28.8936 24.9865 26.753 24.7184 25.246Z" fill="#E6E6E6"/>
<path d="M45.0407 30.8291C43.7305 31.3224 42.4204 31.8145 41.1102 32.3078C40.557 32.4198 39.7526 31.5125 39.6043 30.777L38.5227 25.4437C38.3734 24.7083 38.7105 23.9468 39.2638 23.8348C40.5683 23.759 41.8728 23.6832 43.1784 23.6074C43.3922 23.6493 43.8029 23.7602 44.2136 24.0781C44.6232 24.3949 44.8314 24.7626 44.9264 24.9583L45.6064 28.5754C45.6573 28.8039 45.7286 29.27 45.577 29.8233C45.4412 30.3177 45.19 30.6549 45.0407 30.8291Z" fill="#808080"/>
<path d="M45.6244 30.7818C44.5134 31.1179 43.4012 31.4528 42.2902 31.7888C41.8026 31.8872 41.2867 31.3713 41.1385 30.637L40.0569 25.3037C39.9075 24.5682 40.1462 23.8589 40.6327 23.7604C41.9644 23.6575 43.3322 23.5873 44.6639 23.4844C44.9637 23.6993 45.4038 24.0682 45.784 24.6384C46.3372 25.4677 46.4526 26.254 46.5397 26.8446C46.6291 27.4522 46.757 28.3222 46.4119 29.3529C46.1924 30.0114 45.8609 30.4899 45.6244 30.7818Z" fill="#F2F2F2"/>
<path d="M38.9916 27.225L33.0526 28.429C32.4653 28.548 32.0858 29.1206 32.2048 29.7079C32.3239 30.2952 32.8965 30.6748 33.4838 30.5557L39.4227 29.3517C40.01 29.2327 40.3896 28.6601 40.2705 28.0728C40.1514 27.4855 39.5788 27.1059 38.9916 27.225Z" fill="#F2F2F2"/>
<path d="M43.1711 28.8666C43.8312 28.7328 44.2601 28.1001 44.129 27.4534C43.9979 26.8067 43.3565 26.3909 42.6963 26.5248C42.0361 26.6586 41.6073 27.2913 41.7384 27.938C41.8695 28.5847 42.5109 29.0005 43.1711 28.8666Z" fill="#404341"/>
<path d="M43.3778 28.6646C43.9056 28.5576 44.2398 28.0082 44.1241 27.4374C44.0084 26.8667 43.4866 26.4907 42.9587 26.5977C42.4309 26.7048 42.0967 27.2542 42.2124 27.8249C42.3281 28.3957 42.8499 28.7716 43.3778 28.6646Z" fill="#6B706C"/>
<path d="M44.586 24.3132L43.7178 24.4893L44.0069 25.9152L44.8751 25.7392L44.586 24.3132Z" fill="#404341"/>
<path d="M42.4797 29.7697L42.6328 30.374L44.177 29.9827L44.0239 29.3784L42.4797 29.7697Z" fill="#404341"/>
<path d="M46.8111 48.2243C46.4717 48.0965 45.9411 47.8883 45.6152 47.3577C45.3561 46.9368 45.2588 46.4175 45.3822 45.8993C45.6299 44.863 46.6708 44.2237 47.7072 44.4704C48.8024 45.4841 49.7946 46.0702 50.5051 46.4186C51.1636 46.7422 51.6648 46.9029 52.0019 47.4618C52.3685 48.0682 52.5145 49.0955 52.0257 49.5865C52.0121 49.6001 51.8153 50.1081 46.8111 48.2232V48.2243Z" fill="#E6E6E6"/>
<path d="M54.8668 38.9574C54.6812 39.0886 54.3871 39.2911 54.0001 39.2764C53.6924 39.2651 53.3914 39.1361 53.1697 38.8918C52.7251 38.4053 52.7647 37.645 53.2568 37.1947C54.0533 36.8021 54.7435 36.5656 55.2447 36.4219C56.4032 36.0882 56.8128 36.164 57.0888 36.3529C57.2042 36.4321 57.3626 36.5407 57.4079 36.7308C57.4826 37.0431 57.1907 37.3112 54.8668 38.9563V38.9574Z" fill="#CCCCCC"/>
<path d="M40.9153 2.54548C41.1325 2.24453 45.692 3.73117 47.3077 7.58017C48.8135 11.1667 47.0655 15.1413 46.6854 15.1039C46.3403 15.07 47.3054 11.7618 45.6671 8.08929C43.9802 4.30705 40.7241 2.80909 40.9153 2.54548Z" fill="white"/>
<path d="M38.37 7.86307C39.276 7.86307 40.0105 7.12858 40.0105 6.22255C40.0105 5.31652 39.276 4.58203 38.37 4.58203C37.464 4.58203 36.7295 5.31652 36.7295 6.22255C36.7295 7.12858 37.464 7.86307 38.37 7.86307Z" fill="white"/>
<path d="M35.9938 10.9177C36.5874 10.9177 37.0686 10.4365 37.0686 9.84289C37.0686 9.24928 36.5874 8.76807 35.9938 8.76807C35.4002 8.76807 34.9189 9.24928 34.9189 9.84289C34.9189 10.4365 35.4002 10.9177 35.9938 10.9177Z" fill="white"/>
<path d="M40.0013 18.9472C40.2521 18.6011 39.7583 17.8152 38.8983 17.1917C38.0382 16.5682 37.1377 16.3433 36.8868 16.6894C36.636 17.0354 37.1298 17.8213 37.9898 18.4448C38.8499 19.0683 39.7504 19.2932 40.0013 18.9472Z" fill="white"/>
<path d="M31.751 20.9875C31.7476 20.8676 33.4243 20.2691 34.8057 21.1007C35.7878 21.6912 36.1 22.6925 36.1634 22.9109C36.1951 23.0195 36.5798 24.4473 35.7109 25.6262C34.6824 27.0224 32.6946 26.9907 32.6561 26.8707C32.6199 26.7587 34.7695 26.5404 35.4846 25.0605C35.9994 23.9948 35.6826 22.4595 34.8057 21.6663C33.6461 20.6164 31.7544 21.0939 31.751 20.9875Z" fill="#404341"/>
<path d="M44.2531 44.577C44.1727 44.4955 44.7905 43.3777 45.9501 42.8799C47.2071 42.3414 48.5546 42.7645 48.5523 42.8799C48.5501 42.9817 47.4922 42.7928 46.1764 43.3325C44.9308 43.8439 44.3255 44.6505 44.2531 44.577Z" fill="#404341"/>
<path d="M51.8335 37.6755C51.769 37.6438 51.8946 36.8123 52.5124 36.3178C53.2127 35.7567 54.1993 35.9094 54.2095 35.9784C54.2185 36.0395 53.4548 36.0033 52.7386 36.5441C52.0779 37.0431 51.8924 37.7038 51.8335 37.6755Z" fill="#404341"/>
<path d="M51.3812 20.7044C51.3767 20.7462 50.6424 20.9125 50.2498 20.4781C49.864 20.0504 50.0835 19.3489 50.1367 19.3467C50.1865 19.3444 50.0835 19.969 50.4761 20.3649C50.837 20.7281 51.3857 20.6682 51.3812 20.7044Z" fill="#404341"/>
<path d="M37.4077 39.4292C37.3455 39.4699 36.8906 39.7788 36.842 40.3343C36.7979 40.8446 37.1135 41.3514 37.634 41.5788" stroke="black" stroke-miterlimit="10"/>
<path opacity="0.8" d="M35.1454 22.1187C35.22 22.2114 36.072 23.3111 35.6545 24.6643C35.3196 25.7504 34.4066 26.2222 34.2403 26.3048C31.8836 27.1907 29.5258 28.0777 27.1691 28.9636C26.9428 27.5686 26.7165 26.1724 26.4902 24.7774C29.7192 27.03 33.1779 26.8716 34.5231 25.23C34.7132 24.998 35.4282 24.0454 35.1454 22.1187Z" fill="#CCCCCC"/>
<path opacity="0.8" d="M32.3872 11.8025C32.2469 13.4147 30.9039 14.6434 29.3754 14.6513C27.7225 14.6603 26.2946 13.2393 26.3207 11.4834C26.6771 11.7674 27.7168 12.522 29.2623 12.6148C30.8564 12.711 32.0082 12.0446 32.3872 11.8025Z" fill="#CCCCCC"/>
<path opacity="0.5" d="M33.9008 10.8049C34.1214 12.4579 33.2435 14.0678 31.7512 14.7648C30.2057 15.4866 28.3377 15.0714 27.2256 13.7465C28.5346 14.8575 30.3878 14.8553 31.5249 13.8596C32.4085 13.0858 32.757 11.8028 32.43 10.5786C32.5658 10.9169 32.8803 11.1409 33.222 11.1443C33.6247 11.1477 33.8714 10.8434 33.9008 10.8049Z" fill="#808080"/>
<path d="M33.3917 20.5911C32.6733 20.2596 31.8485 19.7901 31.0158 19.1203C28.7564 17.3044 27.7325 15.0518 27.2822 13.8027C27.4768 14.046 28.1025 14.7644 29.2056 15.0473C30.2227 15.3075 31.0543 15.045 31.3552 14.9341C31.207 15.355 30.8857 16.4502 31.2421 17.7626C31.7207 19.5253 33.075 20.3976 33.3917 20.5911Z" fill="#CCCCCC"/>
<path d="M35.5412 27.9452C34.6361 28.1342 33.731 28.322 32.8259 28.5109C32.7501 27.9825 32.6754 27.4553 32.5996 26.927C32.913 26.91 33.2547 26.8749 33.6179 26.8138C33.8159 26.781 34.0048 26.7425 34.1836 26.7007C34.1949 26.8274 34.2435 27.1804 34.523 27.4927C34.9133 27.9294 35.4496 27.9441 35.5412 27.9452Z" fill="#CCCCCC"/>
<path d="M36.4465 29.9819C35.7462 30.3021 35.3853 30.7264 35.202 31.0002C34.3535 32.2673 34.6533 34.2722 35.994 35.9783C35.5663 35.7588 34.3693 35.0732 33.6181 33.6024C32.9392 32.2719 33.0014 31.0387 33.0524 30.5476C34.1838 30.3587 35.3151 30.1709 36.4465 29.9819Z" fill="#CCCCCC"/>
<path d="M34.41 30.3215C33.9574 30.3973 33.5049 30.472 33.0523 30.5478C32.6065 30.4822 32.2456 30.1654 32.1472 29.7558C32.0284 29.2625 32.309 28.7206 32.826 28.5113C33.3544 28.3982 33.8816 28.285 34.41 28.1719C33.7436 28.354 33.3713 28.9921 33.5049 29.5295C33.6022 29.9221 33.9608 30.2321 34.41 30.3215Z" fill="#E6E6E6"/>
<path d="M6.12163 24.1654C4.12585 24.1654 3.77286 23.904 3.74005 23.749C3.72986 23.6992 3.74797 23.6393 3.79549 23.5702C4.40531 22.6821 9.1662 20.942 13.8547 20.1783C15.9059 19.8446 18.1924 19.6602 20.2934 19.6602C23.3719 19.6602 25.0226 20.0426 25.0622 20.4193C25.1403 21.1706 19.6055 22.6074 14.6048 23.3892C12.1384 23.775 8.55977 24.1642 6.12163 24.1642V24.1654Z" fill="white"/>
<path d="M20.2934 19.7168C23.4929 19.7168 24.9751 20.1309 25.0056 20.4251C25.0147 20.511 24.8857 20.9885 21.4689 21.9038C19.5025 22.4299 16.8686 22.9786 14.5968 23.3339C12.1326 23.7197 8.55744 24.1089 6.12269 24.1089C3.98323 24.1089 3.81013 23.7989 3.79655 23.7366C3.7875 23.6948 3.81692 23.6405 3.84294 23.602C4.4471 22.7218 9.18989 20.9953 13.8637 20.2339C15.9115 19.9001 18.1958 19.7168 20.2934 19.7168ZM20.2934 19.6037C18.3621 19.6037 16.0699 19.7598 13.8456 20.1218C8.73055 20.9546 3.51597 22.9503 3.68567 23.7593C3.75469 24.0896 4.7175 24.2209 6.12269 24.2209C8.43299 24.2209 11.9358 23.8645 14.6149 23.4447C18.8746 22.7784 25.2115 21.3019 25.1199 20.4126C25.069 19.9205 23.0483 19.6025 20.2956 19.6025L20.2934 19.6037Z" fill="black"/>
<path d="M21.9187 43.7305L13.6777 45.0169C9.63184 45.6482 5.82924 42.8096 5.18321 38.6755L3.13313 25.5457C3.11729 25.385 3.10372 25.1949 3.10032 24.9811C3.08788 24.8329 3.08109 24.61 3.12295 24.3475C3.67168 20.9296 11.1128 19.6952 13.5499 19.2902C16.4123 18.815 23.8908 17.5739 25.6716 20.8266C25.9024 21.2475 25.9906 21.6605 26.028 21.9705L28.078 35.0991C28.7241 39.2344 25.9657 43.0981 21.9199 43.7294L21.9187 43.7305Z" fill="#6B706C"/>
<path d="M25.1855 20.4374C24.1661 21.8766 23.7011 21.9467 14.6805 23.4696C7.35026 24.7062 5.27869 24.7741 4.19481 24.1292C3.96401 23.9923 3.81127 23.8395 3.75131 23.7841C2.13455 22.285 2.35291 19.5176 2.89937 17.8205C3.38021 16.3282 4.29325 15.1075 4.59646 15.2183C5.00942 15.3688 4.26383 17.9891 4.93588 18.2731C5.22438 18.3953 5.46084 17.9529 5.84099 18.0468C6.58431 18.2301 6.23924 20.0584 7.27333 20.8855C7.75643 21.2724 8.62195 21.5066 9.23516 21.2147C11.223 20.2666 9.89589 14.759 11.4063 14.2476C12.5388 13.8641 12.4483 13.8245 12.9902 13.0008C13.4711 12.2711 15.6219 13.6321 17.268 12.6161C18.1268 12.0866 18.6076 10.8783 18.5126 9.9008C18.3293 8.00572 15.9862 7.02594 16.3629 6.05407C16.5451 5.58454 17.1425 5.68184 17.2963 5.12067C17.4966 4.38753 16.7397 3.25727 16.8494 3.18599C16.8528 3.18373 16.8766 3.16902 16.9094 3.15545C16.9524 3.13621 16.9931 3.12603 17.0418 3.11245C20.1757 2.3069 28.8161 15.3134 25.1844 20.4386L25.1855 20.4374Z" fill="#404341"/>
<path d="M1.55114 11.1067C1.15628 11.1067 1.0092 10.8419 0.735404 10.2299C0.560039 9.83727 0.175366 9.44694 0.0837229 8.89143C0.00791974 8.43095 0 7.92069 0 7.3912C0 6.86171 0.26814 6.39445 0.343943 5.93397C0.435586 5.37846 0.400512 4.87386 0.577009 4.48126C0.850806 3.86918 1.15628 3.10889 1.55114 3.10889C1.94599 3.10889 2.58297 3.72097 2.85676 4.33305C3.03213 4.72564 2.80019 5.35696 2.8907 5.91247C2.96651 6.37295 3.18373 6.86171 3.18373 7.3912C3.18373 7.92069 2.86581 8.39248 2.79001 8.85296C2.69837 9.40847 2.55694 9.84406 2.38158 10.2367C2.10778 10.8487 1.94599 11.1067 1.55114 11.1067Z" fill="#404341"/>
<path d="M6.68902 17.5101C6.78305 17.3058 6.70927 17.0711 6.52422 16.9859C6.33917 16.9008 6.11293 16.9974 6.01889 17.2018C5.92486 17.4061 5.99865 17.6408 6.1837 17.726C6.36874 17.8111 6.59498 17.7145 6.68902 17.5101Z" fill="#404341"/>
<path d="M6.25507 13.8327C6.47223 13.1477 6.28613 12.4776 5.8394 12.336C5.39268 12.1943 4.85449 12.6348 4.63734 13.3198C4.42018 14.0048 4.60628 14.6749 5.05301 14.8165C5.49973 14.9581 6.03792 14.5176 6.25507 13.8327Z" fill="#404341"/>
<path d="M6.70464 6.36658C6.79868 6.16223 6.72489 5.92754 6.53984 5.84239C6.35479 5.75724 6.12855 5.85387 6.03452 6.05822C5.94049 6.26256 6.01427 6.49725 6.19932 6.5824C6.38437 6.66756 6.61061 6.57093 6.70464 6.36658Z" fill="#404341"/>
<path d="M1.55995 2.5995C1.89787 2.54822 2.0844 1.93071 1.97658 1.22027C1.86875 0.509829 1.5074 -0.0245216 1.16948 0.0267655C0.831558 0.0780525 0.645026 0.695556 0.752851 1.406C0.860676 2.11644 1.22203 2.65079 1.55995 2.5995Z" fill="#404341"/>
<path d="M12.858 12.6661C13.082 12.7385 13.2993 12.6209 13.3423 12.4048C13.3853 12.1887 13.2382 11.9556 13.0142 11.8832C12.7901 11.8108 12.5729 11.9284 12.5299 12.1445C12.4869 12.3606 12.634 12.5937 12.858 12.6661Z" fill="#404341"/>
<path d="M10.6743 10.6486C10.8145 11.2766 10.8055 11.8445 10.9922 12.271C11.404 13.2158 11.7977 13.657 11.7061 13.7192C11.5963 13.7939 10.9356 13.1829 10.2115 12.3197C9.77593 11.7993 9.41614 11.1713 9.13103 10.5378C8.81198 9.83064 8.53479 9.16198 8.77351 8.53859C9.00319 7.94121 9.5225 7.64931 9.8506 7.75227C10.1459 7.84504 10.0384 8.19464 10.1006 9.07939C10.1334 9.541 10.5385 10.0343 10.6754 10.6475L10.6743 10.6486Z" fill="#404341"/>
<path d="M20.9461 35.6387C22.0798 34.3874 25.1119 30.9479 25.8111 25.6824C26.0498 23.8813 25.9525 22.3482 25.8111 21.27C26.6031 26.2108 27.395 31.1505 28.187 36.0912C28.2119 36.8934 28.1395 38.3925 27.2819 39.938C25.5282 43.0968 22.0107 43.7066 21.5118 43.7847C18.5328 44.2373 15.5528 44.6898 12.5738 45.1424C11.9527 45.1571 10.7421 45.1016 9.40591 44.4635C7.99959 43.7915 7.17594 42.8174 6.80371 42.3139C8.64901 42.1679 15.7349 41.3918 20.9461 35.6387Z" fill="#404341"/>
<path d="M5.83934 27.3844C5.76111 26.9223 5.32311 26.6112 4.86105 26.6894C4.39899 26.7676 4.08784 27.2056 4.16607 27.6677L5.9874 38.4246C6.06563 38.8867 6.50363 39.1978 6.96569 39.1196C7.42775 39.0413 7.7389 38.6033 7.66067 38.1413L5.83934 27.3844Z" fill="#D5D7D5"/>
<path d="M24.928 16.9166C25.0185 16.8951 25.1102 16.4754 24.9088 15.2716C24.8103 14.6798 24.7266 13.9761 24.5173 13.243C24.3385 12.6184 24.1971 11.917 23.9199 11.254C23.6393 10.5808 23.4334 9.86803 23.0974 9.28537C22.732 8.64953 22.0712 8.22412 21.6696 7.69124C21.2216 7.095 21.1265 6.21704 20.6762 5.74411C20.14 5.18181 19.2382 4.72247 18.7676 4.32422C19.1013 4.73491 19.572 5.4805 19.9646 6.02696C20.2904 6.48065 20.8867 6.82572 21.2306 7.37219C21.535 7.85529 20.9942 8.86789 21.2985 9.4234C21.5768 9.93139 22.7727 9.99475 23.0397 10.5616C23.3938 11.3128 22.7874 12.4171 23.0442 13.0902C23.3576 13.9116 23.7876 14.5656 23.9844 15.2025C24.4076 16.5738 24.833 16.9381 24.928 16.9155V16.9166Z" fill="#404341"/>
<path d="M16.8756 13.7633C15.484 14.312 14.408 13.8221 14.425 13.976C14.442 14.1367 15.5779 14.682 16.7251 14.8314C17.6472 14.9513 18.6293 14.8336 18.9834 14.0971C19.2085 13.6287 19.2334 12.796 19.0049 12.5652C18.6926 12.2506 18.1099 13.2768 16.8767 13.7633H16.8756Z" fill="#404341"/>
<path d="M4.01303 17.3184C3.94515 16.3715 4.21894 15.8397 4.17143 15.8148C4.08091 15.7684 3.36474 17.6284 3.80938 18.4679C3.93497 18.7055 4.19745 18.8888 4.2823 18.8051C4.39997 18.6908 4.073 18.1579 4.01303 17.3184Z" fill="#404341"/>
</g>
<defs>
<linearGradient id="paint0_linear_20961_2099" x1="29.526" y1="23.475" x2="68.0001" y2="23.475" gradientUnits="userSpaceOnUse">
<stop stop-color="white"/>
<stop offset="0.11" stop-color="#E9E9E9"/>
<stop offset="0.35" stop-color="#B2B2B2"/>
<stop offset="0.68" stop-color="#5A5A5A"/>
<stop offset="1"/>
</linearGradient>
<clipPath id="clip0_20961_2099">
<rect width="68" height="49.659" fill="white"/>
</clipPath>
</defs>
</svg>
