<svg width="16" height="16" viewBox="0 0 16 16" fill="none" xmlns="http://www.w3.org/2000/svg">
<path d="M14.6667 4.00016V5.6135C14.6667 6.66683 14 7.3335 12.9467 7.3335H10.6667V2.6735C10.6667 1.9335 11.2734 1.3335 12.0134 1.3335C12.74 1.34016 13.4067 1.6335 13.8867 2.1135C14.3667 2.60016 14.6667 3.26683 14.6667 4.00016Z" stroke="#58514D" stroke-width="1.5" stroke-miterlimit="10" stroke-linecap="round" stroke-linejoin="round"/>
<path d="M1.33331 4.66683V14.0002C1.33331 14.5535 1.95996 14.8668 2.39996 14.5335L3.53998 13.6802C3.80664 13.4802 4.17998 13.5068 4.41998 13.7468L5.52663 14.8602C5.78663 15.1202 6.21333 15.1202 6.47333 14.8602L7.59332 13.7402C7.82666 13.5068 8.19998 13.4802 8.45998 13.6802L9.6 14.5335C10.04 14.8602 10.6666 14.5468 10.6666 14.0002V2.66683C10.6666 1.9335 11.2666 1.3335 12 1.3335H4.66665H3.99998C1.99998 1.3335 1.33331 2.52683 1.33331 4.00016V4.66683Z" stroke="#58514D" stroke-width="1.5" stroke-miterlimit="10" stroke-linecap="round" stroke-linejoin="round"/>
</svg>
